<svg width="31" height="22" viewBox="0 0 31 22" fill="none" xmlns="http://www.w3.org/2000/svg">
<g id="Group 1483">
<path id="Vector" d="M22.1221 1L12.1834 17.7402" stroke="#36A0FF" stroke-width="0.5" stroke-dasharray="1 1"/>
<path id="Vector_2" d="M30.7548 17.7404H12.6416" stroke="#36A0FF" stroke-width="0.5" stroke-dasharray="1 1"/>
<path id="Vector_3" d="M25.3242 16.786C25.3242 17.4811 25.3242 18.1763 25.3242 18.8714" stroke="#36A0FF" stroke-width="0.5" stroke-linecap="round" stroke-linejoin="round"/>
<path id="Vector_4" d="M25.3242 16.785C25.699 16.6968 26.1001 16.6025 26.4155 16.4172C26.6535 16.2775 26.8114 16.0515 27.002 15.8757C27.1975 15.6954 27.3943 15.4647 27.3943 15.2209" stroke="#36A0FF" stroke-width="0.5" stroke-linecap="round" stroke-linejoin="round"/>
<path id="Vector_5" d="M2.88196 6.94568L1 8.06461L8.40251 20.7" stroke="#36A0FF" stroke-width="0.5"/>
<path id="Vector_6" d="M8.24512 20.4348C8.76264 21.2168 8.76264 21.2168 9.28016 21.2168" stroke="#36A0FF" stroke-width="0.5"/>
<path id="Vector_7" d="M27.6531 15.4237C27.6361 15.3213 27.6665 15.2209 27.7821 15.2209C27.839 15.2209 27.8749 15.2767 27.9032 15.3194C27.9334 15.3649 27.974 15.4058 28.007 15.45C28.0462 15.5026 28.0839 15.554 28.1144 15.612C28.1455 15.6711 28.1904 15.7276 28.2127 15.7896C28.2564 15.9108 28.3382 16.0302 28.3474 16.1614C28.3524 16.2323 28.4162 16.2864 28.4212 16.3547C28.4268 16.4317 28.4293 16.508 28.4293 16.586C28.4293 16.7286 28.4284 16.8489 28.3674 16.9837C28.3408 17.0426 28.3134 17.0982 28.2837 17.1537C28.2592 17.1994 28.2236 17.2404 28.1918 17.2821C28.1493 17.3378 28.1008 17.3923 28.0525 17.4432C27.9964 17.5022 27.9392 17.5456 27.8759 17.5971C27.7246 17.7202 27.5726 17.8412 27.4217 17.9653C27.3581 18.0176 27.3001 18.0699 27.2332 18.1183C27.1463 18.1813 27.0748 18.2493 27.0084 18.3349C26.8994 18.4754 26.8189 18.6315 26.7094 18.7715C26.6323 18.8701 26.5093 18.8691 26.3899 18.8691C26.3244 18.8691 26.2577 18.8724 26.1924 18.8686C26.1567 18.8666 26.1236 18.8489 26.0904 18.8368C26.0497 18.822 26.0038 18.8139 25.9616 18.8029C25.9291 18.7943 25.8963 18.7708 25.8651 18.7563C25.785 18.7191 25.6902 18.7111 25.6075 18.6803C25.5476 18.658 25.4827 18.6436 25.4186 18.6436C25.3949 18.6436 25.3729 18.6275 25.3467 18.6275C25.3082 18.6275 25.3281 18.6065 25.3408 18.5791" stroke="#36A0FF" stroke-width="0.5" stroke-linecap="round" stroke-linejoin="round"/>
<path id="Vector_8" d="M27.3943 14.6993C27.3524 14.8867 27.248 15.0639 27.1816 15.2439C27.1346 15.3715 27.0746 15.5178 26.9737 15.6188C26.7764 15.8162 26.5451 15.9977 26.3057 16.1472C26.2181 16.2019 26.1408 16.2728 26.0536 16.3302C25.9553 16.3949 25.8587 16.453 25.7559 16.5088C25.6114 16.5871 25.4847 16.7347 25.3242 16.7848" stroke="#36A0FF" stroke-width="0.5" stroke-linecap="round" stroke-linejoin="round"/>
<path id="Vector_9" d="M27.3936 14.6993C27.3936 14.7304 27.3936 14.8561 27.3936 15.0127C27.3936 15.0803 27.3936 15.1441 27.3936 15.2207" stroke="#36A0FF" stroke-width="0.5" stroke-linecap="round" stroke-linejoin="round"/>
<path id="Vector_10" d="M9.02148 21.2173L29.4635 21.2825" stroke="#36A0FF" stroke-width="0.5"/>
<path id="Vector_11" d="M9.79785 19.1973H29.4636" stroke="#36A0FF" stroke-width="0.5"/>
<path id="Vector_12" d="M29.6572 19.0012V21.4787" stroke="#36A0FF" stroke-width="0.5"/>
<path id="Vector_13" d="M2.57422 6.88098L10.0714 19.3655" stroke="#36A0FF" stroke-width="0.5"/>
<path id="Vector_14" d="M16.6778 6.26536C16.4196 6.07395 15.7876 6.2607 15.6474 6.79604" stroke="#36A0FF" stroke-width="0.5" stroke-linecap="round" stroke-linejoin="round"/>
<path id="Vector_15" d="M18.2416 4.86073C18.5134 4.6413 19.1608 4.76851 19.4109 4.54295C19.6527 4.32482 19.8601 4.58336 20.0314 4.78322C20.1811 4.95787 20.4574 5.01061 20.625 5.20553C20.7243 5.32101 21.4506 5.40893 21.2521 5.13001C21.1173 4.94071 21.053 4.68335 20.9201 4.49659C20.8213 4.35784 20.6683 4.10112 20.6201 3.92746C20.5071 3.51975 20.0542 2.70379 19.6294 2.60379C19.1248 2.485 18.6096 2.32896 18.109 2.53404C17.6376 2.72709 17.394 3.16725 17.2349 3.59504C17.1328 3.86965 17.157 4.16664 17.1324 4.44403C17.0999 4.80868 17.0003 5.08779 16.8787 5.415" stroke="#36A0FF" stroke-width="0.5" stroke-linecap="round" stroke-linejoin="round"/>
<path id="Vector_16" d="M20.9453 4.85571C20.8804 5.18471 20.7854 5.543 20.5891 5.80506C20.4811 5.94927 20.2375 5.98201 20.2875 6.21555C20.3281 6.40566 20.2259 6.77253 20.0918 6.88076C19.9259 7.01467 19.8477 6.92906 19.6894 6.98905C19.4206 7.09087 19.195 7.39791 18.9671 7.56585C18.8177 7.67594 18.5127 7.39316 18.3312 7.52234C18.1169 7.67502 17.289 8.14959 17.8408 8.36363" stroke="#36A0FF" stroke-width="0.5" stroke-linecap="round" stroke-linejoin="round"/>
<path id="Vector_17" d="M16.8242 5.51001C16.8242 5.51001 16.7919 5.54669 16.5213 5.8542C16.3447 6.05495 16.168 6.25575 15.9913 6.4565" stroke="#36A0FF" stroke-width="0.5" stroke-linecap="round" stroke-linejoin="round"/>
<path id="Vector_18" d="M16.0433 6.65936C16.1462 6.60727 17.0078 6.17273 17.1405 6.29586C17.3392 6.48017 17.5311 6.69215 17.7197 6.92923C17.9458 7.21355 18.5123 8.00671 18.8728 7.71574" stroke="#36A0FF" stroke-width="0.5" stroke-linecap="round" stroke-linejoin="round"/>
<path id="Vector_19" d="M14.753 6.7719C14.8606 6.73045 15.7611 6.38489 15.8809 6.52076C16.0602 6.72416 16.2302 6.95441 16.3942 7.2093C16.591 7.51497 17.076 8.36123 17.4636 8.10803" stroke="#36A0FF" stroke-width="0.5" stroke-linecap="round" stroke-linejoin="round"/>
<path id="Vector_20" d="M13.4306 9.50076C13.4986 9.65626 13.653 9.68905 13.7736 9.79601C13.8591 9.87174 13.969 9.93561 14.0707 9.99337C14.3043 10.1261 14.5663 10.3145 14.7061 10.5316" stroke="#36A0FF" stroke-width="0.5" stroke-linecap="round" stroke-linejoin="round"/>
<path id="Vector_21" d="M16.4316 8.61206C16.0063 9.22199 15.6396 9.82388 15.0844 10.3277C15.0014 10.403 14.8916 10.5428 14.8345 10.6367C14.7702 10.7424 14.6856 10.8386 14.6262 10.9456C14.4021 11.349 14.0731 11.6855 13.843 12.0735C13.5995 12.484 13.5968 12.9704 13.6252 13.429C13.6471 13.7826 13.663 14.1252 13.6512 14.4765C13.6456 14.6453 13.6471 14.811 13.6496 14.9801C13.6512 15.086 13.6128 15.2161 13.627 15.3166C13.6489 15.4736 13.6038 15.6453 13.5992 15.8054C13.5947 15.9582 13.5976 16.1107 13.5846 16.263C13.5544 16.6167 13.5513 16.9984 13.5788 17.3488C13.602 17.6439 13.609 17.8915 13.7712 18.1435C13.8798 18.3121 13.9883 18.4808 14.0969 18.6494C14.2796 18.9333 14.3391 19.2743 14.3559 19.6199C14.3627 19.76 14.2957 19.9264 14.2641 20.0608C14.2485 20.1271 14.214 20.1735 14.1529 20.2134" stroke="#36A0FF" stroke-width="0.5" stroke-linecap="round" stroke-linejoin="round"/>
<path id="Vector_22" d="M12.1016 12.2311C11.848 12.7467 11.843 13.2 11.9143 13.7169C11.9491 13.9694 11.9545 14.2272 11.9848 14.4814C12.0119 14.7092 12.0112 14.9695 12.0816 15.1846C12.1148 15.2865 12.1104 15.3967 12.1384 15.501C12.1724 15.6277 12.2179 15.7509 12.2427 15.8805C12.2774 16.0619 12.3035 16.2419 12.3549 16.4198C12.4404 16.7157 12.5116 17.0124 12.5494 17.3232C12.5859 17.624 12.6808 17.9066 12.7113 18.2054C12.7218 18.3084 12.6962 18.4274 12.7075 18.5378C12.7207 18.6671 12.7395 18.7606 12.8 18.8747C12.8604 18.9887 12.891 19.1208 12.9446 19.2389C12.9989 19.3586 13.0587 19.4671 13.1329 19.5824C13.2137 19.7079 13.29 19.8263 13.3918 19.9363C13.4578 20.0075 13.4776 20.0275 13.609 20.098C13.7404 20.1685 13.6799 20.2081 13.8028 20.2365C13.8687 20.2832 14.0636 20.27 14.1242 20.2305" stroke="#36A0FF" stroke-width="0.5" stroke-linecap="round" stroke-linejoin="round"/>
<path id="Vector_23" d="M17.8145 8.46631C17.6873 8.79775 17.8022 9.12638 17.7968 9.46102C17.7923 9.73416 17.7567 10.0064 17.686 10.2722C17.6478 10.4154 17.4957 10.6139 17.4106 10.7359C17.3178 10.869 17.24 11.0109 17.1542 11.1444C16.965 11.4384 16.8524 11.7707 16.705 12.0838C16.5885 12.3311 16.4324 12.5137 16.2549 12.7217C16.0934 12.9111 15.8995 13.1017 15.7796 13.3222C15.6051 13.643 15.4043 13.839 15.4587 14.2176C15.5005 14.5083 15.3592 14.8541 15.4303 15.1383" stroke="#36A0FF" stroke-width="0.5" stroke-linecap="round" stroke-linejoin="round"/>
<path id="Vector_24" d="M11.7637 14.7861C11.919 14.9861 12.4147 18.0784 12.512 18.317C12.8807 18.711 12.8078 18.7556 13.1173 18.8132C13.3291 18.8527 13.8323 18.8257 13.9988 18.7305C13.8878 18.7732 14.2983 18.7608 14.4322 18.7817C14.5806 18.8048 14.7423 18.7916 14.8921 18.8125C15.1578 18.8494 15.4147 18.8533 15.6867 18.8581C15.7573 18.8593 15.8279 18.8606 15.8985 18.8618C16.0098 18.8637 16.0971 18.817 16.2055 18.8136C16.3286 18.8098 16.455 18.7823 16.5762 18.7844C16.6747 18.7861 16.7732 18.7878 16.8717 18.7896C17.01 18.792 17.1117 18.8473 17.2513 18.8497C17.4972 18.854 17.743 18.8583 17.9889 18.8626C18.1694 18.8657 18.3291 18.8562 18.5061 18.836C18.6476 18.8198 18.7534 18.7541 18.8873 18.7257C19.0592 18.6892 19.1849 18.6472 19.3663 18.6379C19.595 18.6261 19.8222 18.627 20.0518 18.631C20.598 18.6406 21.1376 18.6321 21.6816 18.6416C22.0976 18.6489 22.511 18.6628 22.9149 18.7345C23.6765 18.8697 24.4637 18.8508 25.2411 18.8644C25.888 18.8757 26.5348 18.887 27.1817 18.8982" stroke="#36A0FF" stroke-width="0.5" stroke-linecap="round" stroke-linejoin="round"/>
<path id="Vector_25" d="M14.626 14.786C14.786 14.895 14.8579 14.9163 15.0441 14.9163C15.1302 14.9163 15.2313 14.9825 15.3105 15.0206C15.505 15.1143 15.7334 15.1244 15.9349 15.2031C16.0413 15.2446 16.19 15.3032 16.3014 15.3074C16.4447 15.3127 16.5628 15.372 16.701 15.3841C17.0108 15.4113 17.3331 15.3856 17.6433 15.3856C17.8634 15.3856 18.0834 15.3856 18.3035 15.3856C18.5674 15.3856 18.834 15.443 19.0968 15.4696C19.4682 15.5071 19.8153 15.6291 20.1881 15.6462C20.2553 15.6493 20.3052 15.6957 20.3742 15.6983C20.4206 15.7002 20.4847 15.6853 20.5289 15.7041C20.6009 15.7348 20.6811 15.7244 20.7594 15.7244C20.9532 15.7244 21.147 15.7244 21.3409 15.7244C21.553 15.7244 21.745 15.7288 21.9524 15.7707C22.2269 15.8263 22.4946 15.9122 22.7715 15.9735C22.9227 16.0069 23.0696 16.1154 23.2226 16.1154C23.3687 16.1154 23.5128 16.1885 23.6565 16.2139C23.8319 16.2449 23.9957 16.3196 24.1677 16.3631C24.3094 16.3989 24.4586 16.3612 24.6016 16.3964C24.8603 16.46 25.1405 16.4564 25.3964 16.5469C25.5301 16.5943 25.6694 16.6374 25.8074 16.6773C25.9215 16.7103 26.0377 16.7598 26.154 16.7815C26.335 16.8155 26.5229 16.7796 26.7053 16.8076C27.1526 16.8764 27.6275 16.8713 28.0815 16.8713" stroke="#36A0FF" stroke-width="0.5" stroke-linecap="round" stroke-linejoin="round"/>
<path id="Vector_26" d="M15.6631 15.2938C15.9875 15.3835 16.3335 15.5066 16.6797 15.5073C16.8127 15.5076 16.9457 15.5079 17.0787 15.5081C17.209 15.5084 17.3392 15.5087 17.4695 15.509C17.6037 15.5092 17.7322 15.5518 17.867 15.5521C17.9606 15.5523 18.042 15.5947 18.1427 15.5949C18.2693 15.5952 18.3909 15.6111 18.5168 15.6168C18.6595 15.6233 18.7898 15.6808 18.9392 15.6811C19.027 15.6813 19.0756 15.7237 19.1678 15.7239C19.4789 15.7245 19.7906 15.7205 20.1017 15.7258C20.367 15.7304 20.619 15.7903 20.8872 15.7909C21.3289 15.7918 21.775 15.8139 22.2131 15.8148C22.4612 15.8153 22.7108 15.9426 22.9569 15.9432C23.0331 15.9433 23.0949 15.9519 23.1689 15.9695C23.2912 15.9985 23.416 16.0108 23.5373 16.0454C23.7846 16.1158 24.0339 16.1729 24.2921 16.2008C24.4196 16.2146 24.5668 16.2614 24.6924 16.2897C24.865 16.3285 25.043 16.3348 25.2132 16.3753C25.501 16.4437 25.7913 16.4907 26.0872 16.5415C26.3738 16.5907 26.7179 16.5539 26.9834 16.6608C27.0848 16.7017 27.2036 16.7146 27.3088 16.746C27.4186 16.7789 27.5008 16.8193 27.619 16.8195C27.7777 16.8198 27.9185 16.8835 28.0803 16.8839" stroke="#36A0FF" stroke-width="0.5" stroke-linecap="round" stroke-linejoin="round"/>
<path id="Vector_27" d="M15.6222 6.53869C14.5968 6.71708 13.7349 7.14698 13.5531 7.82602C13.4288 8.29038 13.4099 8.84928 13.0462 9.22731C12.5768 9.71508 12.2927 10.1185 12.1307 10.7234C12.0042 11.1962 11.7257 11.7099 11.7547 12.2176C11.7692 12.4713 11.8813 12.7094 11.9385 12.9627C11.9857 13.1721 11.842 13.4127 11.7907 13.6043C11.7426 13.784 11.6623 13.9649 11.6498 14.1533C11.6303 14.4427 11.7779 14.7889 11.7232 15.0642C11.6368 15.4997 12.1009 16.0693 11.9825 16.5116C11.9164 16.7585 12.2417 17.0879 12.1908 17.3444C12.1427 17.5864 11.7593 18.7297 11.6946 18.9715" stroke="#36A0FF" stroke-width="0.5" stroke-linecap="round" stroke-linejoin="round"/>
</g>
</svg>
