<svg width="34" height="10" viewBox="0 0 34 10" fill="none" xmlns="http://www.w3.org/2000/svg">
<g id="Frame 1648">
<path id="Vector" d="M10.2003 6.97266L33.2742 6.97266L33.2742 9.00889L1 9.00889L1 6.97266L2.80032 6.97266" stroke="#36A0FF" stroke-width="0.5"/>
<path id="Vector_2" d="M3.92764 4.90062C4.0157 5.00696 4.1733 5.02177 4.27964 4.9337C4.38598 4.84563 4.40079 4.68804 4.31272 4.5817L3.92764 4.90062ZM3.93576 4.51847L3.68576 4.51847C3.68576 4.57669 3.70608 4.63309 3.74321 4.67793L3.93576 4.51847ZM3.93576 3.89494L3.7062 3.79593C3.69271 3.8272 3.68576 3.86089 3.68576 3.89494L3.93576 3.89494ZM4.16629 3.36049L4.03093 3.15031C3.98919 3.17719 3.95639 3.21589 3.93673 3.26148L4.16629 3.36049ZM4.58124 3.09327L4.49839 2.8574C4.47994 2.86387 4.46232 2.8725 4.44588 2.88308L4.58124 3.09327ZM5.0884 2.91512L5.16503 2.67715C5.11307 2.66042 5.05706 2.66115 5.00555 2.67925L5.0884 2.91512ZM5.36504 3.00419L5.28842 3.24216C5.35597 3.26391 5.42958 3.25593 5.4909 3.2202C5.55222 3.18447 5.59546 3.12437 5.60985 3.05488L5.36504 3.00419ZM5.41115 2.7815L5.41115 2.5315C5.29261 2.5315 5.19037 2.61474 5.16634 2.73082L5.41115 2.7815ZM5.8722 2.7815L5.90638 2.53385C5.89506 2.53229 5.88364 2.5315 5.8722 2.5315L5.8722 2.7815ZM6.19495 2.82604L6.39242 2.67272C6.35239 2.62117 6.29378 2.58731 6.22912 2.57839L6.19495 2.82604ZM6.08326 3.1378C6.08326 3.27588 6.19519 3.3878 6.33326 3.3878C6.47133 3.3878 6.58326 3.27588 6.58326 3.1378L6.08326 3.1378ZM7.07096 3.18234L7.01227 3.42536C7.02438 3.42828 7.03668 3.43029 7.04909 3.43138L7.07096 3.18234ZM7.57812 3.22688L7.55625 3.47592C7.56353 3.47656 7.57082 3.47688 7.57812 3.47688L7.57812 3.22688ZM8.36192 2.64789L8.58029 2.76961C8.58457 2.76193 8.58845 2.75402 8.5919 2.74592L8.36192 2.64789ZM8.68466 1.89075L8.49767 1.72482C8.47977 1.74499 8.46526 1.76792 8.45469 1.79272L8.68466 1.89075ZM8.9613 1.57899L9.14831 1.74493L9.15059 1.74229L8.9613 1.57899ZM9.19183 1.31176L9.12532 1.07077C9.0776 1.08394 9.03487 1.11098 9.00253 1.14846L9.19183 1.31176ZM9.83731 1.13361L9.79276 0.887615C9.78537 0.888954 9.77804 0.890625 9.7708 0.892623L9.83731 1.13361ZM10.575 1L10.575 0.75C10.5601 0.75 10.5452 0.75134 10.5304 0.754002L10.575 1ZM12.9264 1L13.025 0.770277C12.9939 0.756899 12.9603 0.75 12.9264 0.75L12.9264 1ZM13.3414 1.17815L13.5753 1.09007C13.5514 1.02641 13.5025 0.975263 13.44 0.948427L13.3414 1.17815ZM13.5258 1.66806L13.7749 1.64743C13.773 1.62436 13.7679 1.60166 13.7598 1.57999L13.5258 1.66806ZM13.618 2.7815L13.3688 2.80214C13.3697 2.81223 13.3711 2.82227 13.3732 2.83219L13.618 2.7815ZM13.7102 3.22688L13.4654 3.27756C13.4694 3.29682 13.4756 3.31553 13.484 3.33332L13.7102 3.22688ZM13.9407 3.71679L14.1795 3.64265C14.1761 3.6316 14.1719 3.62081 14.1669 3.61035L13.9407 3.71679ZM14.0791 4.16217L14.3238 4.11142C14.3222 4.10353 14.3202 4.09572 14.3178 4.08802L14.0791 4.16217ZM14.2083 4.7857L14.4298 4.90159C14.4566 4.8504 14.4648 4.79152 14.4531 4.73495L14.2083 4.7857ZM13.9 5.375L14.0679 5.56021C14.0897 5.54044 14.1079 5.51698 14.1215 5.4909L13.9 5.375ZM13.7102 5.54706L13.7515 5.79363C13.7987 5.78573 13.8427 5.76443 13.8781 5.73227L13.7102 5.54706ZM13.203 5.63191L12.9551 5.66399C12.9638 5.73134 12.9996 5.79225 13.0541 5.83271C13.1087 5.87316 13.1773 5.88969 13.2443 5.87848L13.203 5.63191ZM13.1108 4.91931L13.3588 4.88723C13.3566 4.87038 13.3527 4.85381 13.3472 4.83776L13.1108 4.91931ZM13.0186 4.65208L12.7766 4.71472C12.7782 4.7211 12.7801 4.7274 12.7823 4.73363L13.0186 4.65208ZM12.9264 4.29578L13.1684 4.23314C13.1391 4.1198 13.035 4.04199 12.918 4.04592C12.801 4.04986 12.7024 4.13448 12.6807 4.24954L12.9264 4.29578ZM12.8342 4.7857L12.9696 4.99588C13.0273 4.9587 13.0672 4.89942 13.0799 4.83194L12.8342 4.7857ZM12.6959 4.87477L12.4486 4.91134C12.461 4.99537 12.5152 5.06734 12.5926 5.10244C12.6699 5.13753 12.7598 5.13095 12.8312 5.08496L12.6959 4.87477ZM12.6498 4.56301L12.4007 4.54152C12.399 4.56088 12.3996 4.58036 12.4025 4.59958L12.6498 4.56301ZM12.6959 4.02856L12.4674 3.92717C12.4561 3.95248 12.4492 3.97948 12.4468 4.00707L12.6959 4.02856ZM12.8342 3.71679L12.6122 3.60187C12.6099 3.60632 12.6077 3.61083 12.6057 3.61541L12.8342 3.71679ZM13.0186 3.36049L13.2406 3.47541C13.267 3.42446 13.2751 3.36599 13.2634 3.30981L13.0186 3.36049ZM12.9264 2.91512L13.1712 2.86443C13.1672 2.84518 13.161 2.82646 13.1526 2.80867L12.9264 2.91512ZM12.6959 2.4252L12.4688 2.5297L12.4697 2.53165L12.6959 2.4252ZM12.5115 2.02436L12.2694 2.087C12.2731 2.10137 12.2781 2.11538 12.2843 2.12886L12.5115 2.02436ZM12.6613 1.60543C12.6267 1.47176 12.4903 1.39144 12.3566 1.42604C12.2229 1.46063 12.1426 1.59703 12.1772 1.7307L12.6613 1.60543ZM7.65565 4.68464C7.55064 4.77429 7.53819 4.93209 7.62784 5.0371C7.71749 5.1421 7.87529 5.15455 7.9803 5.0649L7.65565 4.68464ZM11.013 1L11.013 0.75L11.013 1ZM11.1161 1.80435C10.9946 1.86991 10.9492 2.02157 11.0148 2.14308C11.0804 2.26459 11.232 2.30994 11.3535 2.24438L11.1161 1.80435ZM9.92402 5.87218C9.78597 5.87508 9.67642 5.98933 9.67932 6.12737C9.68222 6.26541 9.79647 6.37497 9.93451 6.37207L9.92402 5.87218ZM14.171 6.03305L14.1763 6.28299L14.1936 6.28263L14.2107 6.27987L14.171 6.03305ZM14.7243 5.94397L14.7783 5.69988L14.7317 5.68956L14.6845 5.69715L14.7243 5.94397ZM16.9374 6.43388L16.8833 6.67815L16.8925 6.67983L16.9374 6.43388ZM19.381 6.87926L19.4324 6.63451L19.4258 6.63331L19.381 6.87926ZM20.4414 7.10195L20.39 7.34661L20.4154 7.35195L20.4414 7.35195L20.4414 7.10195ZM21.9629 7.10195L21.9629 7.35195L21.9715 7.35195L21.9801 7.35136L21.9629 7.10195ZM25.1903 6.87926L25.2075 7.12888L25.2179 7.12774L25.1903 6.87926ZM28.0028 6.5675L27.9842 6.31802L27.9752 6.31902L28.0028 6.5675ZM29.847 6.47842L29.9166 6.2383L29.8825 6.22842L29.847 6.22842L29.847 6.47842ZM30.3081 6.61204L30.2385 6.85216L30.247 6.85461L30.2556 6.85647L30.3081 6.61204ZM30.723 6.70111L30.6705 6.94554L30.724 6.95702L30.7774 6.94512L30.723 6.70111ZM31.3224 6.5675L31.3768 6.81151L31.4368 6.79813L31.4838 6.75843L31.3224 6.5675ZM31.6912 6.25573L31.8526 6.44667L31.899 6.40747L31.9222 6.35138L31.6912 6.25573ZM31.7835 6.03305L32.0144 6.12869L32.0899 5.94637L31.9301 5.83059L31.7835 6.03305ZM31.4146 5.76582L31.5613 5.56337L31.5107 5.52671L31.4488 5.51817L31.4146 5.76582ZM31.0919 5.72128L31.126 5.47363L31.109 5.47128L31.0919 5.47128L31.0919 5.72128ZM30.723 5.72128L30.5763 5.92373L30.642 5.97128L30.723 5.97128L30.723 5.72128ZM30.5386 5.58767L30.6853 5.38522L30.5537 5.28993L30.4132 5.37137L30.5386 5.58767ZM30.3081 5.72128L30.3081 5.97128L30.3753 5.97128L30.4334 5.93758L30.3081 5.72128ZM29.5704 5.72128L29.5532 5.97069L29.5618 5.97128L29.5704 5.97128L29.5704 5.72128ZM28.2794 5.63221L28.2966 5.3828L28.288 5.38221L28.2794 5.38221L28.2794 5.63221ZM27.4034 5.63221L27.4034 5.38221L27.3862 5.38221L27.3692 5.38456L27.4034 5.63221ZM26.7579 5.72128L26.7579 5.97128L26.7751 5.97128L26.7921 5.96894L26.7579 5.72128ZM26.0202 5.72128L25.977 5.96751L25.9984 5.97128L26.0202 5.97128L26.0202 5.72128ZM25.5131 5.63221L25.5563 5.38598L25.5481 5.38453L25.5397 5.38364L25.5131 5.63221ZM25.0981 5.58767L25.0316 5.82866L25.0512 5.83407L25.0714 5.83624L25.0981 5.58767ZM24.7754 5.4986L24.8419 5.25761L24.8304 5.25443L24.8186 5.25236L24.7754 5.4986ZM23.761 5.32045L23.8043 5.07421L23.7883 5.07141L23.7722 5.07069L23.761 5.32045ZM20.7641 5.18683L20.7441 5.43619L20.753 5.43658L20.7641 5.18683ZM19.1043 5.05322L19.0549 5.29829L19.0695 5.30122L19.0843 5.30241L19.1043 5.05322ZM17.6003 4.75L17.6497 4.50493L17.6252 4.5L17.6003 4.5L17.6003 4.75ZM16.3669 4.5C16.2289 4.5 16.1169 4.61193 16.1169 4.75C16.1169 4.88807 16.2289 5 16.3669 5L16.3669 4.5ZM10.4471 2.00766C10.3132 2.04157 10.2322 2.17756 10.2661 2.3114C10.3 2.44524 10.436 2.52625 10.5699 2.49234L10.4471 2.00766ZM11.7419 1.9375L11.7419 1.6875L11.7108 1.6875L11.6805 1.69516L11.7419 1.9375ZM12.3586 2.1875C12.4967 2.1875 12.6086 2.07557 12.6086 1.9375C12.6086 1.79943 12.4967 1.6875 12.3586 1.6875L12.3586 2.1875ZM4.28354 4.60507C4.20854 4.48915 4.05376 4.45598 3.93784 4.53098C3.82191 4.60598 3.78874 4.76076 3.86374 4.87668L4.28354 4.60507ZM4.30417 5.09718L4.09427 5.23298L4.1441 5.31L4.23192 5.33651L4.30417 5.09718ZM5.04186 5.31987L4.96962 5.5592L5.00495 5.56987L5.04186 5.56987L5.04186 5.31987ZM6.14841 5.31987L6.14841 5.56987L6.16257 5.56987L6.17664 5.56827L6.14841 5.31987ZM6.93221 5.23079L6.96044 5.47919L7.00813 5.47377L7.05042 5.45107L6.93221 5.23079ZM7.34716 5.0081L7.46538 5.22839L7.53359 5.19178L7.56918 5.12302L7.34716 5.0081ZM7.48548 4.74088L7.7075 4.8558L7.71586 4.83963L7.7218 4.82243L7.48548 4.74088ZM7.57769 4.47365L7.81401 4.5552L7.84494 4.46559L7.80867 4.37801L7.57769 4.47365ZM7.48548 4.25096L7.71646 4.15532L7.71064 4.14128L7.70317 4.12804L7.48548 4.25096ZM7.20884 3.76105L7.42653 3.63813L7.39615 3.58432L7.3442 3.55086L7.20884 3.76105ZM6.65557 3.40475L6.79093 3.19456L6.76338 3.17682L6.7322 3.16678L6.65557 3.40475ZM6.45556 3.07771C6.32413 3.03539 6.18329 3.10762 6.14097 3.23905C6.09865 3.37048 6.17089 3.51132 6.30231 3.55364L6.45556 3.07771ZM4.29681 5.09611C4.39429 4.99832 4.39404 4.84003 4.29626 4.74255C4.19847 4.64508 4.04018 4.64532 3.9427 4.74311L4.29681 5.09611ZM2.921 6.12212L2.74395 5.94562L2.53734 6.15288L2.77433 6.32457L2.921 6.12212ZM3.47427 6.52296L3.3276 6.72541L3.40163 6.77905L3.4928 6.77227L3.47427 6.52296ZM7.66991 6.2112L7.68844 6.46051L7.91991 6.44331L7.91991 6.2112L7.66991 6.2112ZM7.66991 5.45406L7.42893 5.38753L7.41991 5.42018L7.41991 5.45406L7.66991 5.45406ZM7.85433 4.78599L8.09532 4.85252L8.17128 4.57736L7.88851 4.53834L7.85433 4.78599ZM7.56577 4.4938C7.42899 4.47493 7.30281 4.57051 7.28394 4.70728C7.26507 4.84406 7.36064 4.97023 7.49742 4.98911L7.56577 4.4938ZM2.92287 6.58977C2.7873 6.56358 2.65618 6.65224 2.62999 6.78781C2.6038 6.92337 2.69246 7.0545 2.82802 7.08069L2.92287 6.58977ZM3.10598 6.87977L3.05855 7.12523L3.14001 7.14096L3.21471 7.10488L3.10598 6.87977ZM3.56703 6.65708L3.54413 6.40813L3.49906 6.41228L3.45831 6.43196L3.56703 6.65708ZM4.53526 6.568L4.55817 6.81705L4.56523 6.8162L4.53526 6.568ZM6.37949 6.34532L6.35025 6.09703L6.34952 6.09712L6.37949 6.34532ZM8.26984 6.12263L8.29909 6.371L8.30569 6.37004L8.26984 6.12263ZM9.19195 5.98902L9.24635 5.745L9.20154 5.73502L9.1561 5.7416L9.19195 5.98902ZM9.79133 6.12263L9.90955 5.90234L9.87927 5.88609L9.84573 5.87862L9.79133 6.12263ZM10.2063 6.34532L10.4546 6.31675L10.4397 6.18686L10.3245 6.12503L10.2063 6.34532ZM10.2524 6.74615L10.4809 6.84754L10.5085 6.78527L10.5008 6.71759L10.2524 6.74615ZM10.1141 7.05792L10.1301 7.3074L10.2812 7.29767L10.3426 7.1593L10.1141 7.05792ZM9.42248 7.10246L9.42248 7.35246L9.43052 7.35246L9.43855 7.35194L9.42248 7.10246ZM7.67046 7.10246L7.67046 6.8524L7.66521 6.85251L7.67046 7.10246ZM5.54959 7.14699L5.54959 7.39705L5.55484 7.39694L5.54959 7.14699ZM4.53526 7.14699L4.53526 6.89699L4.47343 6.89699L4.41872 6.92582L4.53526 7.14699ZM4.02809 7.41422L4.10472 7.65219L4.1254 7.64552L4.14463 7.63539L4.02809 7.41422ZM3.19819 7.68144L3.22816 7.92964L3.25198 7.92676L3.27481 7.91941L3.19819 7.68144ZM2.82934 7.72598L2.8053 7.97482L2.83234 7.97743L2.85931 7.97418L2.82934 7.72598ZM2.36828 7.68144L2.17081 7.83476L2.23693 7.91992L2.34424 7.93028L2.36828 7.68144ZM2.22996 7.50329L2.22996 7.25329L1.71936 7.25329L2.0325 7.65661L2.22996 7.50329ZM2.87545 7.75329C3.01352 7.75329 3.12545 7.64136 3.12545 7.50329C3.12545 7.36522 3.01352 7.25329 2.87545 7.25329L2.87545 7.75329ZM1.93359 7.45804C1.93359 7.59611 2.04552 7.70804 2.18359 7.70804C2.32166 7.70804 2.43359 7.59611 2.43359 7.45804L1.93359 7.45804ZM2.18359 7.23535L2.19866 6.98581L1.93359 6.9698L1.93359 7.23535L2.18359 7.23535ZM2.90622 7.52944C3.04404 7.53776 3.16251 7.43278 3.17083 7.29496C3.17915 7.15714 3.07417 7.03867 2.93635 7.03034L2.90622 7.52944ZM1.98516 7.0959C1.95716 7.2311 2.04407 7.3634 2.17928 7.39139C2.31448 7.41938 2.44678 7.33247 2.47477 7.19727L1.98516 7.0959ZM2.32218 6.70121L2.16541 6.50646L2.09555 6.5627L2.07737 6.65052L2.32218 6.70121ZM2.59881 6.47852L2.84881 6.47852L2.84881 5.95633L2.44205 6.28377L2.59881 6.47852ZM2.59881 6.65667L2.82979 6.75231L2.84881 6.70638L2.84881 6.65667L2.59881 6.65667ZM2.5066 6.87936L2.27562 6.78371L2.2566 6.82964L2.2566 6.87936L2.5066 6.87936ZM2.5066 7.05751L2.2566 7.05751L2.2566 7.26383L2.45918 7.30297L2.5066 7.05751ZM2.92024 7.39204C3.0558 7.41823 3.18693 7.32957 3.21312 7.194C3.23931 7.05844 3.15065 6.92731 3.01508 6.90112L2.92024 7.39204ZM2.53586 6.29731C2.41153 6.35736 2.35942 6.50683 2.41947 6.63116C2.47952 6.75549 2.62899 6.80759 2.75332 6.74754L2.53586 6.29731ZM2.82901 6.43335L3.05103 6.31843L2.93925 6.10247L2.72028 6.20823L2.82901 6.43335ZM2.92122 6.6115L3.14324 6.72642L3.20273 6.6115L3.14324 6.49658L2.92122 6.6115ZM2.82901 6.78965L2.60699 6.67473L2.48884 6.90299L2.72028 7.01477L2.82901 6.78965ZM2.81249 7.05931C2.93682 7.11936 3.08629 7.06725 3.14634 6.94292C3.20639 6.81859 3.15428 6.66912 3.02995 6.60907L2.81249 7.05931ZM13.5919 1.37519C13.4539 1.37519 13.3419 1.48712 13.3419 1.62519C13.3419 1.76326 13.4539 1.87519 13.5919 1.87519L13.5919 1.37519ZM15.1336 1.62519L15.3116 1.4496L15.2381 1.37519L15.1336 1.37519L15.1336 1.62519ZM20.7184 3.04916L20.6875 3.29724L20.7184 3.04916ZM22.1477 3.22731L22.1168 3.4757L22.1292 3.47663L22.1477 3.22731ZM23.9458 3.36093L24.0274 3.1246L23.9967 3.11402L23.9644 3.11161L23.9458 3.36093ZM25.2368 3.8063L25.3252 3.57235L25.3183 3.56997L25.2368 3.8063ZM26.2972 4.20714L26.406 3.98202L26.396 3.97721L26.3856 3.97329L26.2972 4.20714ZM27.2194 4.65252L27.1106 4.87763L27.1787 4.9105L27.2535 4.90017L27.2194 4.65252ZM28.5103 4.47437L28.5423 4.22642L28.5092 4.22216L28.4762 4.22671L28.5103 4.47437ZM29.8935 4.65252L30.0805 4.48659L30.0183 4.41653L29.9254 4.40457L29.8935 4.65252ZM30.4468 5.27604L30.6968 5.27604L30.6968 5.18112L30.6338 5.11012L30.4468 5.27604ZM30.1968 5.72142C30.1968 5.85949 30.3087 5.97142 30.4468 5.97142C30.5848 5.97142 30.6968 5.85949 30.6968 5.72142L30.1968 5.72142ZM15.4419 1.93769L15.2639 2.11334L15.2687 2.11795L15.4419 1.93769ZM15.4419 3.18769L15.2356 3.04656L15.4419 3.18769ZM14.7123 5.777C14.5891 5.83941 14.5398 5.98985 14.6023 6.11301C14.6647 6.23617 14.8151 6.28541 14.9383 6.223L14.7123 5.777ZM28.3782 5.43788C28.2403 5.44546 28.1347 5.56337 28.1423 5.70123C28.1499 5.83909 28.2678 5.94471 28.4057 5.93712L28.3782 5.43788ZM18.2169 1.9375L18.2969 1.70065L18.2169 1.9375ZM4.31272 4.5817L4.1283 4.35901L3.74321 4.67793L3.92764 4.90062L4.31272 4.5817ZM4.18576 4.51847L4.18576 3.89494L3.68576 3.89494L3.68576 4.51847L4.18576 4.51847ZM4.16531 3.99396L4.39584 3.45951L3.93673 3.26148L3.7062 3.79593L4.16531 3.99396ZM4.30164 3.57068L4.7166 3.30345L4.44588 2.88308L4.03093 3.15031L4.30164 3.57068ZM4.66409 3.32914L5.17126 3.15099L5.00555 2.67925L4.49839 2.8574L4.66409 3.32914ZM5.01178 3.15308L5.28842 3.24216L5.44166 2.76622L5.16503 2.67715L5.01178 3.15308ZM5.60985 3.05488L5.65595 2.83219L5.16634 2.73082L5.12023 2.95351L5.60985 3.05488ZM5.41115 3.0315L5.8722 3.0315L5.8722 2.5315L5.41115 2.5315L5.41115 3.0315ZM5.83803 3.02916L6.16077 3.07369L6.22912 2.57839L5.90638 2.53385L5.83803 3.02916ZM5.99748 2.97936L6.13579 3.15751L6.53073 2.85088L6.39242 2.67272L5.99748 2.97936ZM6.08326 3.00419L6.08326 3.1378L6.58326 3.1378L6.58326 3.00419L6.08326 3.00419ZM6.27458 3.24721L7.01227 3.42536L7.12964 2.93933L6.39195 2.76118L6.27458 3.24721ZM7.04909 3.43138L7.55625 3.47592L7.59999 2.97784L7.09283 2.9333L7.04909 3.43138ZM7.57812 3.47688L8.03918 3.47688L8.03918 2.97688L7.57812 2.97688L7.57812 3.47688ZM8.25755 3.3486L8.58029 2.76961L8.14356 2.52617L7.82082 3.10516L8.25755 3.3486ZM8.5919 2.74592L8.91464 1.98878L8.45469 1.79272L8.13194 2.54986L8.5919 2.74592ZM8.87166 2.05668L9.1483 1.74492L8.7743 1.41306L8.49767 1.72482L8.87166 2.05668ZM9.15059 1.74229L9.38112 1.47506L9.00253 1.14846L8.772 1.41569L9.15059 1.74229ZM9.25834 1.55275L9.90382 1.3746L9.7708 0.892623L9.12532 1.07077L9.25834 1.55275ZM9.88187 1.37961L10.6196 1.246L10.5304 0.754002L9.79276 0.887615L9.88187 1.37961ZM12.8278 1.22972L13.2427 1.40787L13.44 0.948427L13.025 0.770277L12.8278 1.22972ZM13.1074 1.26623L13.2918 1.75614L13.7598 1.57999L13.5753 1.09007L13.1074 1.26623ZM13.2766 1.6887L13.3688 2.80214L13.8671 2.76087L13.7749 1.64743L13.2766 1.6887ZM13.3732 2.83219L13.4654 3.27756L13.955 3.17619L13.8628 2.73082L13.3732 2.83219ZM13.484 3.33332L13.7145 3.82324L14.1669 3.61035L13.9364 3.12044L13.484 3.33332ZM13.702 3.79094L13.8403 4.23632L14.3178 4.08802L14.1795 3.64265L13.702 3.79094ZM13.8343 4.21292L13.9635 4.83644L14.4531 4.73495L14.3238 4.11142L13.8343 4.21292ZM13.9868 4.6698L13.6785 5.2591L14.1215 5.4909L14.4298 4.90159L13.9868 4.6698ZM13.7321 5.18979L13.5423 5.36185L13.8781 5.73227L14.0679 5.56021L13.7321 5.18979ZM13.451 5.59983L13.3588 4.88723L12.8629 4.95139L12.9551 5.66399L13.451 5.59983ZM13.3472 4.83776L13.2549 4.57053L12.7823 4.73363L12.8745 5.00086L13.3472 4.83776ZM13.2606 4.58945L13.1684 4.23314L12.6844 4.35842L12.7766 4.71472L13.2606 4.58945ZM12.6807 4.24954L12.5885 4.73945L13.0799 4.83194L13.1721 4.34202L12.6807 4.24954ZM12.6988 4.57551L12.5605 4.66458L12.8312 5.08496L12.9696 4.99588L12.6988 4.57551ZM12.9432 4.8382L12.8971 4.52643L12.4025 4.59958L12.4486 4.91134L12.9432 4.8382ZM12.8988 4.58449L12.945 4.05004L12.4468 4.00707L12.4007 4.54152L12.8988 4.58449ZM12.9244 4.12994L13.0627 3.81818L12.6057 3.61541L12.4674 3.92717L12.9244 4.12994ZM13.0562 3.83171L13.2406 3.47541L12.7966 3.24557L12.6122 3.60187L13.0562 3.83171ZM13.2634 3.30981L13.1712 2.86443L12.6816 2.9658L12.7738 3.41118L13.2634 3.30981ZM13.1526 2.80867L12.9221 2.31876L12.4697 2.53165L12.7002 3.02156L13.1526 2.80867ZM12.923 2.32071L12.7386 1.91987L12.2843 2.12886L12.4688 2.5297L12.923 2.32071ZM12.7535 1.96173L12.6613 1.60543L12.1772 1.7307L12.2694 2.087L12.7535 1.96173ZM13.669 5.30049L13.1618 5.38534L13.2443 5.87848L13.7515 5.79363L13.669 5.30049ZM7.93163 3.45256C8.06902 3.51804 8.19474 3.64516 8.2126 3.80615C8.22992 3.96232 8.15727 4.25638 7.65565 4.68464L7.9803 5.0649C8.53307 4.59298 8.75382 4.1502 8.70955 3.75103C8.66581 3.35668 8.37493 3.10994 8.14673 3.00119L7.93163 3.45256ZM10.575 1.25L11.013 1.25L11.013 0.75L10.575 0.75L10.575 1.25ZM10.8179 1.15632C10.9153 1.27781 11.0359 1.46383 11.0936 1.62746C11.1228 1.71039 11.1274 1.76417 11.1236 1.79141C11.1218 1.80453 11.1225 1.80091 11.1161 1.80435L11.3535 2.24438C11.5144 2.15756 11.5977 2.01405 11.6189 1.85978C11.6383 1.71964 11.6065 1.57853 11.5651 1.4612C11.4816 1.22434 11.3241 0.98843 11.2081 0.843677L10.8179 1.15632ZM9.93451 6.37207L14.1763 6.28299L14.1658 5.7831L9.92402 5.87218L9.93451 6.37207ZM14.2107 6.27987L14.764 6.19079L14.6845 5.69715L14.1313 5.78622L14.2107 6.27987ZM14.6702 6.18806L16.8833 6.67798L16.9914 6.18979L14.7783 5.69988L14.6702 6.18806ZM16.8925 6.67983L19.3361 7.12521L19.4258 6.63331L16.9822 6.18794L16.8925 6.67983ZM19.3296 7.12392L20.39 7.34661L20.4928 6.85729L19.4324 6.6346L19.3296 7.12392ZM20.4414 7.35195L21.9629 7.35195L21.9629 6.85195L20.4414 6.85195L20.4414 7.35195ZM21.9801 7.35136L25.2075 7.12867L25.1731 6.62985L21.9457 6.85254L21.9801 7.35136ZM25.2179 7.12774L28.0303 6.81598L27.9752 6.31902L25.1628 6.63078L25.2179 7.12774ZM28.0213 6.81681L29.2201 6.72774L29.183 6.22911L27.9842 6.31818L28.0213 6.81681ZM29.2015 6.72842L29.847 6.72842L29.847 6.22842L29.2015 6.22842L29.2015 6.72842ZM29.7774 6.71854L30.2385 6.85216L30.3777 6.37191L29.9166 6.2383L29.7774 6.71854ZM30.2556 6.85647L30.6705 6.94554L30.7755 6.45668L30.3605 6.3676L30.2556 6.85647ZM30.7774 6.94512L31.3768 6.81151L31.268 6.32349L30.6686 6.4571L30.7774 6.94512ZM31.4838 6.75843L31.8526 6.44667L31.5299 6.0648L31.161 6.37656L31.4838 6.75843ZM31.9222 6.35138L32.0144 6.12869L31.5525 5.9374L31.4603 6.16009L31.9222 6.35138ZM31.9301 5.83059L31.5613 5.56337L31.2679 5.96827L31.6368 6.2355L31.9301 5.83059ZM31.4488 5.51817L31.126 5.47363L31.0577 5.96894L31.3804 6.01347L31.4488 5.51817ZM31.0919 5.47128L30.723 5.47128L30.723 5.97128L31.0919 5.97128L31.0919 5.47128ZM30.8697 5.51883L30.6853 5.38522L30.3919 5.79012L30.5763 5.92373L30.8697 5.51883ZM30.4132 5.37137L30.1827 5.50499L30.4334 5.93758L30.664 5.80397L30.4132 5.37137ZM30.3081 5.47128L29.5704 5.47128L29.5704 5.97128L30.3081 5.97128L30.3081 5.47128ZM27.3692 5.38456L26.7237 5.47363L26.7921 5.96894L27.4376 5.87986L27.3692 5.38456ZM26.7579 5.47128L26.0202 5.47128L26.0202 5.97128L26.7579 5.97128L26.7579 5.47128ZM26.0635 5.47505L25.5563 5.38598L25.4698 5.87844L25.977 5.96751L26.0635 5.47505ZM25.5397 5.38364L25.1248 5.3391L25.0714 5.83624L25.4864 5.88078L25.5397 5.38364ZM25.1646 5.34668L24.8419 5.25761L24.7088 5.73958L25.0316 5.82866L25.1646 5.34668ZM24.8186 5.25236L23.8043 5.07421L23.7178 5.56668L24.7321 5.74483L24.8186 5.25236ZM23.7722 5.07069L20.7753 4.93708L20.753 5.43658L23.7499 5.5702L23.7722 5.07069ZM20.7842 4.93764L19.1244 4.80403L19.0843 5.30241L20.7441 5.43603L20.7842 4.93764ZM19.1537 4.80815L17.6497 4.50493L17.5509 4.99507L19.0549 5.29829L19.1537 4.80815ZM29.5876 5.47188L29.4523 5.46254L29.4178 5.96135L29.5532 5.97069L29.5876 5.47188ZM29.4523 5.46254L28.2966 5.3828L28.2622 5.88162L29.4178 5.96135L29.4523 5.46254ZM29.2869 6.71339C29.4167 6.66624 29.5759 6.55424 29.6705 6.36457C29.7696 6.1658 29.7823 5.91337 29.6679 5.62084L29.2022 5.80305C29.2746 5.98792 29.2484 6.09045 29.223 6.14142C29.1931 6.20149 29.1421 6.23403 29.1161 6.24346L29.2869 6.71339ZM10.5699 2.49234L11.8033 2.17984L11.6805 1.69516L10.4471 2.00766L10.5699 2.49234ZM11.7419 2.1875L12.3586 2.1875L12.3586 1.6875L11.7419 1.6875L11.7419 2.1875ZM3.86374 4.87668L4.09427 5.23298L4.51407 4.96137L4.28354 4.60507L3.86374 4.87668ZM4.23192 5.33651L4.96962 5.5592L5.11411 5.08053L4.37642 4.85785L4.23192 5.33651ZM5.04186 5.56987L6.14841 5.56987L6.14841 5.06987L5.04186 5.06987L5.04186 5.56987ZM6.17664 5.56827L6.96044 5.47919L6.90398 4.98239L6.12018 5.07147L6.17664 5.56827ZM7.05042 5.45107L7.46538 5.22839L7.22894 4.78782L6.81399 5.01051L7.05042 5.45107ZM7.56918 5.12302L7.7075 4.8558L7.26345 4.62596L7.12514 4.89318L7.56918 5.12302ZM7.7218 4.82243L7.81401 4.5552L7.34136 4.3921L7.24915 4.65933L7.7218 4.82243ZM7.80867 4.37801L7.71646 4.15532L7.2545 4.34661L7.34671 4.5693L7.80867 4.37801ZM7.70317 4.12804L7.42653 3.63813L6.99115 3.88397L7.26778 4.37389L7.70317 4.12804ZM7.3442 3.55086L6.79093 3.19456L6.52021 3.61494L7.07348 3.97124L7.3442 3.55086ZM6.7322 3.16678L6.45556 3.07771L6.30231 3.55364L6.57895 3.64272L6.7322 3.16678ZM3.9427 4.74311L2.74395 5.94562L3.09806 6.29862L4.29681 5.09611L3.9427 4.74311ZM2.77433 6.32457L3.3276 6.72541L3.62095 6.32051L3.06768 5.91967L2.77433 6.32457ZM3.4928 6.77227L7.68844 6.46051L7.65139 5.96188L3.45575 6.27365L3.4928 6.77227ZM7.91991 6.2112L7.91991 5.45406L7.41991 5.45406L7.41991 6.2112L7.91991 6.2112ZM7.9109 5.52058L8.09532 4.85252L7.61335 4.71947L7.42893 5.38753L7.9109 5.52058ZM7.88851 4.53834L7.56577 4.4938L7.49742 4.98911L7.82016 5.03365L7.88851 4.53834ZM2.82802 7.08069L3.05855 7.12523L3.1534 6.63431L2.92287 6.58977L2.82802 7.08069ZM3.21471 7.10488L3.67576 6.8822L3.45831 6.43196L2.99725 6.65465L3.21471 7.10488ZM3.58994 6.90603L4.55816 6.81695L4.51236 6.31906L3.54413 6.40813L3.58994 6.90603ZM4.56523 6.8162L6.40946 6.59351L6.34952 6.09712L4.50529 6.31981L4.56523 6.8162ZM6.40874 6.5936L8.29908 6.37091L8.24059 5.87434L6.35025 6.09703L6.40874 6.5936ZM8.30569 6.37004L9.2278 6.23643L9.1561 5.7416L8.23399 5.87521L8.30569 6.37004ZM9.13756 6.23303L9.73694 6.36664L9.84573 5.87862L9.24635 5.745L9.13756 6.23303ZM9.67311 6.34291L10.0881 6.5656L10.3245 6.12503L9.90955 5.90234L9.67311 6.34291ZM9.95792 6.37388L10.004 6.77472L10.5008 6.71759L10.4546 6.31675L9.95792 6.37388ZM10.0239 6.64477L9.88555 6.95653L10.3426 7.1593L10.4809 6.84754L10.0239 6.64477ZM10.098 6.80843L9.40642 6.85297L9.43855 7.35194L10.1301 7.3074L10.098 6.80843ZM9.42248 6.85246L7.67046 6.85246L7.67046 7.35246L9.42248 7.35246L9.42248 6.85246ZM7.66521 6.85251L5.54434 6.89705L5.55484 7.39694L7.67571 7.3524L7.66521 6.85251ZM5.54959 6.89699L4.53526 6.89699L4.53526 7.39699L5.54959 7.39699L5.54959 6.89699ZM4.41872 6.92582L3.91156 7.19304L4.14463 7.63539L4.6518 7.36817L4.41872 6.92582ZM3.95147 7.17625L3.12156 7.44348L3.27481 7.91941L4.10472 7.65219L3.95147 7.17625ZM3.16822 7.43325L2.79937 7.47778L2.85931 7.97418L3.22816 7.92964L3.16822 7.43325ZM2.85338 7.47714L2.39232 7.4326L2.34424 7.93028L2.8053 7.97482L2.85338 7.47714ZM2.56575 7.52813L2.42743 7.34998L2.0325 7.65661L2.17081 7.83476L2.56575 7.52813ZM2.22996 7.75329L2.87545 7.75329L2.87545 7.25329L2.22996 7.25329L2.22996 7.75329ZM2.43359 7.45804L2.43359 7.23535L1.93359 7.23535L1.93359 7.45804L2.43359 7.45804ZM2.16853 7.4849L2.90622 7.52944L2.93635 7.03034L2.19866 6.98581L2.16853 7.4849ZM2.47477 7.19727L2.56698 6.75189L2.07737 6.65052L1.98516 7.0959L2.47477 7.19727ZM2.47894 6.89595L2.75558 6.67326L2.44205 6.28377L2.16541 6.50646L2.47894 6.89595ZM2.34881 6.47852L2.34881 6.65667L2.84881 6.65667L2.84881 6.47852L2.34881 6.47852ZM2.36783 6.56102L2.27562 6.78371L2.73758 6.975L2.82979 6.75231L2.36783 6.56102ZM2.2566 6.87936L2.2566 7.05751L2.7566 7.05751L2.7566 6.87936L2.2566 6.87936ZM2.45918 7.30297L2.92024 7.39204L3.01508 6.90112L2.55402 6.81204L2.45918 7.30297ZM2.75332 6.74754L2.93774 6.65847L2.72028 6.20823L2.53586 6.29731L2.75332 6.74754ZM2.60699 6.54827L2.6992 6.72642L3.14324 6.49658L3.05103 6.31843L2.60699 6.54827ZM2.6992 6.49658L2.60699 6.67473L3.05103 6.90457L3.14324 6.72642L2.6992 6.49658ZM2.72028 7.01477L2.81249 7.05931L3.02995 6.60907L2.93774 6.56453L2.72028 7.01477ZM20.6875 3.29724L22.1168 3.47539L22.1786 2.97923L20.7494 2.80108L20.6875 3.29724ZM22.1292 3.47663L23.9273 3.61024L23.9644 3.11161L22.1662 2.978L22.1292 3.47663ZM23.8643 3.59726L25.1553 4.04263L25.3183 3.56997L24.0274 3.1246L23.8643 3.59726ZM25.1484 4.04015L26.2088 4.44099L26.3856 3.97329L25.3252 3.57245L25.1484 4.04015ZM26.1885 4.43226L27.1106 4.87763L27.3281 4.4274L26.406 3.98202L26.1885 4.43226ZM28.4784 4.72232L29.8616 4.90047L29.9254 4.40457L28.5423 4.22642L28.4784 4.72232ZM29.7065 4.81844L30.2598 5.44197L30.6338 5.11012L30.0805 4.48659L29.7065 4.81844ZM30.1968 5.27604L30.1968 5.72142L30.6968 5.72142L30.6968 5.27604L30.1968 5.27604ZM14.9556 1.80077L15.264 2.11327L15.6199 1.7621L15.3116 1.4496L14.9556 1.80077ZM15.2687 2.11795C15.2583 2.10792 15.2793 2.12753 15.3034 2.21431C15.3244 2.2896 15.3401 2.38807 15.3448 2.49607C15.3547 2.72309 15.3139 2.93198 15.2356 3.04656L15.6483 3.32882C15.8166 3.08272 15.856 2.74365 15.8443 2.47435C15.8382 2.33419 15.8177 2.19741 15.7851 2.08024C15.7557 1.97455 15.7058 1.84449 15.6151 1.75743L15.2687 2.11795ZM15.2356 3.04656C15.1111 3.22853 15.095 3.45139 15.1056 3.64082C15.1164 3.83499 15.1593 4.04431 15.1971 4.22753C15.237 4.42076 15.2708 4.58316 15.2791 4.71662C15.2882 4.86208 15.2601 4.89087 15.264 4.88691L15.6199 5.23809C15.778 5.07788 15.7884 4.85055 15.7782 4.68563C15.7672 4.50871 15.7239 4.30647 15.6868 4.12641C15.6475 3.93635 15.6132 3.76373 15.6048 3.61294C15.5961 3.4574 15.6186 3.37226 15.6483 3.32882L15.2356 3.04656ZM15.264 4.88691C15.0469 5.10691 15.0318 5.3689 15.0065 5.47138C14.9925 5.52808 14.9758 5.56878 14.9434 5.60925C14.909 5.6521 14.8445 5.71 14.7123 5.777L14.9383 6.223C15.1144 6.13375 15.2426 6.0354 15.3335 5.922C15.4263 5.80622 15.4674 5.69067 15.4919 5.59112C15.5437 5.38111 15.5286 5.33059 15.6199 5.23809L15.264 4.88691ZM27.2535 4.90017L28.2101 4.76817L28.1418 4.27286L27.1852 4.40486L27.2535 4.90017ZM28.2101 4.76817L28.5445 4.72202L28.4762 4.22671L28.1418 4.27286L28.2101 4.76817ZM27.9745 4.66855C28.1076 4.8497 28.2672 5.11018 28.336 5.31504C28.3526 5.36436 28.3617 5.4043 28.3652 5.43466C28.3689 5.46609 28.3653 5.47699 28.366 5.47442C28.3682 5.46742 28.3765 5.45121 28.3932 5.43961C28.4067 5.43028 28.4081 5.43623 28.3782 5.43788L28.4057 5.93712C28.4991 5.93199 28.5949 5.90819 28.6781 5.8505C28.7646 5.79055 28.8179 5.7074 28.8446 5.61923C28.8927 5.46016 28.8541 5.28729 28.81 5.15589C28.7169 4.87846 28.5218 4.56901 28.3774 4.37247L27.9745 4.66855ZM15.6224 2.11066C15.6487 2.08329 15.7195 2.03437 15.857 1.98885C15.9896 1.94493 16.1675 1.90977 16.3879 1.8967C16.828 1.87059 17.4238 1.93343 18.1369 2.17435L18.2969 1.70065C17.5301 1.44157 16.8699 1.36723 16.3583 1.39758C16.1028 1.41273 15.8809 1.45422 15.6998 1.5142C15.5235 1.57257 15.3667 1.65481 15.2614 1.76471L15.6224 2.11066ZM18.1369 2.17435C19.0408 2.47971 19.4442 2.72293 19.7212 2.90019C20.013 3.08699 20.2184 3.23877 20.6875 3.29724L20.7494 2.80108C20.4039 2.75802 20.2835 2.66647 19.9907 2.47907C19.6831 2.28214 19.2431 2.02029 18.2969 1.70065L18.1369 2.17435ZM11.013 1.25L12.9264 1.25L12.9264 0.75L11.013 0.75L11.013 1.25ZM28.2794 5.38221L27.4034 5.38221L27.4034 5.88221L28.2794 5.88221L28.2794 5.38221ZM17.6003 4.5L16.3669 4.5L16.3669 5L17.6003 5L17.6003 4.5ZM13.5919 1.87519L15.1336 1.87519L15.1336 1.37519L13.5919 1.37519L13.5919 1.87519Z" fill="#36A0FF"/>
</g>
</svg>
