<svg width="36" height="11" viewBox="0 0 36 11" fill="none" xmlns="http://www.w3.org/2000/svg">
<g id="Group 1497">
<path id="Vector" d="M1.00032 8.50732H35V10.6238H1.00032V8.50732Z" stroke="#36A0FF" stroke-width="0.5"/>
<path id="Vector_2" d="M6.96717 7.05048C7.10524 7.05048 7.21717 6.93856 7.21717 6.80048C7.21717 6.66241 7.10524 6.55048 6.96717 6.55048V7.05048ZM6.15513 6.80048L5.97084 6.96942C6.01819 7.02107 6.08505 7.05048 6.15513 7.05048V6.80048ZM5.70138 5.93552C5.60808 5.83374 5.44994 5.82686 5.34816 5.92016C5.24638 6.01346 5.23951 6.1716 5.3328 6.27338L5.70138 5.93552ZM6.56117 7.32247L6.54853 7.57215C6.66861 7.57823 6.77601 7.49798 6.8042 7.3811C6.8324 7.26423 6.7734 7.14383 6.66376 7.09449L6.56117 7.32247ZM33.8227 6.5683L33.6793 6.36349C33.5823 6.43138 33.5463 6.55797 33.5929 6.66678L33.8227 6.5683ZM34.4027 6.16228L34.5461 6.36709C34.6325 6.30657 34.6717 6.1983 34.6439 6.0965L34.4027 6.16228ZM34.2287 5.52424L34.47 5.45844L34.4682 5.45241L34.2287 5.52424ZM34.0547 4.94421L34.2941 4.87238C34.2663 4.77966 34.1875 4.71134 34.0918 4.69698L34.0547 4.94421ZM32.8946 4.7702L32.9317 4.52297C32.9194 4.52113 32.907 4.5202 32.8946 4.5202V4.7702ZM32.5466 4.7702L32.486 5.01274C32.5058 5.0177 32.5262 5.0202 32.5466 5.0202V4.7702ZM31.6186 4.53819L31.6792 4.29565C31.6669 4.29259 31.6545 4.29046 31.6419 4.28928L31.6186 4.53819ZM29.7625 4.36418L29.7858 4.11527C29.778 4.11455 29.7702 4.11418 29.7625 4.11418V4.36418ZM28.3704 4.36418L28.2775 4.5963C28.3071 4.60811 28.3386 4.61418 28.3704 4.61418V4.36418ZM27.7903 4.13217L27.8832 3.90005C27.8673 3.89367 27.8507 3.88896 27.8338 3.88597L27.7903 4.13217ZM25.8182 3.78415L25.8617 3.53795C25.8473 3.53542 25.8328 3.53415 25.8182 3.53415V3.78415ZM23.4981 3.78415L23.2981 3.93415C23.3453 3.9971 23.4194 4.03415 23.4981 4.03415V3.78415ZM23.1501 3.32012L23.3501 3.17013C23.3151 3.12342 23.2648 3.09045 23.208 3.07692L23.1501 3.32012ZM21.932 3.03011L21.9899 2.78691C21.971 2.78239 21.9515 2.78011 21.932 2.78011V3.03011ZM21.12 3.03011L21.0082 3.25372C21.0429 3.27107 21.0812 3.28011 21.12 3.28011V3.03011ZM20.1919 2.56608L20.3038 2.34232L20.2954 2.33849L20.1919 2.56608ZM19.5539 2.27607L19.6574 2.04848C19.6406 2.04084 19.623 2.03509 19.6049 2.03132L19.5539 2.27607ZM18.1618 1.98605L18.2128 1.74131C18.196 1.73781 18.179 1.73605 18.1618 1.73605V1.98605ZM16.5377 1.98605V1.73605C16.5071 1.73605 16.4766 1.7417 16.448 1.75272L16.5377 1.98605ZM15.7837 2.27607L15.694 2.04273C15.6613 2.05529 15.6317 2.07456 15.6069 2.09929L15.7837 2.27607ZM15.0297 3.03011L14.8529 3.20689C14.8998 3.25377 14.9634 3.28011 15.0297 3.28011C15.096 3.28011 15.1596 3.25377 15.2064 3.20689L15.0297 3.03011ZM14.7396 2.74009L14.9164 2.56332C14.8857 2.53255 14.8474 2.51035 14.8054 2.4989L14.7396 2.74009ZM14.1016 2.56608L14.0119 2.79942C14.0197 2.80244 14.0277 2.80506 14.0358 2.80728L14.1016 2.56608ZM13.3476 2.27607L13.178 2.45977C13.2012 2.48121 13.2283 2.49806 13.2578 2.50941L13.3476 2.27607ZM12.5935 1.58003L12.7631 1.39633C12.7422 1.37704 12.7182 1.36145 12.692 1.35025L12.5935 1.58003ZM11.7815 1.23201L11.88 1.00223C11.8579 0.992763 11.8346 0.986532 11.8107 0.983725L11.7815 1.23201ZM9.80938 1L9.83859 0.751712C9.80066 0.747249 9.7622 0.751539 9.72618 0.764252L9.80938 1ZM8.82333 1.34802L8.74012 1.11227C8.70113 1.12603 8.66616 1.14925 8.63835 1.17985L8.82333 1.34802ZM8.2433 1.98605L8.05831 1.81788C8.04787 1.82937 8.03852 1.84181 8.03038 1.85503L8.2433 1.98605ZM7.77927 2.74009L7.56635 2.60906L7.5649 2.61147L7.77927 2.74009ZM7.25724 3.61014L7.04287 3.48152C7.01956 3.52037 7.00724 3.56483 7.00724 3.61014H7.25724ZM7.25724 4.24817L7.50495 4.28195C7.50648 4.27076 7.50724 4.25947 7.50724 4.24817L7.25724 4.24817ZM7.08323 5.52424L6.83553 5.49047C6.834 5.50166 6.83323 5.51295 6.83323 5.52424H7.08323ZM7.08323 6.85832H6.83323C6.83323 6.88265 6.83679 6.90685 6.84378 6.93015L7.08323 6.85832ZM7.25724 7.43835L7.01779 7.51018C7.03684 7.57369 7.08034 7.62703 7.13872 7.65846L7.25724 7.43835ZM8.01129 7.84437L7.89276 8.06449C7.92435 8.08149 7.95922 8.0915 7.99502 8.09384L8.01129 7.84437ZM10.6794 8.01838L10.6632 8.26785C10.6686 8.2682 10.674 8.26838 10.6794 8.26838V8.01838ZM12.5935 8.01838V8.26838C12.6125 8.26838 12.6313 8.26623 12.6497 8.26198L12.5935 8.01838ZM13.3476 7.84437V7.59437C13.3287 7.59437 13.3098 7.59652 13.2914 7.60077L13.3476 7.84437ZM14.7396 7.84437V8.09437C14.75 8.09437 14.7604 8.09372 14.7707 8.09244L14.7396 7.84437ZM15.6677 7.72836L15.7795 7.50476C15.7354 7.48268 15.6857 7.47417 15.6367 7.48029L15.6677 7.72836ZM16.2477 8.01838L16.1359 8.24198C16.1706 8.25934 16.2089 8.26838 16.2477 8.26838V8.01838ZM20.424 8.01838V8.26878L20.4381 8.26798L20.424 8.01838ZM23.4981 7.84437V7.59397L23.484 7.59477L23.4981 7.84437ZM27.7903 7.84437V8.09468L27.8028 8.09406L27.7903 7.84437ZM30.1105 7.72836V7.47805L30.098 7.47867L30.1105 7.72836ZM31.8506 7.72836L31.8743 7.47949C31.8664 7.47874 31.8585 7.47836 31.8506 7.47836V7.72836ZM33.0686 7.84437L33.1248 7.60077C33.1141 7.5983 33.1033 7.59654 33.0923 7.59549L33.0686 7.84437ZM33.8227 8.01838L33.7665 8.26198C33.8407 8.27911 33.9187 8.26145 33.9783 8.21402C34.0379 8.16659 34.0727 8.09456 34.0727 8.01838H33.8227ZM33.8227 7.43835L33.5886 7.35057C33.5781 7.37863 33.5727 7.40837 33.5727 7.43835H33.8227ZM33.9967 6.97432L34.2308 7.0621C34.2534 7.00178 34.2518 6.93506 34.2265 6.87584L33.9967 6.97432ZM32.3077 4.71048L32.3683 4.46794L32.3077 4.71048ZM32.3077 6.35459L32.4136 6.58107L32.3077 6.35459ZM33.7967 7.24026C33.8795 7.35072 34.0363 7.3731 34.1467 7.29026C34.2572 7.20742 34.2795 7.05072 34.1967 6.94026L33.7967 7.24026ZM33.6487 6.62624L33.8487 6.47624C33.8015 6.41329 33.7274 6.37624 33.6487 6.37624V6.62624ZM32.8366 6.62624L32.7107 6.84218C32.7489 6.86448 32.7924 6.87624 32.8366 6.87624V6.62624ZM32.1406 6.22022L32.2666 6.00427C32.2102 5.9714 32.1433 5.96186 32.08 5.97768L32.1406 6.22022ZM31.4446 6.39422V6.64422C31.465 6.64422 31.4854 6.64172 31.5052 6.63676L31.4446 6.39422ZM28.7764 6.39422L28.7304 6.63994C28.7455 6.64279 28.761 6.64422 28.7764 6.64422V6.39422ZM27.8484 6.22022L27.8944 5.9745C27.8793 5.97165 27.8638 5.97022 27.8484 5.97022V6.22022ZM27.6744 6.22022L27.658 6.46968C27.6634 6.47004 27.6689 6.47022 27.6744 6.47022V6.22022ZM20.4356 5.54774L20.3749 5.79028C20.3814 5.79189 20.3879 5.79325 20.3945 5.79434L20.4356 5.54774ZM18.0828 5.31057C17.9518 5.35423 17.881 5.49581 17.9247 5.6268C17.9683 5.75778 18.1099 5.82857 18.2409 5.78491L18.0828 5.31057ZM15.3957 2.97223C15.3957 2.83415 15.2838 2.72223 15.1457 2.72223C15.0076 2.72223 14.8957 2.83415 14.8957 2.97223H15.3957ZM15.1457 4.53831H14.8957C14.8957 4.54974 14.8965 4.56115 14.8981 4.57247L15.1457 4.53831ZM15.3777 6.2204H15.6277C15.6277 6.20897 15.6269 6.19756 15.6254 6.18624L15.3777 6.2204ZM15.1277 7.72848C15.1277 7.86655 15.2397 7.97848 15.3777 7.97848C15.5158 7.97848 15.6277 7.86655 15.6277 7.72848H15.1277ZM14.8556 3.10593C14.9937 3.10593 15.1056 2.994 15.1056 2.85593C15.1056 2.71786 14.9937 2.60593 14.8556 2.60593V3.10593ZM12.9415 2.85593L12.8583 3.09168C12.885 3.10111 12.9132 3.10593 12.9415 3.10593V2.85593ZM11.9555 2.50791L11.8657 2.74134L11.8722 2.74366L11.9555 2.50791ZM11.2014 2.21789L11.0997 2.44664L11.1117 2.45123L11.2014 2.21789ZM10.6794 1.98588L10.7809 1.75743C10.749 1.74322 10.7144 1.73588 10.6794 1.73588V1.98588ZM9.46132 1.73588C9.32325 1.73588 9.21132 1.84781 9.21132 1.98588C9.21132 2.12395 9.32325 2.23588 9.46132 2.23588V1.73588ZM6.61925 3.95838L6.40071 4.07979C6.4448 4.15916 6.52846 4.20838 6.61925 4.20838V3.95838ZM6.32924 3.43636L6.54778 3.31495C6.50368 3.23558 6.42003 3.18636 6.32924 3.18636V3.43636ZM5.51719 3.95838H5.26719C5.26719 4.01248 5.28474 4.06511 5.31719 4.10838L5.51719 3.95838ZM5.86521 4.42241L5.66521 4.57241C5.6885 4.60346 5.71869 4.62866 5.75341 4.64602L5.86521 4.42241ZM6.32924 4.65442H6.57924C6.57924 4.55973 6.52574 4.47316 6.44104 4.43081L6.32924 4.65442ZM6.32924 5.93049V6.18049C6.46731 6.18049 6.57924 6.06856 6.57924 5.93049H6.32924ZM5.7492 5.93049V5.68049C5.73326 5.68049 5.71735 5.68202 5.7017 5.68505L5.7492 5.93049ZM3.95111 6.27851L3.78841 6.46832C3.84632 6.51796 3.92373 6.53845 3.99861 6.52395L3.95111 6.27851ZM3.54509 5.93049L3.29595 5.95125C3.30141 6.01678 3.33247 6.07751 3.38239 6.1203L3.54509 5.93049ZM3.42908 4.53842L3.18393 4.48939C3.17934 4.51235 3.178 4.53584 3.17994 4.55918L3.42908 4.53842ZM3.54509 3.95838L3.4099 3.74809C3.35291 3.78473 3.31323 3.84292 3.29994 3.90936L3.54509 3.95838ZM4.35713 3.43636L4.25368 3.20876C4.2427 3.21376 4.23209 3.21954 4.22194 3.22606L4.35713 3.43636ZM4.99516 3.14634L5.11657 2.9278C5.04729 2.88931 4.96386 2.88595 4.89171 2.91875L4.99516 3.14634ZM3.57235 6.13491C3.68546 6.05574 3.71297 5.89985 3.63379 5.78674C3.55461 5.67363 3.39873 5.64612 3.28561 5.7253L3.57235 6.13491ZM2.26892 6.74215L2.12555 6.53734C2.10389 6.5525 2.08478 6.571 2.06892 6.59215L2.26892 6.74215ZM1.9209 7.20617L1.7209 7.05617C1.65423 7.14506 1.65423 7.26729 1.7209 7.35617L1.9209 7.20617ZM2.26892 7.6702L2.06892 7.8202C2.10919 7.87389 2.16935 7.90914 2.23588 7.91801L2.26892 7.6702ZM3.13896 7.78621L3.10592 8.03401C3.11688 8.03547 3.12791 8.03621 3.13896 8.03621V7.78621ZM5.80711 7.78621V8.03621C5.8428 8.03621 5.87807 8.02857 5.91056 8.0138L5.80711 7.78621ZM6.44514 7.49619L6.54859 7.72378C6.57991 7.70955 6.60795 7.689 6.63097 7.66343L6.44514 7.49619ZM6.96717 6.91616L7.15299 7.0834C7.21318 7.01652 7.23279 6.92246 7.20434 6.8371L6.96717 6.91616ZM6.79316 6.39413L7.03033 6.31507C7.02101 6.2871 7.0068 6.26099 6.98838 6.23796L6.79316 6.39413ZM6.52435 5.65793C6.4381 5.55011 6.28078 5.53263 6.17296 5.61888C6.06515 5.70514 6.04767 5.86246 6.13392 5.97027L6.52435 5.65793ZM6.96717 6.55048H6.15513V7.05048H6.96717V6.55048ZM6.33942 6.63155L5.70138 5.93552L5.3328 6.27338L5.97084 6.96942L6.33942 6.63155ZM1.96628 7.34014L6.54853 7.57215L6.57382 7.07279L1.99157 6.84078L1.96628 7.34014ZM6.66376 7.09449L5.5037 6.57246L5.29852 7.02843L6.45858 7.55045L6.66376 7.09449ZM33.966 6.77311L34.5461 6.36709L34.2593 5.95747L33.6793 6.36349L33.966 6.77311ZM34.6439 6.0965L34.4699 5.45846L33.9875 5.59002L34.1615 6.22806L34.6439 6.0965ZM34.4682 5.45241L34.2941 4.87238L33.8152 5.01605L33.9892 5.59608L34.4682 5.45241ZM34.0918 4.69698L32.9317 4.52297L32.8575 5.01744L34.0176 5.19145L34.0918 4.69698ZM32.8946 4.5202H32.5466V5.0202H32.8946V4.5202ZM31.6419 4.28928L29.7858 4.11527L29.7391 4.61309L31.5952 4.7871L31.6419 4.28928ZM29.7625 4.11418H28.3704V4.61418H29.7625V4.11418ZM28.4632 4.13206L27.8832 3.90005L27.6975 4.36429L28.2775 4.5963L28.4632 4.13206ZM27.8338 3.88597L25.8617 3.53795L25.7748 4.03035L27.7469 4.37836L27.8338 3.88597ZM23.6981 3.63415L23.3501 3.17013L22.9501 3.47012L23.2981 3.93415L23.6981 3.63415ZM23.208 3.07692L21.9899 2.78691L21.8741 3.27331L23.0922 3.56333L23.208 3.07692ZM21.932 2.78011H21.12V3.28011H21.932V2.78011ZM21.2318 2.8065L20.3037 2.34248L20.0801 2.78969L21.0082 3.25372L21.2318 2.8065ZM20.2954 2.33849L19.6574 2.04848L19.4505 2.50366L20.0885 2.79368L20.2954 2.33849ZM19.6049 2.03132L18.2128 1.74131L18.1108 2.2308L19.5029 2.52081L19.6049 2.03132ZM18.1618 1.73605H16.5377V2.23605H18.1618V1.73605ZM16.448 1.75272L15.694 2.04273L15.8734 2.50941L16.6275 2.21939L16.448 1.75272ZM15.6069 2.09929L14.8529 2.85333L15.2064 3.20689L15.9605 2.45285L15.6069 2.09929ZM15.2064 2.85333L14.9164 2.56332L14.5629 2.91687L14.8529 3.20689L15.2064 2.85333ZM14.8054 2.4989L14.1674 2.32489L14.0358 2.80728L14.6739 2.98128L14.8054 2.4989ZM14.1914 2.33275L13.4373 2.04273L13.2578 2.50941L14.0119 2.79942L14.1914 2.33275ZM13.5171 2.09237L12.7631 1.39633L12.424 1.76373L13.178 2.45977L13.5171 2.09237ZM12.692 1.35025L11.88 1.00223L11.683 1.4618L12.4951 1.80982L12.692 1.35025ZM11.8107 0.983725L9.83859 0.751712L9.78017 1.24829L11.7523 1.4803L11.8107 0.983725ZM9.72618 0.764252L8.74012 1.11227L8.90654 1.58377L9.89259 1.23575L9.72618 0.764252ZM8.63835 1.17985L8.05831 1.81788L8.42828 2.15422L9.00831 1.51619L8.63835 1.17985ZM8.03038 1.85503L7.56636 2.60907L7.99219 2.87112L8.45621 2.11708L8.03038 1.85503ZM7.5649 2.61147L7.04287 3.48152L7.47162 3.73876L7.99365 2.86872L7.5649 2.61147ZM7.00724 3.61014V4.24817H7.50724V3.61014H7.00724ZM7.00954 4.2144L6.83553 5.49047L7.33094 5.55802L7.50495 4.28195L7.00954 4.2144ZM6.83323 5.52424V6.85832H7.33323V5.52424H6.83323ZM6.84378 6.93015L7.01779 7.51018L7.4967 7.36651L7.32269 6.78648L6.84378 6.93015ZM7.13872 7.65846L7.89276 8.06449L8.12981 7.62425L7.37577 7.21823L7.13872 7.65846ZM7.99502 8.09384L10.6632 8.26785L10.6957 7.76891L8.02756 7.5949L7.99502 8.09384ZM10.6794 8.26838H12.5935V7.76838H10.6794V8.26838ZM12.6497 8.26198L13.4038 8.08797L13.2914 7.60077L12.5373 7.77478L12.6497 8.26198ZM13.3476 8.09437H14.7396V7.59437H13.3476V8.09437ZM14.7707 8.09244L15.6987 7.97643L15.6367 7.48029L14.7086 7.5963L14.7707 8.09244ZM15.5559 7.95197L16.1359 8.24198L16.3595 7.79477L15.7795 7.50476L15.5559 7.95197ZM16.2477 8.26838H20.424V7.76838H16.2477V8.26838ZM20.4381 8.26798L23.5122 8.09397L23.484 7.59477L20.4098 7.76878L20.4381 8.26798ZM23.4981 8.09437H27.7903V7.59437H23.4981V8.09437ZM27.8028 8.09406L30.123 7.97805L30.098 7.47867L27.7779 7.59468L27.8028 8.09406ZM31.8269 7.97724L33.0449 8.09324L33.0923 7.59549L31.8743 7.47949L31.8269 7.97724ZM33.0124 8.08797L33.7665 8.26198L33.8789 7.77478L33.1248 7.60077L33.0124 8.08797ZM34.0727 8.01838V7.43835H33.5727V8.01838H34.0727ZM34.0568 7.52613L34.2308 7.0621L33.7626 6.88654L33.5886 7.35057L34.0568 7.52613ZM34.2265 6.87584L34.0525 6.46982L33.5929 6.66678L33.7669 7.0728L34.2265 6.87584ZM32.6072 4.52767L32.3683 4.46794L32.2471 4.95301L32.486 5.01274L32.6072 4.52767ZM32.3683 4.46794L31.6792 4.29565L31.5579 4.78073L32.2471 4.95301L32.3683 4.46794ZM32.0696 4.78658C32.1422 5.01396 32.2282 5.36257 32.2528 5.66736C32.2652 5.82111 32.2605 5.94727 32.2399 6.036C32.2184 6.12848 32.1921 6.13266 32.2018 6.12812L32.4136 6.58107C32.6061 6.49105 32.6903 6.30657 32.7269 6.14925C32.7644 5.98818 32.7654 5.80339 32.7512 5.62709C32.7225 5.27176 32.6255 4.88379 32.5458 4.63437L32.0696 4.78658ZM30.1105 7.97836H31.6186V7.47836H30.1105V7.97836ZM31.6186 7.97836H31.8506V7.47836H31.6186V7.97836ZM32.2018 6.12812C31.9878 6.22818 31.5897 6.40649 31.3473 6.67607C31.2195 6.81826 31.1159 7.00593 31.1213 7.23635C31.1266 7.46479 31.2379 7.68577 31.4353 7.89844L31.8018 7.55829C31.6546 7.39973 31.6227 7.2901 31.6212 7.22475C31.6197 7.16137 31.6457 7.09207 31.7192 7.01033C31.8794 6.83207 32.1705 6.69471 32.4136 6.58107L32.2018 6.12812ZM34.1967 6.94026L33.8487 6.47624L33.4487 6.77624L33.7967 7.24026L34.1967 6.94026ZM33.6487 6.37624H32.8366V6.87624H33.6487V6.37624ZM32.9626 6.41029L32.2666 6.00427L32.0146 6.43616L32.7107 6.84218L32.9626 6.41029ZM32.08 5.97768L31.3839 6.15169L31.5052 6.63676L32.2012 6.46275L32.08 5.97768ZM31.4446 6.14422H28.7764V6.64422H31.4446V6.14422ZM28.8225 6.14851L27.8944 5.9745L27.8023 6.46593L28.7304 6.63994L28.8225 6.14851ZM27.8484 5.97022H27.6744V6.47022H27.8484V5.97022ZM27.6908 5.97075C25.9234 5.8546 22.0209 5.55851 20.4767 5.30114L20.3945 5.79434C21.9685 6.05668 25.8987 6.35406 27.658 6.46968L27.6908 5.97075ZM20.4962 5.30521C20.2638 5.2471 19.8737 5.17967 19.44 5.15995C19.0087 5.14035 18.5139 5.16688 18.0828 5.31057L18.2409 5.78491C18.5894 5.66875 19.0149 5.64115 19.4173 5.65944C19.8172 5.67762 20.1743 5.74011 20.3749 5.79028L20.4962 5.30521ZM24.2905 6.62965L23.8845 6.86167L24.1326 7.29579L24.5386 7.06378L24.2905 6.62965ZM24.3565 4.64781H24.0085V5.14781H24.3565V4.64781ZM14.8957 2.97223V4.53831H15.3957V2.97223H14.8957ZM14.8981 4.57247L15.1301 6.25456L15.6254 6.18624L15.3934 4.50415L14.8981 4.57247ZM15.1277 6.2204V7.72848H15.6277V6.2204H15.1277ZM13.0247 2.62018L12.0387 2.27216L11.8722 2.74366L12.8583 3.09168L13.0247 2.62018ZM12.0452 2.27457L11.2912 1.98456L11.1117 2.45123L11.8657 2.74125L12.0452 2.27457ZM11.3029 1.98944L10.7809 1.75743L10.5778 2.21433L11.0999 2.44635L11.3029 1.98944ZM10.6794 1.73588H9.46132V2.23588H10.6794V1.73588ZM7.25729 3.70838H6.61925V4.20838H7.25729V3.70838ZM6.83779 3.83697L6.54778 3.31495L6.1107 3.55777L6.40071 4.07979L6.83779 3.83697ZM6.32924 3.18636H5.51719V3.68636H6.32924V3.18636ZM5.26719 3.43636V3.95838H5.76719V3.43636H5.26719ZM5.31719 4.10838L5.66521 4.57241L6.06521 4.27241L5.71719 3.80838L5.31719 4.10838ZM5.75341 4.64602L6.21743 4.87803L6.44104 4.43081L5.97701 4.1988L5.75341 4.64602ZM6.32924 5.68049H5.7492V6.18049H6.32924V5.68049ZM5.7017 5.68505L3.9036 6.03306L3.99861 6.52395L5.79671 6.17594L5.7017 5.68505ZM4.11381 6.08869L3.70778 5.74068L3.38239 6.1203L3.78841 6.46832L4.11381 6.08869ZM3.79422 5.90973L3.67822 4.51765L3.17994 4.55918L3.29595 5.95125L3.79422 5.90973ZM3.67422 4.58744L3.79023 4.00741L3.29994 3.90936L3.18393 4.48939L3.67422 4.58744ZM3.68028 4.16868L4.49232 3.64665L4.22194 3.22606L3.4099 3.74809L3.68028 4.16868ZM4.46058 3.66395L5.09861 3.37393L4.89171 2.91875L4.25368 3.20876L4.46058 3.66395ZM4.87375 3.36488L5.39578 3.6549L5.6386 3.21782L5.11657 2.9278L4.87375 3.36488ZM3.28561 5.7253L2.12555 6.53734L2.41228 6.94696L3.57235 6.13491L3.28561 5.7253ZM2.06892 6.59215L1.7209 7.05617L2.1209 7.35617L2.46892 6.89215L2.06892 6.59215ZM1.7209 7.35617L2.06892 7.8202L2.46892 7.5202L2.1209 7.05617L1.7209 7.35617ZM2.23588 7.91801L3.10592 8.03401L3.17201 7.5384L2.30196 7.42239L2.23588 7.91801ZM5.91056 8.0138L6.54859 7.72378L6.34169 7.2686L5.70366 7.55861L5.91056 8.0138ZM6.63097 7.66343L7.15299 7.0834L6.78135 6.74892L6.25932 7.32895L6.63097 7.66343ZM7.20434 6.8371L7.03033 6.31507L6.55599 6.47319L6.73 6.99522L7.20434 6.8371ZM6.98838 6.23796L6.52435 5.65793L6.13392 5.97027L6.59794 6.5503L6.98838 6.23796ZM25.8182 3.53415H23.4981V4.03415H25.8182V3.53415ZM14.8556 2.60593H12.9415V3.10593H14.8556V2.60593ZM6.07924 4.65442V5.93049H6.57924V4.65442H6.07924ZM3.13896 8.03621H5.80711V7.53621H3.13896V8.03621Z" fill="#36A0FF"/>
</g>
</svg>
