<svg width="34" height="9" viewBox="0 0 34 9" fill="none" xmlns="http://www.w3.org/2000/svg">
<g id="Group 1583">
<path id="Vector" d="M10.2007 6.16931H32.651V8.13767H1.24902V6.16931H3.00068" stroke="#36A0FF" stroke-width="0.5"/>
<path id="Vector 398" d="M3 6.1355H10.2" stroke="#36A0FF" stroke-width="0.5"/>
<path id="Vector_2" d="M1 4.34888H33.0418" stroke="#36A0FF" stroke-width="0.5" stroke-dasharray="1 1"/>
<path id="Vector 399" d="M26.2796 2.95239C26.2412 3.29413 26.4677 3.49851 26.8839 3.86517" stroke="#36A0FF" stroke-width="0.5"/>
<path id="Vector 394" d="M2.19343 5.38059C2.19343 5.38059 2.04235 5.00026 1.96681 4.77207C1.89126 4.54388 1.96681 4.39175 2.19343 4.08749C2.42004 3.78323 2.73895 3.92219 2.79775 3.6311C2.81539 3.54377 2.85085 3.4742 2.79775 3.40291C2.72695 3.30785 2.59742 3.46293 2.49559 3.40291C2.29674 3.2857 2.64773 2.99387 2.87329 2.94652C3.05594 2.90818 3.24309 2.93061 3.32653 3.09865C3.3793 3.20493 3.2176 3.35721 3.32653 3.40291C3.42471 3.4441 3.4476 3.26406 3.55315 3.25078C3.68406 3.2343 3.72338 3.40291 3.85531 3.40291C3.98724 3.40291 4.03732 3.30567 4.15747 3.25078C4.30214 3.18469 4.6107 3.09859 4.53517 3.09865" stroke="#36A0FF" stroke-width="0.5"/>
<path id="Vector 390" d="M2.3439 5.45489C2.0784 5.42519 1.89157 5.51977 1.66404 5.37883C1.427 5.23199 1.37517 5.03589 1.28634 4.77031C1.16394 4.40434 1.17928 4.15228 1.28634 3.78147C1.39372 3.40956 1.53051 3.20529 1.81512 2.94476C2.10798 2.67668 2.33686 2.58188 2.7216 2.48837C3.12307 2.39079 3.77916 2.48837 3.77916 2.48837C3.77916 2.48837 4.21431 3.03047 4.6101 3.09689C4.7556 3.12131 4.86507 3.17927 4.9878 3.09689C5.09757 3.0232 5.05647 2.89636 5.13888 2.79263C5.30371 2.58516 5.54417 2.6628 5.7432 2.48837C5.88568 2.3635 5.92532 2.25491 6.04536 2.10805C6.2182 1.89659 6.28051 1.73923 6.4986 1.5756C6.75337 1.38443 6.85367 1.31896 7.16785 1.27134C7.37206 1.24039 7.58487 1.3307 7.78278 1.27134C7.98666 1.21019 7.93807 1.22432 8.14987 1.20442C9.05635 1.11921 9.2234 1.20989 9.96283 1.42351C10.559 1.59574 10.8676 1.65213 11.4843 1.71863C11.8375 1.75671 12.1893 1.93056 12.5418 1.72773C12.8943 1.52489 13.6749 1.11921 13.6749 1.11921C13.6749 1.11921 14.4303 0.70395 15.5634 1.42351C16.6965 2.14307 16.0166 1.72773 16.0166 1.72773C16.0166 1.72773 16.1174 1.70237 16.0922 1.72773C16.067 1.75308 16.2433 1.72773 16.2433 1.72773L16.772 1.65166C16.8155 1.54773 19.7936 2.41231 19.7936 2.41231C19.7936 2.41231 21.3823 2.15036 22.4375 2.18411C23.5031 2.21819 24.0193 2.77591 25.0814 2.86869C25.6398 2.91748 26.5167 2.86869 26.5167 2.86869C26.5167 2.86869 26.6678 2.26022 26.8189 2.26018C26.9699 2.26013 29.916 3.62938 29.9915 3.70541C30.0671 3.78143 29.8789 3.88145 29.7649 3.9336C29.5355 4.03862 29.1606 3.70541 29.1606 3.70541C29.1606 3.70541 28.6075 3.6846 28.2541 3.70541C27.5666 3.74588 26.7433 4.08577 26.5167 4.00966C26.2901 3.93356 25.9788 3.76401 25.6102 3.70541C25.2605 3.64981 24.7037 3.70541 24.7037 3.70541C24.7037 3.70541 23.7424 3.50948 23.1174 3.47721C22.7639 3.45896 22.5415 3.34972 22.2109 3.47721C22.0503 3.53916 22.0051 3.69753 21.8332 3.70541C21.3714 3.72656 20.549 3.70541 20.549 3.70541C20.549 3.70541 19.911 3.45366 19.4915 3.32508C18.628 3.06047 18.0957 3.10882 17.2253 2.86869C16.8383 2.76194 16.6268 2.68326 16.2433 2.56444" stroke="#36A0FF" stroke-width="0.5"/>
<path id="Vector 395" d="M13.2871 1.20508C13.2871 1.20508 13.8914 1.73753 13.8159 2.95456C13.7403 4.1716 13.3733 5.07605 13.3733 5.07605" stroke="#36A0FF" stroke-width="0.5"/>
<path id="Vector 391" d="M24.5531 3.70496C25.7331 4.00201 27.4992 4.38954 27.5747 4.4656C27.6503 4.54167 27.9269 4.00965 28.2546 3.93315C28.6101 3.85016 28.7997 4.11071 29.1611 4.16134C29.6286 4.22684 29.9414 3.96168 30.3697 4.16134C30.8895 4.40364 31.2007 5.37838 31.2007 5.37838L31.0496 5.53051C31.0496 5.53051 30.2598 5.69609 29.7654 5.60657C29.554 5.5683 29.4476 5.49478 29.2366 5.45444C28.5964 5.33203 28.2264 5.59746 27.5747 5.60657C26.8055 5.61733 26.3781 5.50888 25.6107 5.45444C25.6107 5.45444 24.139 5.32368 23.1934 5.30231C22.6625 5.29031 22.3641 5.27715 21.8337 5.30231C21.8337 5.30231 20.913 5.3964 20.3229 5.45444C20.3229 5.45444 19.4164 5.50515 18.7366 5.60657C18.0567 5.70799 16.5459 5.91083 16.5459 5.91083C16.425 5.91083 15.2617 5.83476 15.2617 5.83476" stroke="#36A0FF" stroke-width="0.5"/>
<path id="Vector 392" d="M2.34375 5.45514C2.52075 5.48485 2.61856 5.51202 2.79699 5.5312C3.11966 5.5659 3.62793 5.5312 3.62793 5.5312C3.62793 5.5312 4.31587 5.38855 4.68549 5.15088C4.80981 5.07095 4.98765 4.92269 4.98765 4.92269V4.61843C4.98765 4.61843 4.97773 4.47879 4.98765 4.39024C5.03063 4.0065 5.11307 5.01216 5.36535 5.30301C5.68658 5.67335 6.01294 5.78282 6.49845 5.83546C6.88423 5.87729 7.09253 5.69119 7.48047 5.68333C7.9268 5.6743 8.61357 5.83546 8.61357 5.83546C8.61357 5.83546 10.1711 6.20267 11.1819 6.36792C12.1499 6.52615 12.6969 6.59841 13.6747 6.67217C14.3814 6.72548 14.8118 6.5341 15.4877 6.74824C15.9661 6.89979 16.1743 7.12683 16.6208 7.35675C16.8557 7.47773 16.9631 7.63008 17.2251 7.66101C17.531 7.69712 17.7539 7.66101 17.9896 7.58495C18.0739 7.55775 17.9805 7.66101 17.9805 7.66101C17.9805 7.66101 18.3762 7.56296 18.4338 7.35675C18.4577 7.27097 18.4793 7.20498 18.4338 7.12856C18.3712 7.02354 18.1316 7.0525 18.1316 7.0525C18.1316 7.0525 17.7538 7.04942 17.5273 6.97643C17.3388 6.9157 17.1194 6.94221 17.074 6.74824C17.0605 6.69041 17.0477 6.64925 17.074 6.59611C17.1268 6.48983 17.3308 6.70579 17.3762 6.59611C17.4171 6.49724 17.3028 6.44105 17.2251 6.36792C17.1288 6.2772 17.0422 6.2726 16.923 6.21579C16.7199 6.11904 16.6079 6.05746 16.3942 5.98759C15.9696 5.84877 15.6971 5.93199 15.2611 5.83546C14.5226 5.67197 14.1473 5.44083 13.4481 5.15088C12.9717 4.95333 12.7331 4.76713 12.2395 4.61843C11.6959 4.45465 11.363 4.48987 10.8042 4.39024C9.94399 4.23684 9.47209 4.09672 8.61357 3.93385C7.93679 3.80546 7.49681 3.93012 6.87615 3.62959C6.62534 3.50814 6.49015 3.42306 6.27183 3.24927" stroke="#36A0FF" stroke-width="0.5"/>
<path id="Vector 393" d="M5.06348 4.16204C5.26998 3.80558 5.38576 3.60573 5.59226 3.24927" stroke="#36A0FF" stroke-width="0.5"/>
<path id="Vector 400" d="M27.4884 4.47461C27.4164 4.91502 27.5074 5.16336 27.7906 5.61558" stroke="#36A0FF" stroke-width="0.5"/>
</g>
</svg>
