<svg width="42" height="34" viewBox="0 0 42 34" fill="none" xmlns="http://www.w3.org/2000/svg">
<g id="Reclining Right 1">
<path id="Vector" d="M17.8504 22.8438L38.8504 22.6667V20.8959H17.8504L4.20039 12.3959L3.15039 14.1667L17.8504 22.8438Z" stroke="#36A0FF" stroke-width="0.5"/>
<path id="Vector_2" d="M7.91368 10.3841C7.91368 10.5015 8.00776 10.5966 8.12375 10.5966C8.23974 10.5965 8.33368 10.5014 8.33368 10.384L7.91368 10.3841ZM8.12354 10.0488L7.96534 9.90907C7.93195 9.94781 7.91354 9.99747 7.91354 10.049L8.12354 10.0488ZM8.58295 9.51665L8.49629 9.32314C8.46892 9.33567 8.44456 9.35395 8.42482 9.37683L8.58295 9.51665ZM9.18201 9.24196L9.21764 9.03251C9.1762 9.02528 9.13364 9.03081 9.09535 9.04837L9.18201 9.24196ZM9.74838 9.34049L9.82958 9.14449C9.81495 9.13826 9.79962 9.13373 9.78401 9.13103L9.74838 9.34049ZM10.3313 9.58763L10.5096 9.47528C10.4865 9.43788 10.4526 9.40863 10.4124 9.39163L10.3313 9.58763ZM10.5119 9.88137L10.3337 9.99364C10.3647 10.044 10.4151 10.079 10.4727 10.0901C10.5303 10.1012 10.5899 10.0874 10.637 10.0521L10.5119 9.88137ZM10.7171 9.72759L10.8552 9.56751C10.7809 9.50185 10.6714 9.49738 10.5921 9.55681L10.7171 9.72759ZM11.1276 10.0905L11.2851 9.94994C11.2791 9.943 11.2726 9.93648 11.2658 9.93046L11.1276 10.0905ZM11.3822 10.3825L11.592 10.3892C11.5937 10.3351 11.575 10.2825 11.5397 10.2419L11.3822 10.3825ZM11.1174 10.6177C11.0411 10.7061 11.0501 10.8403 11.1375 10.9175C11.2248 10.9947 11.3575 10.9857 11.4338 10.8973L11.1174 10.6177ZM11.8996 11.3761L11.7297 11.501C11.7355 11.5091 11.7419 11.5168 11.7488 11.524L11.8996 11.3761ZM12.3184 11.8134L12.1676 11.9612C12.1716 11.9654 12.1758 11.9695 12.1802 11.9734L12.3184 11.8134ZM13.4429 11.936L13.5091 12.1377C13.5164 12.1353 13.5235 12.1325 13.5304 12.1292L13.4429 11.936ZM14.2882 11.5438L14.2672 11.3324C14.2442 11.3347 14.2217 11.3409 14.2007 11.3507L14.2882 11.5438ZM14.7642 11.4955L14.7852 11.707L14.7881 11.7066L14.7642 11.4955ZM15.1664 11.4488L15.26 11.2587C15.2236 11.2403 15.1828 11.2331 15.1424 11.2378L15.1664 11.4488ZM15.8724 11.8049L15.9818 11.6234C15.9767 11.6203 15.9714 11.6174 15.9661 11.6147L15.8724 11.8049ZM16.6277 12.2714L16.7658 12.1114C16.7569 12.1035 16.7473 12.0963 16.7371 12.0901L16.6277 12.2714ZM18.7214 14.1222L18.9089 14.0266C18.8967 14.0021 18.88 13.9802 18.8595 13.9622L18.7214 14.1222ZM18.9596 14.6009L19.1576 14.6717C19.1766 14.6171 19.1729 14.557 19.1471 14.5053L18.9596 14.6009ZM18.7628 15.1642L18.9324 15.2895C18.9444 15.2729 18.954 15.2544 18.9608 15.235L18.7628 15.1642ZM18.0245 16.1871L17.8549 16.0618C17.8496 16.0691 17.8448 16.0767 17.8404 16.0847L18.0245 16.1871ZM17.7784 16.6398L17.5944 16.5374C17.5861 16.5527 17.5797 16.569 17.5753 16.5858L17.7784 16.6398ZM17.6227 17.2394L17.816 17.3224C17.8199 17.313 17.8232 17.3033 17.8258 17.2934L17.6227 17.2394ZM17.4177 17.7284L17.6017 17.8308C17.6051 17.8245 17.6082 17.818 17.611 17.8114L17.4177 17.7284ZM17.0733 18.3624L17.145 18.5621C17.1929 18.5445 17.2329 18.5099 17.2573 18.4647L17.0733 18.3624ZM16.3646 18.6226L16.3628 18.8351C16.3878 18.8353 16.4127 18.831 16.4362 18.8224L16.3646 18.6226ZM16.0688 18.6202L15.9571 18.8001C15.9901 18.821 16.0282 18.8323 16.0671 18.8327L16.0688 18.6202ZM15.5547 18.2934L15.3793 18.1765C15.3482 18.2243 15.3375 18.2826 15.3495 18.3384C15.3615 18.3943 15.3952 18.4429 15.443 18.4733L15.5547 18.2934ZM15.9977 17.6126L16.1731 17.7294C16.1813 17.7168 16.1882 17.7033 16.1936 17.6892L15.9977 17.6126ZM16.1125 17.3119L15.9235 17.2192C15.921 17.2245 15.9187 17.2299 15.9166 17.2354L16.1125 17.3119ZM16.2929 16.9352L16.4819 17.0279C16.5244 16.9392 16.501 16.8325 16.4254 16.7703C16.3498 16.7081 16.2419 16.7067 16.1647 16.7669L16.2929 16.9352ZM15.8498 17.2808L15.8142 17.4902C15.8721 17.5003 15.9315 17.4854 15.978 17.4491L15.8498 17.2808ZM15.661 17.248L15.4834 17.1345C15.446 17.1946 15.4406 17.2695 15.4691 17.3344C15.4977 17.3992 15.5563 17.4454 15.6254 17.4574L15.661 17.248ZM15.8496 16.9456L15.7047 16.7919C15.6922 16.8038 15.6813 16.8174 15.6721 16.8321L15.8496 16.9456ZM16.2846 16.5257L16.1999 16.3312C16.1776 16.3412 16.1572 16.355 16.1396 16.372L16.2846 16.5257ZM16.6374 16.3685L16.5649 16.169C16.5608 16.1706 16.5568 16.1722 16.5528 16.174L16.6374 16.3685ZM17.0642 16.2096L17.1367 16.4089C17.1842 16.3912 17.2238 16.3568 17.2482 16.3119L17.0642 16.2096ZM17.3102 15.7568L17.4942 15.8592C17.5026 15.8439 17.5089 15.8277 17.5133 15.8108L17.3102 15.7568ZM17.466 15.1572L17.2633 15.1014L17.2629 15.1032L17.466 15.1572ZM17.5971 14.6699L17.4081 14.5772C17.4025 14.589 17.3979 14.6014 17.3945 14.6141L17.5971 14.6699ZM17.9665 14.3859C18.0171 14.2803 17.9735 14.1532 17.8692 14.102C17.7648 14.0508 17.6391 14.095 17.5886 14.2006L17.9665 14.3859ZM11.3257 13.1963C11.2098 13.1918 11.1123 13.2833 11.1079 13.4006C11.1034 13.5178 11.1939 13.6165 11.3097 13.6209L11.3257 13.1963ZM16.5114 13.459C16.3989 13.4305 16.2848 13.4996 16.2567 13.6134C16.2285 13.7273 16.2969 13.8427 16.4094 13.8712L16.5114 13.459ZM12.4062 15.9663C12.3141 15.895 12.1823 15.9127 12.1118 16.0058C12.0413 16.0991 12.0588 16.2324 12.1508 16.3038L12.4062 15.9663ZM16.3804 19.313L16.2528 19.4817L16.2645 19.4908L16.2776 19.4982L16.3804 19.313ZM17.577 19.9934L17.4741 20.1786L17.618 20.2604L17.7306 20.1383L17.577 19.9934ZM15.7448 13.0977C15.6421 13.0433 15.5152 13.0834 15.4614 13.1874C15.4075 13.2914 15.4472 13.4198 15.5499 13.4742L15.7448 13.0977ZM16.9759 13.9901L17.1141 13.83L17.0954 13.8135L17.0733 13.8019L16.9759 13.9901ZM17.3868 14.6355C17.4742 14.7127 17.6069 14.7036 17.6832 14.6152C17.7595 14.5269 17.7505 14.3926 17.6631 14.3154L17.3868 14.6355ZM8.29091 10.3724C8.3047 10.2559 8.22245 10.1501 8.1073 10.1362C7.99215 10.1223 7.88764 10.2055 7.87392 10.322L8.29091 10.3724ZM8.02512 10.8328L7.81659 10.8076L7.80763 10.8838L7.84886 10.9482L8.02512 10.8328ZM8.51792 11.6035L8.34159 11.7189L8.35755 11.7439L8.37974 11.7635L8.51792 11.6035ZM9.50317 12.4744L9.36499 12.6345L9.37353 12.642L9.3827 12.6485L9.50317 12.4744ZM10.2667 13.0153L10.1463 13.1894L10.1778 13.2117L10.2152 13.2213L10.2667 13.0153ZM10.8003 13.1518L10.7488 13.3579L10.8118 13.374L10.8728 13.3513L10.8003 13.1518ZM11.1203 13.0326L11.1928 13.2321L11.2077 13.2265L11.2217 13.2188L11.1203 13.0326ZM11.3993 12.8771L11.5006 13.0633L11.5743 13.0223L11.5996 12.9412L11.3993 12.8771ZM11.4813 12.6145L11.6816 12.6785L11.6856 12.6658L11.6879 12.6527L11.4813 12.6145ZM11.596 11.9786L11.8026 12.0167L11.8119 11.965L11.7963 11.9148L11.596 11.9786ZM11.3659 11.239L11.5662 11.1752L11.5582 11.1496L11.5442 11.1267L11.3659 11.239ZM11.3635 10.8329C11.3022 10.7333 11.1727 10.7028 11.0743 10.7648C10.9758 10.8269 10.9457 10.9579 11.0069 11.0576L11.3635 10.8329ZM8.00055 10.7484C8.11647 10.7435 8.20649 10.6444 8.20159 10.5272C8.19676 10.4099 8.0989 10.3188 7.98298 10.3237L8.00055 10.7484ZM6.03835 10.6189L6.02955 10.4066L5.77046 10.4176L5.83495 10.6717L6.03835 10.6189ZM6.23563 11.3965L6.03223 11.4493L6.05046 11.5212L6.10892 11.5659L6.23563 11.3965ZM10.2011 14.4328L10.0744 14.6022L10.2305 14.7217L10.3593 14.5725L10.2011 14.4328ZM10.759 13.7865L10.6459 13.6075L10.6206 13.6239L10.6009 13.6467L10.759 13.7865ZM11.4155 13.3615L11.5287 13.5405L11.735 13.4068L11.573 13.2209L11.4155 13.3615ZM11.3185 12.9288C11.2418 12.8409 11.109 12.8324 11.022 12.9101C10.9351 12.9877 10.9268 13.122 11.0035 13.21L11.3185 12.9288ZM5.63671 11.0595C5.56453 10.9676 5.43242 10.9523 5.34164 11.0254C5.25086 11.0984 5.23578 11.2321 5.30797 11.324L5.63671 11.0595ZM5.64478 11.4112L5.48041 11.5434L5.52156 11.5958L5.58496 11.6149L5.64478 11.4112ZM6.2194 11.584L6.3433 11.4124L6.31401 11.3908L6.27923 11.3803L6.2194 11.584ZM7.14711 12.27L7.02321 12.4416L7.02783 12.4449L7.14711 12.27ZM10.8005 14.8294L10.6808 15.004L10.6852 15.0069L10.8005 14.8294ZM11.7201 15.4411L11.8879 15.3134L11.866 15.2838L11.8354 15.2636L11.7201 15.4411ZM12.1553 16.0269L12.3501 15.9476L12.3399 15.9216L12.3232 15.8992L12.1553 16.0269ZM12.3607 16.5436L12.5344 16.6631L12.5973 16.5694L12.5555 16.4643L12.3607 16.5436ZM12.1064 16.922L12.191 17.1165L12.2462 17.0919L12.2801 17.0415L12.1064 16.922ZM11.7535 17.0792L11.6253 17.2475L11.724 17.3245L11.8382 17.2737L11.7535 17.0792ZM11.1049 16.5729L10.9668 16.7329L10.9716 16.7372L10.9767 16.7412L11.1049 16.5729ZM9.54489 15.1939L9.68314 15.0339L9.67992 15.0311L9.54489 15.1939ZM7.62367 13.5626L7.48549 13.7227L7.48871 13.7254L7.62367 13.5626ZM6.72052 12.7642L6.85868 12.6042L6.8214 12.5713L6.7735 12.5586L6.72052 12.7642ZM6.07204 12.5932L5.98603 12.787L6.00205 12.7943L6.01905 12.7987L6.07204 12.5932ZM5.13618 12.168L5.01689 12.3429L5.03268 12.3539L5.05018 12.3619L5.13618 12.168ZM4.77494 11.9157L4.62295 12.0623L4.63786 12.0781L4.65565 12.0906L4.77494 11.9157ZM4.39723 11.5148L4.18734 11.5081L4.18457 11.597L4.24523 11.6614L4.39723 11.5148ZM4.40534 11.2538L4.5435 11.0938L4.20939 10.7985L4.19545 11.2472L4.40534 11.2538ZM4.84192 11.9219C4.92927 11.9991 5.06193 11.9901 5.13824 11.9018C5.21454 11.8134 5.20558 11.6791 5.11824 11.6019L4.84192 11.9219ZM4.23924 11.0389C4.16294 11.1273 4.17189 11.2616 4.25924 11.3388C4.34659 11.416 4.47925 11.4069 4.55555 11.3185L4.23924 11.0389ZM4.56149 10.9886L4.70844 10.8369L4.54961 10.6795L4.40333 10.8489L4.56149 10.9886ZM5.03855 11.7591C5.12139 11.8413 5.25435 11.8398 5.33552 11.756C5.41668 11.6722 5.41532 11.5377 5.33247 11.4555L5.03855 11.7591ZM4.54317 10.7786C4.44998 10.8485 4.4304 10.9816 4.49944 11.0759C4.56848 11.1702 4.69999 11.19 4.79319 11.1202L4.54317 10.7786ZM5.07846 10.6418L5.09242 10.4298L5.01544 10.4246L4.95345 10.4711L5.07846 10.6418ZM5.48886 10.6695L5.64702 10.8093L5.92611 10.486L5.50282 10.4575L5.48886 10.6695ZM5.3576 10.8215L5.44717 11.0138L5.48687 10.9948L5.51575 10.9614L5.3576 10.8215ZM5.1114 10.9391L5.02183 10.7469L4.98212 10.7658L4.95325 10.7992L5.1114 10.9391ZM4.98013 11.0911L4.82198 10.9513L4.70681 11.0847L4.81576 11.2234L4.98013 11.0911ZM5.16065 11.6623C5.23283 11.7541 5.36495 11.7694 5.45572 11.6963C5.5465 11.6233 5.56158 11.4896 5.4894 11.3978L5.16065 11.6623ZM5.5571 10.5393C5.44593 10.5059 5.32901 10.5699 5.29597 10.6825C5.26293 10.795 5.32626 10.9133 5.43744 10.9467L5.5571 10.5393ZM5.72711 10.8121L5.93214 10.8581L5.97444 10.6649L5.78695 10.6085L5.72711 10.8121ZM5.67795 11.0368L5.75049 11.2362L5.85817 11.1961L5.88298 11.0827L5.67795 11.0368ZM5.46458 11.1163L5.39204 10.9168L5.18045 10.9957L5.27314 11.2036L5.46458 11.1163ZM5.32243 11.3142C5.37011 11.4212 5.49447 11.4688 5.60019 11.4206C5.70592 11.3723 5.75298 11.2465 5.7053 11.1395L5.32243 11.3142ZM18.9616 14.9976C18.8622 14.937 18.7332 14.9695 18.6734 15.0701C18.6135 15.1706 18.6456 15.3012 18.745 15.3617L18.9616 14.9976ZM20.7676 16.3459L20.968 16.4098L21.0177 16.2501L20.876 16.1638L20.7676 16.3459ZM20.5695 16.9821L20.3691 16.9182L20.3557 16.9613L20.3608 17.0063L20.5695 16.9821ZM17.9678 19.5696L17.9579 19.3573L17.8725 19.3614L17.8142 19.4246L17.9678 19.5696ZM8.33368 10.384L8.33354 10.0488L7.91354 10.049L7.91368 10.3841L8.33368 10.384ZM8.28167 10.1886L8.74115 9.65648L8.42482 9.37683L7.96534 9.90907L8.28167 10.1886ZM8.66968 9.71024L9.26874 9.43548L9.09535 9.04837L8.49629 9.32314L8.66968 9.71024ZM9.14645 9.45134L9.71282 9.54987L9.78401 9.13103L9.21764 9.03251L9.14645 9.45134ZM9.66725 9.53649L10.2501 9.78355L10.4124 9.39163L9.82958 9.14449L9.66725 9.53649ZM10.153 9.6999L10.3337 9.99364L10.6902 9.7691L10.5096 9.47528L10.153 9.6999ZM10.637 10.0521L10.8421 9.8983L10.5921 9.55681L10.3869 9.71059L10.637 10.0521ZM10.5789 9.88761L10.9895 10.2505L11.2658 9.93046L10.8552 9.56751L10.5789 9.88761ZM10.9701 10.231L11.2247 10.5231L11.5397 10.2419L11.2851 9.94994L10.9701 10.231ZM11.1723 10.3759L11.1641 10.6367L11.5839 10.6501L11.592 10.3892L11.1723 10.3759ZM11.2159 10.5036L11.1174 10.6177L11.4338 10.8973L11.5322 10.7832L11.2159 10.5036ZM11.2041 10.7683L11.7297 11.501L12.0696 11.2513L11.544 10.5186L11.2041 10.7683ZM11.7488 11.524L12.1676 11.9612L12.4692 11.6655L12.0504 11.2282L11.7488 11.524ZM12.1802 11.9734L12.5907 12.3362L12.8671 12.0161L12.4565 11.6533L12.1802 11.9734ZM12.7951 12.3779L13.5091 12.1377L13.3767 11.7344L12.6627 11.9746L12.7951 12.3779ZM13.5304 12.1292L14.3757 11.737L14.2007 11.3507L13.3554 11.7429L13.5304 12.1292ZM14.3092 11.7553L14.7852 11.707L14.7432 11.2841L14.2672 11.3324L14.3092 11.7553ZM14.7881 11.7066L15.1903 11.66L15.1424 11.2378L14.7403 11.2844L14.7881 11.7066ZM15.0727 11.639L15.7787 11.995L15.9661 11.6147L15.26 11.2587L15.0727 11.639ZM15.763 11.9863L16.5183 12.4528L16.7371 12.0901L15.9818 11.6234L15.763 11.9863ZM18.5338 14.2178L18.772 14.6964L19.1471 14.5053L18.9089 14.0266L18.5338 14.2178ZM18.7616 14.53L18.5648 15.0934L18.9608 15.235L19.1576 14.6717L18.7616 14.53ZM18.5932 15.0388L17.8549 16.0618L18.1941 16.3124L18.9324 15.2895L18.5932 15.0388ZM17.8404 16.0847L17.5944 16.5374L17.9624 16.7422L18.2085 16.2895L17.8404 16.0847ZM17.5753 16.5858L17.4196 17.1854L17.8258 17.2934L17.9815 16.6938L17.5753 16.5858ZM17.4293 17.1565L17.2244 17.6454L17.611 17.8114L17.816 17.3224L17.4293 17.1565ZM17.2336 17.6261L16.8893 18.26L17.2573 18.4647L17.6017 17.8308L17.2336 17.6261ZM17.0017 18.1626L16.2929 18.4229L16.4362 18.8224L17.145 18.5621L17.0017 18.1626ZM16.3663 18.4102L16.0706 18.4077L16.0671 18.8327L16.3628 18.8351L16.3663 18.4102ZM15.7301 18.4103L16.1731 17.7294L15.8223 17.4957L15.3793 18.1765L15.7301 18.4103ZM16.1936 17.6892L16.3084 17.3885L15.9166 17.2354L15.8018 17.536L16.1936 17.6892ZM16.3014 17.4046L16.4819 17.0279L16.104 16.8425L15.9235 17.2192L16.3014 17.4046ZM16.1647 16.7669L15.7216 17.1125L15.978 17.4491L16.4211 17.1035L16.1647 16.7669ZM15.8854 17.0714L15.6966 17.0385L15.6254 17.4574L15.8142 17.4902L15.8854 17.0714ZM15.8386 17.3614L16.0272 17.0591L15.6721 16.8321L15.4834 17.1345L15.8386 17.3614ZM15.9946 17.0993L16.4295 16.6795L16.1396 16.372L15.7047 16.7919L15.9946 17.0993ZM16.3692 16.7202L16.7221 16.5629L16.5528 16.174L16.1999 16.3312L16.3692 16.7202ZM16.71 16.5679L17.1367 16.4089L16.9916 16.0101L16.5649 16.169L16.71 16.5679ZM17.2482 16.3119L17.4942 15.8592L17.1262 15.6544L16.8802 16.1071L17.2482 16.3119ZM17.5133 15.8108L17.6691 15.2112L17.2629 15.1032L17.1071 15.7028L17.5133 15.8108ZM17.6686 15.2131L17.7997 14.7257L17.3945 14.6141L17.2633 15.1014L17.6686 15.2131ZM17.7861 14.7626L17.9665 14.3859L17.5886 14.2006L17.4081 14.5772L17.7861 14.7626ZM16.1805 18.4402L15.6664 18.1134L15.443 18.4733L15.9571 18.8001L16.1805 18.4402ZM12.538 12.2646C12.6206 12.4476 12.6436 12.684 12.5249 12.8589C12.4092 13.0295 12.1012 13.2261 11.3257 13.1963L11.3097 13.6209C12.1364 13.6528 12.6325 13.4514 12.8712 13.0994C13.1069 12.7519 13.0344 12.3413 12.9199 12.0879L12.538 12.2646ZM16.4895 12.4314L16.8795 12.7763L17.1558 12.4562L16.7658 12.1114L16.4895 12.4314ZM16.8077 12.6128C16.8048 12.7978 16.7746 13.0601 16.7019 13.2546C16.6652 13.3528 16.6253 13.4124 16.5918 13.4415C16.5686 13.4615 16.5496 13.4687 16.5114 13.459L16.4094 13.8712C16.5867 13.9162 16.7442 13.8689 16.8649 13.7642C16.9753 13.6686 17.0467 13.5332 17.0947 13.405C17.1913 13.1465 17.2243 12.8297 17.2277 12.6196L16.8077 12.6128ZM12.1508 16.3038L16.2528 19.4817L16.5081 19.1442L12.4062 15.9663L12.1508 16.3038ZM16.2776 19.4982L17.4741 20.1786L17.6799 19.8081L16.4833 19.1277L16.2776 19.4982ZM15.5499 13.4742L16.8785 14.1783L17.0733 13.8019L15.7448 13.0977L15.5499 13.4742ZM16.8378 14.1501L17.3868 14.6355L17.6631 14.3154L17.1141 13.83L16.8378 14.1501ZM7.87392 10.322L7.81659 10.8076L8.23365 10.858L8.29091 10.3724L7.87392 10.322ZM7.84886 10.9482L8.34159 11.7189L8.69425 11.488L8.20145 10.7173L7.84886 10.9482ZM8.37974 11.7635L9.36499 12.6345L9.64135 12.3144L8.65603 11.4435L8.37974 11.7635ZM9.3827 12.6485L10.1463 13.1894L10.3871 12.8412L9.62364 12.3003L9.3827 12.6485ZM10.2152 13.2213L10.7488 13.3579L10.8517 12.9458L10.3182 12.8093L10.2152 13.2213ZM10.8728 13.3513L11.1928 13.2321L11.0478 12.8332L10.7277 12.9524L10.8728 13.3513ZM11.2217 13.2188L11.5006 13.0633L11.298 12.691L11.019 12.8465L11.2217 13.2188ZM11.5996 12.9412L11.6816 12.6785L11.281 12.5505L11.1991 12.8131L11.5996 12.9412ZM11.6879 12.6527L11.8026 12.0167L11.3894 11.9404L11.2747 12.5764L11.6879 12.6527ZM11.7963 11.9148L11.5662 11.1752L11.1656 11.3028L11.3957 12.0424L11.7963 11.9148ZM11.5442 11.1267L11.3635 10.8329L11.0069 11.0576L11.1876 11.3513L11.5442 11.1267ZM7.98298 10.3237L6.02955 10.4066L6.04714 10.8312L8.00055 10.7484L7.98298 10.3237ZM5.83495 10.6717L6.03223 11.4493L6.43903 11.3437L6.24175 10.566L5.83495 10.6717ZM6.10892 11.5659L10.0744 14.6022L10.3278 14.2633L6.36234 11.2271L6.10892 11.5659ZM10.3593 14.5725L10.9172 13.9263L10.6009 13.6467L10.043 14.2929L10.3593 14.5725ZM10.8722 13.9655L11.5287 13.5405L11.3023 13.1825L10.6459 13.6075L10.8722 13.9655ZM11.573 13.2209L11.3185 12.9288L11.0035 13.21L11.258 13.502L11.573 13.2209ZM5.30797 11.324L5.48041 11.5434L5.80916 11.2789L5.63671 11.0595L5.30797 11.324ZM5.58496 11.6149L6.15956 11.7877L6.27923 11.3803L5.70461 11.2074L5.58496 11.6149ZM6.09549 11.7556L7.02321 12.4416L7.27101 12.0985L6.3433 11.4124L6.09549 11.7556ZM7.02783 12.4449L8.83404 13.7064L9.07309 13.357L7.26646 12.0951L7.02783 12.4449ZM8.83404 13.7064L10.6808 15.004L10.9203 14.6548L9.07309 13.357L8.83404 13.7064ZM10.6852 15.0069L11.6047 15.6187L11.8354 15.2636L10.916 14.6518L10.6852 15.0069ZM11.5522 15.5688L11.9875 16.1546L12.3232 15.8992L11.8879 15.3134L11.5522 15.5688ZM11.9605 16.1062L12.1659 16.6229L12.5555 16.4643L12.3501 15.9476L11.9605 16.1062ZM12.187 16.4241L11.9327 16.8025L12.2801 17.0415L12.5344 16.6631L12.187 16.4241ZM12.0218 16.7275L11.6689 16.8847L11.8382 17.2737L12.191 17.1165L12.0218 16.7275ZM11.8818 16.9109L11.2332 16.4046L10.9767 16.7412L11.6253 17.2475L11.8818 16.9109ZM11.2431 16.4128L9.68314 15.0339L9.40678 15.354L10.9668 16.7329L11.2431 16.4128ZM9.67992 15.0311L7.75863 13.3998L7.48871 13.7254L9.40993 15.3566L9.67992 15.0311ZM7.76185 13.4026L6.85868 12.6042L6.58236 12.9242L7.48549 13.7227L7.76185 13.4026ZM6.7735 12.5586L6.12502 12.3875L6.01905 12.7987L6.66753 12.9698L6.7735 12.5586ZM6.15804 12.3993L5.22219 11.9741L5.05018 12.3619L5.98603 12.787L6.15804 12.3993ZM5.25547 11.9931L4.89423 11.7408L4.65565 12.0906L5.01689 12.3429L5.25547 11.9931ZM4.92693 11.7691L4.54923 11.3682L4.24523 11.6614L4.62295 12.0623L4.92693 11.7691ZM4.60713 11.5214L4.61524 11.2606L4.19545 11.2472L4.18734 11.5081L4.60713 11.5214ZM4.26718 11.4139L4.84192 11.9219L5.11824 11.6019L4.5435 11.0938L4.26718 11.4139ZM4.55555 11.3185L4.71964 11.1285L4.40333 10.8489L4.23924 11.0389L4.55555 11.3185ZM4.41452 11.1404L5.03855 11.7591L5.33247 11.4555L4.70844 10.8369L4.41452 11.1404ZM4.79319 11.1202L5.20346 10.8126L4.95345 10.4711L4.54317 10.7786L4.79319 11.1202ZM5.0645 10.8538L5.4749 10.8815L5.50282 10.4575L5.09242 10.4298L5.0645 10.8538ZM5.33071 10.5297L5.19944 10.6818L5.51575 10.9614L5.64702 10.8093L5.33071 10.5297ZM5.26802 10.6294L5.02183 10.7469L5.20098 11.1312L5.44717 11.0138L5.26802 10.6294ZM4.95325 10.7992L4.82198 10.9513L5.13829 11.2309L5.26956 11.0789L4.95325 10.7992ZM4.81576 11.2234L5.16065 11.6623L5.4894 11.3978L5.14451 10.9589L4.81576 11.2234ZM5.43744 10.9467L5.66728 11.0158L5.78695 10.6085L5.5571 10.5393L5.43744 10.9467ZM5.52208 10.7662L5.47292 10.9908L5.88298 11.0827L5.93214 10.8581L5.52208 10.7662ZM5.60541 10.8373L5.39204 10.9168L5.53712 11.3157L5.75049 11.2362L5.60541 10.8373ZM5.27314 11.2036L5.32243 11.3142L5.7053 11.1395L5.65601 11.0289L5.27314 11.2036ZM20.5674 16.2819L20.3691 16.9182L20.7697 17.046L20.968 16.4098L20.5674 16.2819ZM20.3608 17.0063C20.3583 16.9842 20.3656 16.9808 20.3546 17.0047C20.3449 17.0261 20.3261 17.0572 20.2949 17.097C20.2327 17.1762 20.1375 17.2698 20.0213 17.3636C19.7845 17.555 19.5009 17.7158 19.3018 17.7624L19.3966 18.1764C19.6829 18.1094 20.0241 17.9052 20.2833 17.6958C20.4152 17.5892 20.5359 17.4734 20.6239 17.3612C20.6677 17.3052 20.7077 17.2449 20.7359 17.1829C20.7631 17.1234 20.7879 17.0444 20.7781 16.9578L20.3608 17.0063ZM19.3018 17.7624C19.0789 17.8146 18.9105 17.9785 18.7824 18.1459C18.6521 18.3161 18.538 18.5244 18.4363 18.7112C18.3302 18.9062 18.2385 19.0758 18.1444 19.2003C18.0448 19.3322 17.9845 19.356 17.9579 19.3573L17.9777 19.7818C18.2035 19.7711 18.3661 19.6067 18.4781 19.4585C18.5956 19.3029 18.7039 19.1006 18.8042 18.9163C18.9089 18.7239 19.0076 18.5456 19.1144 18.4062C19.2233 18.2639 19.3162 18.1952 19.3966 18.1764L19.3018 17.7624ZM17.8142 19.4246L17.4235 19.8484L17.7306 20.1383L18.1213 19.7145L17.8142 19.4246ZM16.8795 12.7763L18.5832 14.2822L18.8595 13.9622L17.1558 12.4562L16.8795 12.7763ZM18.745 15.3617L20.6594 16.5279L20.876 16.1638L18.9616 14.9976L18.745 15.3617Z" fill="#36A0FF"/>
<path id="Vector_3" d="M17.8496 20.1874L19.9497 20.5419L22.8756 20.7963L24.5967 20.8712L28.2583 20.7778L31.4547 20.5632L32.815 20.5214M32.815 20.5214L33.5452 20.5531L34.0603 20.7271L34.5255 20.8484L35.2099 20.7266L35.6421 20.3917L35.7571 20.1441L35.3528 19.8234L34.9899 19.7571L34.5726 19.7389L34.3704 19.5786L34.1032 19.7185L33.2687 19.6822L33.1161 19.665M32.815 20.5214C32.9939 20.465 33.3045 20.2147 33.1161 19.665M33.1161 19.665L31.8126 19.5179L30.8217 19.4747L30.0873 19.5438L29.2527 19.5075L28.6834 19.3817L28.2161 19.3109L27.8553 19.1941L26.7164 18.9425L23.0997 18.7711H21.3497L18.8997 18.4169M34.2601 19.7255L34.2815 19.2212L33.6856 18.4879L32.1296 18.2182L31.7491 18.254M31.7491 18.254L30.6607 18.3564L29.639 17.8067C28.8601 17.4728 28.0228 17.3008 27.1768 17.3012L26.9499 17.3013L24.9222 17.0615C24.1782 17.0206 23.4399 16.8673 22.7013 16.7678C22.205 16.701 21.8789 16.4686 20.9996 16.4688M31.7491 18.254C32.0449 18.6953 32.4967 19.5796 31.9373 19.586" stroke="#36A0FF" stroke-width="0.5" stroke-linecap="round"/>
</g>
</svg>
