<svg width="38" height="30" viewBox="0 0 38 30" fill="none" xmlns="http://www.w3.org/2000/svg">
<g id="reclining left 1">
<path id="Vector" d="M8.79609 12.5576C8.88697 12.6094 9.00319 12.5787 9.05563 12.489C9.10807 12.3993 9.07697 12.2846 8.98609 12.2329L8.79609 12.5576ZM8.16738 11.9829L7.98302 12.0284C7.99556 12.0778 8.0278 12.1199 8.07238 12.1453L8.16738 11.9829ZM8.12229 11.0334C8.09683 10.933 7.99366 10.8719 7.89182 10.8971C7.79004 10.9223 7.72823 11.0241 7.75369 11.1246L8.12229 11.0334ZM8.2748 12.624L8.17201 12.7817C8.2494 12.8308 8.3513 12.8182 8.41394 12.7517C8.47657 12.6852 8.48196 12.584 8.42673 12.5114L8.2748 12.624ZM17.7975 12.959L17.9796 12.9056C17.9705 12.8751 17.9536 12.8475 17.9307 12.8252L17.7975 12.959ZM17.3137 12.49L17.1681 12.6105C17.1721 12.6151 17.1762 12.6196 17.1805 12.6238L17.3137 12.49ZM16.783 11.8655L16.6032 11.926C16.6107 11.9479 16.6224 11.9683 16.6375 11.9859L16.783 11.8655ZM16.4502 10.9027L16.6301 10.8421C16.6233 10.8224 16.6132 10.8039 16.6002 10.7875L16.4502 10.9027ZM15.8962 10.2004L16.0461 10.0852C16.0354 10.0716 16.0229 10.0596 16.0088 10.0494L15.8962 10.2004ZM14.2516 9.00563L14.3643 8.85463C14.3421 8.83851 14.3166 8.82732 14.2896 8.82188L14.2516 9.00563ZM13.2032 8.79489L13.2411 8.61113C13.211 8.60513 13.1798 8.60638 13.1503 8.61482L13.2032 8.79489ZM12.3752 9.03195L12.3223 8.85189C12.3108 8.8552 12.2996 8.85951 12.289 8.86488L12.3752 9.03195ZM11.5941 9.42457L11.5079 9.25751L11.5059 9.25851L11.5941 9.42457ZM10.7048 9.88445L10.6166 9.71832C10.5847 9.73482 10.5582 9.75989 10.5402 9.7907L10.7048 9.88445ZM10.3937 10.416L10.5431 10.5319C10.5487 10.5249 10.5538 10.5175 10.5583 10.5098L10.3937 10.416ZM9.61664 11.3909L9.4673 11.2749C9.46172 11.2819 9.4566 11.2894 9.4521 11.2971L9.61664 11.3909ZM8.96633 12.5024L8.80179 12.4086C8.79204 12.4253 8.78501 12.4433 8.78077 12.462L8.96633 12.5024ZM8.83872 13.074L8.65315 13.0337C8.64219 13.0827 8.65163 13.1339 8.67931 13.1761L8.83872 13.074ZM9.31283 13.7952L9.15342 13.8973C9.1676 13.9188 9.1861 13.9373 9.20782 13.9515L9.31283 13.7952ZM11.6059 15.295L11.501 15.4513C11.5042 15.4534 11.5076 15.4555 11.5109 15.4574L11.6059 15.295ZM13.3119 16.267L13.2169 16.4294C13.2287 16.4361 13.2412 16.4416 13.2542 16.4456L13.3119 16.267ZM14.0687 16.5049L14.1773 16.3511C14.1617 16.3403 14.1445 16.3319 14.1264 16.3263L14.0687 16.5049ZM18.2108 13.4523C18.2633 13.3627 18.2321 13.248 18.1412 13.1962C18.0504 13.1444 17.9342 13.1752 17.8817 13.2648L18.2108 13.4523ZM17.2829 14.6634L17.1183 14.5697C17.1137 14.5775 17.1097 14.5856 17.1064 14.5941L17.2829 14.6634ZM16.6697 16.1828L16.8342 16.2765C16.8389 16.2686 16.8428 16.2605 16.8462 16.2521L16.6697 16.1828ZM15.77 17.3455C15.7176 17.4352 15.7487 17.5498 15.8396 17.6016C15.9305 17.6534 16.0467 17.6227 16.0991 17.533L15.77 17.3455ZM17.7494 13.2768C17.8403 13.3286 17.9565 13.2978 18.0089 13.2081C18.0614 13.1184 18.0303 13.0038 17.9394 12.952L17.7494 13.2768ZM16.1385 12.1424L15.9962 12.2667C16.0098 12.2818 16.0257 12.2947 16.0435 12.3048L16.1385 12.1424ZM15.4293 11.3518L15.2836 11.4723L15.287 11.476L15.4293 11.3518ZM14.8986 10.7272L14.7472 10.8405C14.7491 10.8429 14.751 10.8453 14.753 10.8477L14.8986 10.7272ZM14.5464 10.2688L14.6979 10.1556C14.6825 10.1356 14.6634 10.1189 14.6414 10.1064L14.5464 10.2688ZM13.5558 9.48795C13.465 9.43614 13.3488 9.46688 13.2963 9.55657C13.2439 9.64626 13.275 9.76095 13.3658 9.8127L13.5558 9.48795ZM9.96636 9.85057L9.77643 9.85188C9.77687 9.91838 9.81304 9.9797 9.87137 10.013L9.96636 9.85057ZM9.96237 9.26839L10.1524 9.26714C10.1519 9.20057 10.1158 9.13926 10.0574 9.10601L9.96237 9.26839ZM8.98419 9.29101L8.81965 9.19726C8.79825 9.23382 8.79001 9.27645 8.79622 9.31826L8.98419 9.29101ZM9.06817 9.85432L8.8802 9.88164C8.88444 9.91014 8.89527 9.93726 8.91186 9.96095L9.06817 9.85432ZM9.36862 10.2833L9.53316 10.377C9.5699 10.3143 9.56667 10.2363 9.52493 10.1766L9.36862 10.2833ZM8.74663 11.3464L8.65163 11.5088C8.74251 11.5606 8.85866 11.5299 8.91117 11.4402L8.74663 11.3464ZM8.22964 11.0519L8.32464 10.8896C8.3147 10.8839 8.30424 10.8791 8.29342 10.8753L8.22964 11.0519ZM6.45744 10.4288L6.28 10.4958C6.29984 10.547 6.34135 10.5871 6.39373 10.6054L6.45744 10.4288ZM6.26525 9.9327L6.09302 9.85357C6.07131 9.89957 6.06942 9.95226 6.08778 9.99964L6.26525 9.9327ZM6.84042 8.71395L6.69906 8.5887C6.68652 8.60245 6.67614 8.61801 6.66822 8.63476L6.84042 8.71395ZM7.22656 8.28957L7.22213 8.10213C7.16975 8.10332 7.12016 8.12582 7.0852 8.16432L7.22656 8.28957ZM8.20475 8.26695L8.22691 8.08076C8.21811 8.07976 8.20918 8.07932 8.20031 8.07951L8.20475 8.26695ZM8.91478 8.34932L9.07545 8.24932C9.04486 8.20139 8.99395 8.1697 8.93694 8.16313L8.91478 8.34932ZM6.17372 10.0606C6.27846 10.0541 6.35808 9.9652 6.35161 9.86182C6.34509 9.75845 6.25493 9.67989 6.1502 9.68626L6.17372 10.0606ZM4.73223 9.96095L4.72046 9.77382C4.70048 9.77501 4.68081 9.77938 4.66219 9.78663L4.73223 9.96095ZM4.19587 10.1708L4.12583 9.99657C4.04389 10.0286 3.99506 10.1121 4.0079 10.1981L4.19587 10.1708ZM4.27985 10.7342L4.09188 10.7614C4.09911 10.81 4.12536 10.8538 4.16498 10.8835L4.27985 10.7342ZM4.99873 11.2726L4.88385 11.422C4.8902 11.4268 4.89683 11.4311 4.90373 11.435L4.99873 11.2726ZM7.37667 12.6275L7.28167 12.7899C7.30409 12.8026 7.32885 12.8107 7.3545 12.8137L7.37667 12.6275ZM8.0867 12.7098L8.06453 12.8961C8.09005 12.899 8.11589 12.8968 8.14059 12.8896L8.0867 12.7098ZM8.83473 12.4916L8.88856 12.6714C8.95696 12.6515 9.00832 12.5954 9.02143 12.5262L8.83473 12.4916ZM8.93409 11.9683L9.1208 12.0029C9.12504 11.9805 9.12517 11.9576 9.12112 11.9352L8.93409 11.9683ZM8.99027 11.2163C8.97171 11.1144 8.87298 11.0466 8.76968 11.0649C8.66639 11.0832 8.59773 11.1806 8.61623 11.2826L8.99027 11.2163ZM8.98609 12.2329L8.26238 11.8205L8.07238 12.1453L8.79609 12.5576L8.98609 12.2329ZM8.35168 11.9374L8.12229 11.0334L7.75369 11.1246L7.98302 12.0284L8.35168 11.9374ZM4.20122 10.2616L8.17201 12.7817L8.37758 12.4663L4.40677 9.9462L4.20122 10.2616ZM8.42673 12.5114L7.64729 11.4874L7.34342 11.7126L8.12286 12.7366L8.42673 12.5114ZM18.0967 13.2945L17.9796 12.9056L17.6154 13.0124L17.7325 13.4013L18.0967 13.2945ZM17.9307 12.8252L17.4469 12.3563L17.1805 12.6238L17.6643 13.0928L17.9307 12.8252ZM17.4593 12.3696L16.9286 11.745L16.6375 11.9859L17.1681 12.6105L17.4593 12.3696ZM16.9629 11.8049L16.6301 10.8421L16.2704 10.9632L16.6032 11.926L16.9629 11.8049ZM16.6002 10.7875L16.0461 10.0852L15.7463 10.3156L16.3003 11.0179L16.6002 10.7875ZM16.0088 10.0494L14.3643 8.85463L14.139 9.15663L15.7835 10.3514L16.0088 10.0494ZM14.2896 8.82188L13.2411 8.61113L13.1653 8.97863L14.2138 9.18939L14.2896 8.82188ZM13.1503 8.61482L12.3223 8.85189L12.4282 9.21201L13.2562 8.97495L13.1503 8.61482ZM12.289 8.86488L11.5079 9.25751L11.6804 9.59163L12.4614 9.19901L12.289 8.86488ZM11.5059 9.25851L10.6166 9.71832L10.7929 10.0505L11.6823 9.5907L11.5059 9.25851ZM10.5402 9.7907L10.2292 10.3223L10.5583 10.5098L10.8693 9.9782L10.5402 9.7907ZM10.2444 10.3001L9.4673 11.2749L9.76598 11.5068L10.5431 10.5319L10.2444 10.3001ZM9.4521 11.2971L8.80179 12.4086L9.13087 12.5961L9.78118 11.4846L9.4521 11.2971ZM8.78077 12.462L8.65315 13.0337L9.02422 13.1144L9.1519 12.5428L8.78077 12.462ZM8.67931 13.1761L9.15342 13.8973L9.47217 13.6931L8.99806 12.9719L8.67931 13.1761ZM9.20782 13.9515L11.501 15.4513L11.7109 15.1388L9.41777 13.6389L9.20782 13.9515ZM11.5109 15.4574L13.2169 16.4294L13.4069 16.1046L11.7009 15.1326L11.5109 15.4574ZM13.2542 16.4456L14.0111 16.6836L14.1264 16.3263L13.3695 16.0883L13.2542 16.4456ZM13.9602 16.6588L15.408 17.6538L15.6251 17.3461L14.1773 16.3511L13.9602 16.6588ZM17.8817 13.2648L17.1183 14.5697L17.4474 14.7572L18.2108 13.4523L17.8817 13.2648ZM17.1064 14.5941L16.4932 16.1134L16.8462 16.2521L17.4594 14.7328L17.1064 14.5941ZM16.5052 16.089L15.77 17.3455L16.0991 17.533L16.8342 16.2765L16.5052 16.089ZM16.2808 12.0181L15.5716 11.2275L15.287 11.476L15.9962 12.2667L16.2808 12.0181ZM15.5749 11.2313L15.0442 10.6068L14.753 10.8477L15.2836 11.4723L15.5749 11.2313ZM15.05 10.6139L14.6979 10.1556L14.3951 10.3821L14.7472 10.8405L15.05 10.6139ZM14.6414 10.1064L13.5558 9.48795L13.3658 9.8127L14.4514 10.4312L14.6414 10.1064ZM10.63 10.0122L10.0614 9.6882L9.87137 10.013L10.44 10.3369L10.63 10.0122ZM10.1564 9.84932L10.1524 9.26714L9.77237 9.26963L9.77643 9.85188L10.1564 9.84932ZM10.0574 9.10601L9.33366 8.69363L9.14366 9.01845L9.86737 9.43076L10.0574 9.10601ZM9.07412 8.76232L8.81965 9.19726L9.14873 9.38476L9.4032 8.94982L9.07412 8.76232ZM8.79622 9.31826L8.8802 9.88164L9.25615 9.82701L9.17216 9.2637L8.79622 9.31826ZM8.91186 9.96095L9.21232 10.3899L9.52493 10.1766L9.22448 9.7477L8.91186 9.96095ZM8.84163 11.1841L8.32464 10.8896L8.13464 11.2143L8.65163 11.5088L8.84163 11.1841ZM8.29342 10.8753L6.52122 10.2522L6.39373 10.6054L8.16592 11.2286L8.29342 10.8753ZM6.63497 10.3619L6.44275 9.86576L6.08778 9.99964L6.28 10.4958L6.63497 10.3619ZM6.43749 10.0119L7.01269 8.79307L6.66822 8.63476L6.09302 9.85357L6.43749 10.0119ZM6.98178 8.8392L7.36793 8.41482L7.0852 8.16432L6.69906 8.5887L6.98178 8.8392ZM7.231 8.47701L8.20918 8.45445L8.20031 8.07951L7.22213 8.10213L7.231 8.47701ZM8.18258 8.4532L8.89261 8.53557L8.93694 8.16313L8.22691 8.08076L8.18258 8.4532ZM8.75404 8.44938L9.07793 8.95607L9.39934 8.75601L9.07545 8.24932L8.75404 8.44938ZM6.1502 9.68626L4.72046 9.77382L4.74399 10.1481L6.17372 10.0606L6.1502 9.68626ZM4.66219 9.78663L4.12583 9.99657L4.26591 10.3451L4.80227 10.1353L4.66219 9.78663ZM4.0079 10.1981L4.09188 10.7614L4.46783 10.7069L4.38385 10.1436L4.0079 10.1981ZM4.16498 10.8835L4.88385 11.422L5.11359 11.1233L4.39472 10.5848L4.16498 10.8835ZM7.3545 12.8137L8.06453 12.8961L8.10886 12.5236L7.3989 12.4413L7.3545 12.8137ZM8.14059 12.8896L8.88856 12.6714L8.78083 12.3118L8.03286 12.53L8.14059 12.8896ZM9.02143 12.5262L9.1208 12.0029L8.74732 11.9338L8.64796 12.4571L9.02143 12.5262ZM9.12112 11.9352L8.99027 11.2163L8.61623 11.2826L8.74707 12.0015L9.12112 11.9352ZM17.9394 12.952L16.2335 11.9801L16.0435 12.3048L17.7494 13.2768L17.9394 12.952ZM9.20408 10.1895L8.58209 11.2527L8.91117 11.4402L9.53316 10.377L9.20408 10.1895ZM4.90373 11.435L7.28167 12.7899L7.47166 12.4651L5.09373 11.1103L4.90373 11.435Z" fill="#36A0FF"/>
<path id="Vector_2" d="M34.1923 17.2762L34.0866 17.1204C34.0118 17.1698 33.9824 17.2641 34.0161 17.3465L34.1923 17.2762ZM34.7659 16.8975L34.8716 17.0534C34.9383 17.0094 34.9698 16.9288 34.9502 16.852L34.7659 16.8975ZM34.6095 16.2803L34.7939 16.2347L34.7926 16.2302L34.6095 16.2803ZM34.4518 15.7188L34.6349 15.6687C34.6153 15.5988 34.5565 15.5463 34.484 15.534L34.4518 15.7188ZM33.3247 15.5279L33.3568 15.3431C33.3475 15.3415 33.3382 15.3406 33.3287 15.3404L33.3247 15.5279ZM32.9855 15.5208L32.9356 15.7017C32.9505 15.7057 32.966 15.7079 32.9815 15.7083L32.9855 15.5208ZM32.0857 15.2788L32.1357 15.0979C32.1264 15.0954 32.117 15.0936 32.1075 15.0925L32.0857 15.2788ZM30.2802 15.0737L30.3019 14.8874C30.296 14.8867 30.2901 14.8864 30.2842 14.8862L30.2802 15.0737ZM28.9233 15.0454L28.849 15.218C28.8713 15.2273 28.8951 15.2324 28.9193 15.2329L28.9233 15.0454ZM28.3628 14.8105L28.437 14.6379C28.425 14.6329 28.4125 14.629 28.3997 14.6265L28.3628 14.8105ZM26.4477 14.4357L26.4847 14.2517C26.4738 14.2496 26.4628 14.2484 26.4517 14.2482L26.4477 14.4357ZM24.1864 14.3885L24.032 14.4978C24.0669 14.5458 24.1225 14.5747 24.1823 14.576L24.1864 14.3885ZM23.8567 13.9351L24.0111 13.8258C23.9852 13.7902 23.9475 13.7647 23.9046 13.7537L23.8567 13.9351ZM22.6754 13.6314L22.7233 13.45C22.709 13.4463 22.6942 13.4442 22.6794 13.4439L22.6754 13.6314ZM21.8839 13.6149L21.7954 13.7808C21.8215 13.7944 21.8504 13.8017 21.8799 13.8024L21.8839 13.6149ZM20.9889 13.1497L21.0775 12.9839C21.0521 12.9707 21.0241 12.9633 20.9955 12.9624L20.9889 13.1497ZM20.2665 13.125L20.2731 12.9376C20.2698 12.9375 20.2664 12.9375 20.263 12.9375L20.2665 13.125ZM18.9488 13.1492L18.9453 12.9617C18.9265 12.9621 18.9079 12.9652 18.8901 12.9709L18.9488 13.1492ZM21.1028 18.3988L21.0988 18.5862C21.1023 18.5864 21.106 18.5863 21.1095 18.5862L21.1028 18.3988ZM24.1028 18.2939L24.1068 18.1064C24.1031 18.1064 24.0996 18.1064 24.096 18.1065L24.1028 18.2939ZM28.2863 18.3811L28.2823 18.5685C28.2855 18.5686 28.2887 18.5686 28.2918 18.5685L28.2863 18.3811ZM30.5501 18.3167L30.5542 18.1292C30.551 18.1291 30.5478 18.1292 30.5447 18.1292L30.5501 18.3167ZM32.2462 18.352L32.2681 18.1658C32.2622 18.1651 32.2562 18.1647 32.2502 18.1645L32.2462 18.352ZM33.431 18.4884L33.409 18.6746C33.4372 18.6778 33.4657 18.6748 33.4925 18.6657L33.431 18.4884ZM33.9394 18.3167L34.0009 18.494C34.0244 18.4861 34.0462 18.4737 34.0648 18.4575L33.9394 18.3167ZM34.1743 18.1131L34.2997 18.254C34.3222 18.2345 34.3397 18.2101 34.3508 18.1827L34.1743 18.1131ZM34.3535 17.6704L34.53 17.7399C34.5481 17.695 34.548 17.6449 34.5296 17.6001L34.3535 17.6704ZM34.1968 17.8912C34.2579 17.9753 34.3766 17.9945 34.4619 17.9342C34.5471 17.8738 34.5667 17.7567 34.5055 17.6725L34.1968 17.8912ZM34.0215 17.3285L34.1759 17.2192C34.141 17.1712 34.0852 17.1422 34.0255 17.141L34.0215 17.3285ZM33.23 17.312L33.1308 17.4719C33.1595 17.4892 33.1923 17.4987 33.226 17.4994L33.23 17.312ZM32.5599 16.9073L32.6591 16.7474C32.6168 16.7218 32.5661 16.7136 32.5177 16.7245L32.5599 16.9073ZM31.8779 17.0605L31.8739 17.248C31.8894 17.2483 31.9049 17.2467 31.9201 17.2434L31.8779 17.0605ZM29.2773 17.0063L29.2383 17.1898C29.2499 17.1922 29.2615 17.1935 29.2733 17.1937L29.2773 17.0063ZM28.3763 16.82L28.4153 16.6365C28.4038 16.6342 28.3921 16.6329 28.3804 16.6326L28.3763 16.82ZM28.2067 16.8165L28.1902 17.0033C28.1944 17.0037 28.1985 17.0039 28.2027 17.004L28.2067 16.8165ZM21.165 16.0226L21.115 16.2035C21.1199 16.2049 21.1248 16.206 21.1298 16.2069L21.165 16.0226ZM18.8926 15.7974C18.7923 15.828 18.7363 15.933 18.7674 16.0319C18.7984 16.1309 18.9049 16.1862 19.0051 16.1555L18.8926 15.7974ZM34.2979 17.4321L34.8716 17.0534L34.6603 16.7417L34.0866 17.1204L34.2979 17.4321ZM34.9502 16.852L34.7939 16.2347L34.4251 16.3258L34.5816 16.943L34.9502 16.852ZM34.7926 16.2302L34.6349 15.6687L34.2687 15.7689L34.4264 16.3304L34.7926 16.2302ZM34.484 15.534L33.3568 15.3431L33.2926 15.7127L34.4197 15.9036L34.484 15.534ZM33.3287 15.3404L32.9895 15.3334L32.9815 15.7083L33.3207 15.7154L33.3287 15.3404ZM32.1075 15.0925L30.3019 14.8874L30.2584 15.26L32.064 15.465L32.1075 15.0925ZM30.2842 14.8862L28.9274 14.858L28.9193 15.2329L30.2762 15.2612L30.2842 14.8862ZM28.9976 14.8729L28.437 14.6379L28.2885 14.983L28.849 15.218L28.9976 14.8729ZM28.3997 14.6265L26.4847 14.2517L26.4108 14.6195L28.3258 14.9944L28.3997 14.6265ZM24.3407 14.2792L24.0111 13.8258L23.7023 14.0444L24.032 14.4978L24.3407 14.2792ZM23.9046 13.7537L22.7233 13.45L22.6275 13.8129L23.8088 14.1165L23.9046 13.7537ZM22.6794 13.4439L21.8879 13.4274L21.8799 13.8024L22.6714 13.8189L22.6794 13.4439ZM21.9725 13.449L21.0775 12.9839L20.9004 13.3156L21.7954 13.7808L21.9725 13.449ZM20.9955 12.9624L20.2731 12.9376L20.26 13.3124L20.9823 13.3371L20.9955 12.9624ZM20.263 12.9375L18.9453 12.9617L18.9524 13.3367L20.2701 13.3125L20.263 12.9375ZM18.8901 12.9709L17.9913 13.2593L18.1088 13.6159L19.0076 13.3275L18.8901 12.9709ZM18.7534 18.5374L21.0988 18.5862L21.1068 18.2114L18.7615 18.1625L18.7534 18.5374ZM21.1095 18.5862L24.1095 18.4813L24.096 18.1065L21.0961 18.2114L21.1095 18.5862ZM24.0987 18.4814L28.2823 18.5685L28.2904 18.1937L24.1068 18.1064L24.0987 18.4814ZM28.2918 18.5685L30.5556 18.5041L30.5447 18.1292L28.2809 18.1937L28.2918 18.5685ZM32.2242 18.5382L33.409 18.6746L33.453 18.3021L32.2681 18.1658L32.2242 18.5382ZM33.4925 18.6657L34.0009 18.494L33.8779 18.1392L33.3695 18.3109L33.4925 18.6657ZM34.0648 18.4575L34.2997 18.254L34.049 17.9722L33.8141 18.1758L34.0648 18.4575ZM34.3508 18.1827L34.53 17.7399L34.177 17.6008L33.9979 18.0436L34.3508 18.1827ZM34.5296 17.6001L34.3684 17.206L34.0161 17.3465L34.1773 17.7405L34.5296 17.6001ZM33.0355 15.3399L32.8038 15.2776L32.7039 15.6394L32.9356 15.7017L33.0355 15.3399ZM32.8038 15.2776L32.1357 15.0979L32.0358 15.4597L32.7039 15.6394L32.8038 15.2776ZM32.5717 15.5118C32.6386 15.7344 32.7162 16.0756 32.7343 16.3746C32.7433 16.5252 32.7365 16.6527 32.7126 16.7452C32.6879 16.8405 32.6556 16.863 32.6432 16.8684L32.7968 17.2114C32.9644 17.1383 33.0437 16.9815 33.0808 16.8379C33.1186 16.6913 33.1237 16.5198 33.1136 16.3524C33.0932 16.0154 33.0079 15.6444 32.9361 15.4052L32.5717 15.5118ZM30.5461 18.5041L32.016 18.5347L32.0241 18.1599L30.5542 18.1292L30.5461 18.5041ZM32.016 18.5347L32.2422 18.5395L32.2502 18.1645L32.0241 18.1599L32.016 18.5347ZM32.6432 16.8684C32.4294 16.9617 32.0493 17.121 31.8165 17.3659C31.695 17.4938 31.5988 17.6598 31.5992 17.8639C31.5997 18.0664 31.6953 18.2692 31.8781 18.4719L32.162 18.2227C32.0165 18.0614 31.9793 17.9432 31.9792 17.863C31.979 17.7844 32.0144 17.7059 32.0937 17.6224C32.2626 17.4447 32.5607 17.3144 32.7968 17.2114L32.6432 16.8684ZM34.5055 17.6725L34.1759 17.2192L33.8671 17.4377L34.1968 17.8912L34.5055 17.6725ZM34.0255 17.141L33.234 17.1245L33.226 17.4994L34.0175 17.5159L34.0255 17.141ZM33.3292 17.152L32.6591 16.7474L32.4607 17.0672L33.1308 17.4719L33.3292 17.152ZM32.5177 16.7245L31.8358 16.8777L31.9201 17.2434L32.6021 17.0901L32.5177 16.7245ZM31.8819 16.873L29.2813 16.8189L29.2733 17.1937L31.8739 17.248L31.8819 16.873ZM29.3162 16.8228L28.4153 16.6365L28.3374 17.0036L29.2383 17.1898L29.3162 16.8228ZM28.3804 16.6326L28.2108 16.629L28.2027 17.004L28.3723 17.0075L28.3804 16.6326ZM28.2232 16.6297C26.5039 16.4822 22.7032 16.1179 21.2002 15.8384L21.1298 16.2069C22.6554 16.4906 26.4771 16.8563 28.1902 17.0033L28.2232 16.6297ZM21.215 15.8417C20.993 15.782 20.6178 15.7099 20.199 15.6823C19.7821 15.6549 19.3067 15.6706 18.8926 15.7974L19.0051 16.1555C19.3561 16.0481 19.7788 16.0305 20.1738 16.0565C20.5669 16.0823 20.9171 16.1503 21.115 16.2035L21.215 15.8417ZM24.9258 17.1882L24.5253 17.4031L24.7068 17.7325L25.1073 17.5176L24.9258 17.1882ZM25.0041 15.2897L24.6649 15.2826L24.6569 15.6575L24.9961 15.6646L25.0041 15.2897ZM26.4517 14.2482L24.1904 14.201L24.1823 14.576L26.4437 14.6231L26.4517 14.2482ZM15.4258 17.6647C16.4484 18.2139 17.5895 18.5131 18.7534 18.5374L18.7615 18.1625C17.6582 18.1395 16.5767 17.8559 15.6074 17.3354L15.4258 17.6647Z" fill="#36A0FF"/>
<path id="Vector_3" d="M16.1496 20H35.1496V18.4375H16.1496L3.79961 10.9375L2.84961 12.5L16.1496 20Z" stroke="#36A0FF" stroke-width="0.5"/>
</g>
</svg>
