<svg width="20" height="24" viewBox="0 0 20 24" fill="none" xmlns="http://www.w3.org/2000/svg">
<g id="Upright" clip-path="url(#clip0_29505_14624)">
<path id="Vector" d="M12.7272 4.20946C12.7272 4.64697 12.7272 5.08447 12.7272 5.52198C12.7272 5.94738 13.1163 5.79099 13.2824 6.07014C13.4949 6.42696 12.9806 6.62232 12.921 6.8798C12.8447 7.2096 13.0257 7.60918 12.8633 7.92076C12.7251 8.18633 12.5666 8.44234 12.329 8.62475C12.1206 8.78487 11.7982 8.72465 11.5747 8.89637C11.3659 9.0567 11.12 9.07274 10.9566 9.36905C10.7712 9.70511 10.6152 10.0507 10.3699 10.3648M7.46288 9.42964C7.8646 9.04398 8.48354 8.97222 8.48354 8.30341C8.48354 7.83115 8.11083 7.65387 7.77637 7.33279C6.9664 6.55522 6.9749 5.46437 6.9749 4.37079C6.9749 3.18778 8.51241 2.8347 9.47884 2.666C9.63588 2.63856 9.99063 2.52101 10.1337 2.44475C10.4121 2.29624 10.6705 2.55731 10.9142 2.65095C11.298 2.79833 11.679 3.12363 12.119 3.12363C12.7259 3.12363 12.9153 3.01078 12.9153 3.62149C12.9153 3.95305 12.2265 4.14693 11.9724 4.39091C11.6592 4.69144 11.5712 5.08772 11.239 5.40676C11.0999 5.54028 10.9263 5.73065 10.8618 5.90962C10.8131 6.04462 10.8002 6.42999 10.6889 6.51308C10.6403 6.54945 10.0324 6.63422 10.0027 6.59855C9.89933 6.47453 9.94894 6.10498 9.84554 5.9348C9.76918 5.80909 9.44264 5.62956 9.28501 5.66318C9.01893 5.71995 9.04926 6.17505 9.04926 6.36225C9.04926 6.70738 9.25093 6.71878 9.47884 6.92547C9.55278 6.99251 9.74983 7.32168 9.56267 7.37303C9.14797 7.48679 9.13053 8.01167 8.57785 8.01167M7.54053 9.36876C6.68526 10.0497 6.03189 11.0392 6.03189 12.1246C6.03189 12.8669 6.14628 13.7074 5.91662 14.4179C5.6202 15.3348 5.46609 16.051 5.46609 17.0179C5.46609 17.7737 5.34275 18.6519 5.48705 19.3966C5.55915 19.7687 5.71297 20.0782 5.82231 20.4325C5.91266 20.7254 5.84326 21.1421 5.84326 21.4484C5.84326 21.5639 5.83876 21.6817 5.83553 21.8M9.42642 9.82272C10.1498 10.0937 10.6224 10.4667 10.8879 11.1805C11.1147 11.7902 11.5692 12.3388 11.5951 13.011C11.6076 13.3337 11.7642 13.7862 11.8989 14.0771C12.0146 14.3269 12.2551 14.7725 12.2551 15.0326C12.2551 15.7408 12.3495 16.4565 12.3495 17.1749C12.3495 17.4185 12.2205 18.1368 12.3914 18.3316C12.6649 18.6434 12.4845 19.0833 12.6847 19.4128C13.0692 20.0455 12.9595 20.8058 13.1247 21.4998C13.1937 21.7891 13.2924 22.1066 13.2924 22.405C13.2924 22.8208 12.8567 22.677 12.5852 22.8173C12.1024 23.0669 10.4186 22.9284 9.87322 22.9284M5.8563 21.7706C6.3999 22.012 6.92847 22.1668 7.48687 22.3772C7.74534 22.4744 7.82961 22.4431 8.06579 22.542M7.08359 12.8002C6.84913 13.4002 6.89596 15.2794 6.89596 15.8267V16.7215C6.89596 16.8178 6.83616 17.1494 6.9016 17.2364C6.95598 17.3088 7.45136 17.2474 7.5434 17.2474H9.16987C9.50198 17.2474 9.83878 17.272 10.1745 17.272M10.2086 12.4001C10.2053 12.5745 10.2928 13.5474 10.2494 13.7175C10.2103 13.871 10.218 14.0226 10.1854 14.1752C10.1298 14.4342 10.1228 14.686 10.1228 14.9497V16.8662C10.1228 16.9816 10.0823 17.2015 10.1483 17.2966M7.46153 17.5304C7.46153 18.1172 7.49282 18.6887 7.62377 19.2625C7.67207 19.4744 7.72182 19.694 7.75018 19.9127C7.79225 20.2365 7.85212 20.5517 7.90195 20.8745C7.99414 21.4711 8.08984 22.0595 8.27993 22.639C8.37447 22.9275 8.452 23.2237 8.53876 23.5171C8.56734 23.6136 8.57811 23.7132 8.61321 23.8085C8.64429 23.893 8.72028 23.9835 8.72028 24.0742C8.72028 24.4289 8.81422 24.7865 8.97625 25.1062C9.0282 25.2088 9.06968 25.3237 9.09526 25.434C9.13205 25.5923 9.24592 25.7443 9.25596 25.9075C9.25853 25.9491 9.30784 25.9474 9.30953 25.9857C9.31224 26.0468 9.32653 26.1144 9.35115 26.1718C9.39945 26.2843 9.3875 26.3989 9.41066 26.5199C9.43777 26.6611 9.41667 26.8181 9.41667 26.9624C9.41667 27.0321 9.3793 27.9639 9.47024 27.9433M9.68681 17.6137C9.68681 18.9876 9.72909 20.3572 9.72909 21.7338C9.72909 22.2601 9.91318 22.7717 9.94051 23.2966C9.95275 23.5313 10.0043 23.8178 10.058 24.0498C10.0801 24.1453 10.094 24.2389 10.112 24.3339C10.1499 24.5338 10.2485 24.6616 10.3187 24.8413C10.3644 24.9583 10.4593 25.0567 10.4996 25.1728C10.5676 25.3687 10.6007 25.5668 10.6382 25.7682C10.6824 26.0061 10.7016 26.2258 10.7016 26.4672C10.7016 26.8794 10.7465 27.2592 10.4573 27.5677C10.3408 27.6919 10.2712 27.8874 10.1096 27.9736C9.98719 28.0389 9.51621 28.2075 9.47188 27.9736" stroke="#36A0FF" stroke-width="0.5" stroke-linecap="round" stroke-linejoin="round"/>
<path id="Vector_2" d="M9.16699 23.2L9.16699 2.40002" stroke="#36A0FF" stroke-width="0.439686" stroke-dasharray="1.76 1"/>
</g>
<defs>
<clipPath id="clip0_29505_14624">
<rect width="20" height="24" fill="white"/>
</clipPath>
</defs>
</svg>
