<svg width="8" height="22" viewBox="0 0 8 22" fill="none" xmlns="http://www.w3.org/2000/svg">
<g id="Frame 1646" clip-path="url(#clip0_29505_14630)">
<path id="Vector" d="M7.31019 20.1906C7.31019 19.7531 7.31019 19.3156 7.31019 18.878C7.31019 18.4526 7.69931 18.609 7.86544 18.3299C8.07788 17.9731 7.5636 17.7777 7.50402 17.5202C7.42766 17.1904 7.60867 16.7908 7.44635 16.4793C7.30807 16.2137 7.14963 15.9577 6.91206 15.7753C6.70365 15.6152 6.38121 15.6754 6.1577 15.5037C5.94892 15.3433 5.70299 15.3273 5.53958 15.031C5.35425 14.6949 5.19823 14.3493 4.95289 14.0352M2.04589 14.9704C2.44761 15.356 3.06654 15.4278 3.06654 16.0966C3.06654 16.5689 2.69384 16.7462 2.35938 17.0672C1.54941 17.8448 1.55791 18.9357 1.55791 20.0292C1.55791 21.2122 3.09542 21.5653 4.06185 21.734C4.21889 21.7615 4.57364 21.879 4.71669 21.9553C4.99508 22.1038 5.25347 21.8427 5.4972 21.7491C5.88097 21.6017 6.26203 21.2764 6.70201 21.2764C7.30893 21.2764 7.49829 21.3892 7.49829 20.7785C7.49829 20.447 6.80952 20.2531 6.55538 20.0091C6.24225 19.7086 6.15424 19.3123 5.82198 18.9933C5.6829 18.8597 5.50929 18.6694 5.4448 18.4904C5.39615 18.3554 5.38317 17.97 5.27193 17.8869C5.22328 17.8506 4.61541 17.7658 4.58573 17.8015C4.48233 17.9255 4.53194 18.295 4.42854 18.4652C4.35219 18.5909 4.02565 18.7705 3.86802 18.7368C3.60193 18.6801 3.63227 18.225 3.63227 18.0378C3.63227 17.6926 3.83394 17.6812 4.06185 17.4746C4.13579 17.4075 4.33284 17.0783 4.14568 17.027C3.73098 16.9132 3.71354 16.3884 3.16086 16.3884M2.12353 15.0313C1.26827 14.3504 0.614896 13.3608 0.614896 12.2754C0.614896 11.5331 0.729288 10.6927 0.499626 9.98213C0.203204 9.06526 0.0490942 8.34903 0.0490941 7.38214C0.049094 6.62637 -0.0742389 5.74812 0.0700513 5.00347C0.14216 4.63132 0.295977 4.32178 0.405312 3.9675C0.495668 3.67464 0.42627 3.25795 0.42627 2.95165C0.42627 2.83617 0.421768 2.71828 0.418538 2.60002M4.00943 14.5773C4.73279 14.3063 5.20538 13.9333 5.47095 13.2195C5.69775 12.6098 6.15217 12.0612 6.17811 11.389C6.19057 11.0663 6.34724 10.6138 6.48193 10.3229C6.59757 10.0731 6.83815 9.62757 6.83815 9.36742C6.83815 8.6592 6.93246 7.94354 6.93246 7.22512C6.93246 6.9815 6.80349 6.26323 6.97438 6.06843C7.24787 5.75664 7.06752 5.31668 7.26773 4.98723C7.65223 4.3545 7.54253 3.59423 7.7077 2.90023C7.77666 2.61088 7.87537 2.29339 7.87537 1.99504C7.87537 1.57927 7.43972 1.723 7.16821 1.58272C6.68536 1.33312 5.00158 1.47164 4.45623 1.47164M0.439305 2.62943C0.982904 2.38799 1.51148 2.23322 2.06988 2.02287C2.32834 1.92558 2.41262 1.95688 2.6488 1.85804M1.66659 11.5998C1.43214 10.9998 1.47897 9.12064 1.47897 8.57332L1.47897 7.67854C1.47897 7.58223 1.41917 7.2506 1.48461 7.16358C1.53898 7.09126 2.03437 7.15261 2.12641 7.15261L3.75288 7.15261C4.08499 7.15261 4.42179 7.12806 4.75749 7.12806M4.79158 11.9999C4.78836 11.8255 4.87579 10.8527 4.83241 10.6826C4.79328 10.5291 4.80104 10.3774 4.76836 10.2249C4.71281 9.96584 4.70578 9.71406 4.70578 9.45032L4.70578 7.53378C4.70578 7.41847 4.66533 7.19849 4.73136 7.10345M2.04454 6.86959C2.04454 6.28287 2.07583 5.71135 2.20678 5.13751C2.25507 4.92562 2.30483 4.70606 2.33319 4.48734C2.37525 4.16352 2.43512 3.84828 2.48496 3.52552C2.57714 2.92888 2.67285 2.34055 2.86294 1.76107C2.95747 1.47257 3.035 1.17633 3.12177 0.882897C3.15035 0.786448 3.16112 0.686832 3.19622 0.591508C3.22729 0.507018 3.30329 0.416477 3.30329 0.325796C3.30329 -0.0288372 3.39723 -0.386494 3.55925 -0.706164C3.61121 -0.808733 3.65269 -0.923686 3.67826 -1.03399C3.71505 -1.19228 3.82893 -1.34431 3.83897 -1.50745C3.84153 -1.5491 3.89085 -1.54733 3.89254 -1.58568C3.89525 -1.64674 3.90954 -1.71442 3.93416 -1.77182C3.98245 -1.88431 3.97051 -1.99891 3.99366 -2.11984C4.02078 -2.2611 3.99967 -2.41806 3.99967 -2.56234C3.99967 -2.63206 3.9623 -3.56384 4.05324 -3.54323M4.26982 6.78633C4.26982 5.41247 4.3121 4.04282 4.3121 2.66622C4.3121 2.13993 4.49618 1.62835 4.52352 1.10347C4.53575 0.868715 4.58727 0.582249 4.64099 0.350236C4.66312 0.254771 4.67704 0.161137 4.69499 0.0660943C4.73288 -0.133769 4.83152 -0.261595 4.90172 -0.441268C4.94745 -0.55826 5.04227 -0.656679 5.08258 -0.772756C5.15058 -0.96868 5.18371 -1.16679 5.22123 -1.36813C5.26541 -1.60605 5.28461 -1.82575 5.28461 -2.06719C5.28461 -2.47937 5.32953 -2.85919 5.04029 -3.16767C4.92385 -3.29191 4.85423 -3.48741 4.69265 -3.57359C4.5702 -3.63888 4.09922 -3.8075 4.05488 -3.57359" stroke="#36A0FF" stroke-width="0.5" stroke-linecap="round" stroke-linejoin="round"/>
<path id="Vector_2" d="M3.75 1.2L3.75 22" stroke="#36A0FF" stroke-width="0.439686" stroke-dasharray="1.76 1"/>
</g>
<defs>
<clipPath id="clip0_29505_14630">
<rect width="8" height="22" fill="white"/>
</clipPath>
</defs>
</svg>
