<svg width="18" height="23" viewBox="0 0 18 23" fill="none" xmlns="http://www.w3.org/2000/svg">
<g id="Frame 1536">
<path id="Vector" d="M9.16658 11.8369V3.49997C9.16658 1.56706 7.5251 0 5.5 0C3.47499 0 1.83342 1.56706 1.83342 3.49997V11.8367C0.708216 12.7981 0 14.1952 0 15.75C0 18.6496 2.46244 21 5.5 21C8.53756 21 11 18.6496 11 15.75C11 14.1952 10.2918 12.7981 9.16658 11.8369ZM5.5 19.25C3.47499 19.25 1.83342 17.683 1.83342 15.75C1.83342 14.7394 2.28195 13.802 3.05598 13.1408L3.66676 12.6191V3.49997C3.66676 2.53342 4.48754 1.75003 5.5 1.75003C6.51264 1.75003 7.33342 2.53342 7.33342 3.49997V12.6191L7.94402 13.1408C8.71814 13.802 9.16676 14.7394 9.16676 15.75C9.16657 17.683 7.5251 19.25 5.5 19.25Z" fill="#36A0FF"/>
<path id="Vector_2" d="M6 5.84615C6 5.37882 5.77615 5 5.5 5C5.22385 5 5 5.37882 5 5.84615V16H6V5.84615Z" fill="#36A0FF"/>
<path id="Vector_3" d="M5.49992 18C6.88058 18 8 16.8807 8 15.5C8 14.1192 6.88058 13 5.49992 13C4.11925 13 3 14.1192 3 15.5C3 16.8807 4.11925 18 5.49992 18Z" fill="#36A0FF"/>
<path id="Vector_4" d="M15.1087 2.25745H13.9788L13.9728 1.68825H14.9214C15.0885 1.68825 15.2256 1.66892 15.3323 1.63025C15.439 1.58969 15.5185 1.53169 15.5709 1.45614C15.6254 1.3788 15.6525 1.28487 15.6525 1.17433C15.6525 1.04908 15.6263 0.94778 15.574 0.870347C15.5236 0.793008 15.4441 0.736796 15.3353 0.701805C15.2286 0.666814 15.0906 0.649365 14.9214 0.649365H14.293V4.02314H13.3867V0H14.9214C15.1772 0 15.4058 0.02207 15.6072 0.0663042C15.8106 0.110538 15.9828 0.177786 16.1239 0.268046C16.2648 0.358307 16.3726 0.472523 16.4471 0.610601C16.5216 0.746982 16.5588 0.909017 16.5588 1.09699C16.5588 1.2627 16.5176 1.41568 16.435 1.55565C16.3545 1.69561 16.2266 1.80983 16.0513 1.8983C15.8781 1.98667 15.6515 2.03553 15.3716 2.04467L15.1087 2.25745ZM15.0695 4.02314H13.731L14.0845 3.3766H15.0695C15.2286 3.3766 15.3585 3.3535 15.4591 3.30747C15.5599 3.25956 15.6344 3.19514 15.6827 3.11403C15.7311 3.03301 15.7552 2.94002 15.7552 2.83495C15.7552 2.71705 15.733 2.61481 15.6888 2.52823C15.6465 2.44165 15.5781 2.37535 15.4834 2.32932C15.3887 2.28141 15.2638 2.25745 15.1087 2.25745H14.2356L14.2417 1.68825H15.3292L15.5377 1.91207C15.8056 1.90839 16.0211 1.95168 16.1843 2.04194C16.3494 2.13041 16.4692 2.24547 16.5438 2.38732C16.6203 2.52918 16.6586 2.68112 16.6586 2.84325C16.6586 3.1012 16.5971 3.31851 16.4743 3.49535C16.3515 3.6704 16.1712 3.80206 15.9335 3.89053C15.6979 3.9789 15.4099 4.02314 15.0695 4.02314ZM17 7.57658V7.7672C17 8.07297 16.9546 8.34752 16.864 8.59067C16.7733 8.83382 16.6455 9.04103 16.4804 9.2124C16.3152 9.38179 16.1178 9.51166 15.8881 9.60192C15.6605 9.69219 15.4078 9.73736 15.1299 9.73736C14.8539 9.73736 14.6012 9.69219 14.3715 9.60192C14.1439 9.51166 13.9466 9.38179 13.7794 9.2124C13.6122 9.04103 13.4823 8.83382 13.3897 8.59067C13.2991 8.34752 13.2538 8.07297 13.2538 7.7672V7.57658C13.2538 7.26893 13.2991 6.99447 13.3897 6.75311C13.4803 6.50997 13.6082 6.30275 13.7734 6.13148C13.9406 5.9601 14.138 5.82929 14.3655 5.73903C14.5951 5.64877 14.8479 5.60368 15.1238 5.60368C15.4018 5.60368 15.6546 5.64877 15.8822 5.73903C16.1117 5.82929 16.3091 5.9601 16.4743 6.13148C16.6414 6.30275 16.7703 6.50997 16.861 6.75311C16.9536 6.99447 17 7.26893 17 7.57658ZM16.0846 7.7672V7.57102C16.0846 7.35739 16.0634 7.16942 16.0211 7.00739C15.9788 6.84526 15.9164 6.70897 15.8338 6.59843C15.7512 6.4879 15.6505 6.40499 15.5316 6.34972C15.4128 6.29257 15.2769 6.26408 15.1238 6.26408C14.9708 6.26408 14.8349 6.29257 14.716 6.34972C14.5991 6.40499 14.4995 6.4879 14.4169 6.59843C14.3364 6.70897 14.2749 6.84526 14.2326 7.00739C14.1903 7.16942 14.1691 7.35739 14.1691 7.57102V7.7672C14.1691 7.97903 14.1903 8.167 14.2326 8.33092C14.2749 8.49305 14.3373 8.63028 14.4199 8.74261C14.5025 8.85315 14.6031 8.937 14.722 8.99406C14.8408 9.05121 14.9769 9.0797 15.1299 9.0797C15.2829 9.0797 15.4189 9.05121 15.5377 8.99406C15.6565 8.937 15.7562 8.85315 15.8368 8.74261C15.9174 8.63028 15.9788 8.49305 16.0211 8.33092C16.0634 8.167 16.0846 7.97903 16.0846 7.7672ZM14.7371 15.341H13.7794L13.7855 14.6945H14.7371C14.9748 14.6945 15.1752 14.6457 15.3383 14.548C15.5014 14.4485 15.6244 14.3039 15.707 14.1142C15.7915 13.9244 15.8338 13.6951 15.8338 13.4262V13.23C15.8338 13.0237 15.8097 12.8422 15.7613 12.6857C15.715 12.5291 15.6455 12.3974 15.5528 12.2905C15.4602 12.1836 15.3463 12.1036 15.2115 12.0501C15.0765 11.9948 14.9214 11.9673 14.7462 11.9673H13.7612V11.3179H14.7462C15.0403 11.3179 15.3091 11.3639 15.5528 11.4561C15.7985 11.5463 16.0111 11.6762 16.1903 11.8456C16.3695 12.0151 16.5075 12.2178 16.6042 12.4536C16.7029 12.6875 16.7522 12.9482 16.7522 13.2355V13.4262C16.7522 13.7117 16.7029 13.9723 16.6042 14.2081C16.5075 14.4439 16.3695 14.6466 16.1903 14.8161C16.013 14.9837 15.8006 15.1136 15.5528 15.2056C15.3071 15.2959 15.0352 15.341 14.7371 15.341ZM14.293 11.3179V15.341H13.3867V11.3179H14.293ZM13.9909 16.9769L14.9093 18.8116L15.8277 16.9769H16.8157L15.3685 19.5356V21H14.4501V19.5356L13 16.9769H13.9909Z" fill="#36A0FF"/>
</g>
</svg>
