<svg width="15" height="19" viewBox="0 0 15 19" fill="none" xmlns="http://www.w3.org/2000/svg">
<path id="image 1 (Traced)" fill-rule="evenodd" clip-rule="evenodd" d="M6.12171 5.35362C6.12171 0.540618 6.12625 0.501702 6.73082 0.176993C7.16448 -0.0558693 13.8071 -0.0603675 14.3017 0.171867C14.4366 0.235235 14.5454 0.285002 14.6333 0.357698C15.0036 0.664232 15 1.37844 15 5.23897C15 9.86451 14.9925 9.93397 14.4486 10.311C14.3191 10.4008 14.0367 10.4743 13.821 10.4743H13.4289L13.3954 12.8542C13.362 15.2193 13.3599 15.2377 13.0652 15.8318C12.8996 16.1653 12.5583 16.6128 12.293 16.8439C11.4739 17.5575 11.1738 17.6178 8.18749 17.6676L5.5499 17.7116L5.14689 18.1648C4.60901 18.7695 3.98848 19 2.89804 19C2.18503 19 1.95757 18.9539 1.44728 18.7058C0.686497 18.3361 0.361382 17.9073 0.361382 17.2739C0.361382 16.258 1.405 15.5479 2.89804 15.5479C3.9944 15.5479 4.60848 15.7777 5.15545 16.3927L5.56702 16.8555H8.15674C11.0708 16.8555 11.2251 16.8257 11.9332 16.1249C12.5844 15.4804 12.685 14.9803 12.6506 12.5579L12.6219 10.5266L11.0315 10.4978L9.44102 10.4691L9.32878 11.2301C9.11971 12.6467 8.38799 13.674 7.19936 14.2194C6.70038 14.4484 6.44354 14.4962 5.69893 14.4987C4.94512 14.5012 4.70498 14.4574 4.20653 14.2261C2.95004 13.643 2.1641 12.5413 2.036 11.1836C1.97089 10.4936 1.96286 10.4785 1.60096 10.3603C1.10314 10.1977 0.423848 9.57328 0.188679 9.06205C-0.185267 8.24954 0.010901 7.15448 0.650772 6.48184C1.51852 5.56954 3.133 5.51817 4.04397 6.37388C5.36187 7.61194 4.84386 9.87978 3.12613 10.3921L2.72005 10.5132L2.7916 11.0952C2.98671 12.6821 4.14184 13.7607 5.64608 13.7606C6.48962 13.7606 7.00985 13.5695 7.58208 13.0496C8.19109 12.4963 8.55024 11.7456 8.55161 11.0235L8.55267 10.4743H7.69654C6.86389 10.4743 6.83059 10.4646 6.48106 10.1186L6.12171 9.76293V5.35362ZM4.00782 8.12056C4.00782 7.46444 3.70713 6.95436 3.16016 6.68238C2.39811 6.30337 1.55446 6.53163 1.00527 7.26516C0.700237 7.67262 0.698546 8.56714 1.0021 8.96947C2.02215 10.3218 4.00782 9.76095 4.00782 8.12056ZM2.0657 8.25341C1.97026 8.1034 2.0398 7.98268 2.47315 7.54729C3.01303 7.00489 3.25666 6.91357 3.47375 7.17237C3.63515 7.36485 3.52036 7.57753 2.97097 8.10434C2.5335 8.52383 2.26578 8.56797 2.0657 8.25341ZM13.821 2.375C13.821 0.475 11.9613 0.633333 11.0315 0.95C10.7967 0.971483 10.6993 0.97891 10.6993 0.986294C10.6993 1.01964 12.6867 1.05213 12.9796 2.375C13.096 4.11667 13.1875 7.79 12.6219 8.55C12.2487 9.05148 11.0338 9.1662 10.3882 9.22717C9.81082 9.2817 9.68877 9.29323 11.0315 9.5C13.3067 9.85036 13.8392 8.15609 13.821 7.26516V2.375Z" fill="#36A0FF"/>
</svg>
