<svg width="22" height="16" viewBox="0 0 22 16" fill="none" xmlns="http://www.w3.org/2000/svg">
<path id="Exclude" fill-rule="evenodd" clip-rule="evenodd" d="M15.0103 0.272705C17.579 0.272705 19.6611 2.44321 19.6611 5.12074C19.6611 6.5141 19.0966 7.76931 18.1936 8.65345H18.1956L17.633 9.2146C16.9452 9.20818 16.8453 9.20163 16.8338 9.18677C16.8252 9.17692 16.8097 9.16216 16.7976 9.15354C16.777 9.13877 16.4207 8.82003 16.3208 8.72896C16.1642 8.58498 15.8371 8.29454 15.7855 8.25393C15.7304 8.20963 15.7149 8.20471 15.6426 8.20471C15.6264 8.20471 15.6129 8.20454 15.5995 8.20593C15.5232 8.21388 15.4523 8.27244 14.9265 8.70066C14.6666 8.9111 14.4617 9.0797 14.3481 9.17323C14.2896 9.22123 14.2225 9.27415 14.1966 9.29014L14.1519 9.31968L13.7784 9.30491C13.5718 9.29753 13.2619 9.29014 13.0898 9.28768H13.0898C12.7782 9.28522 12.7782 9.28522 12.7318 9.31599C12.7059 9.33322 12.6749 9.36029 12.6629 9.37752C12.6388 9.41321 12.6113 9.56704 12.5854 9.82671C12.5751 9.92762 12.5596 10.0445 12.5493 10.0851C12.5407 10.1258 12.5252 10.2304 12.5149 10.319C12.5103 10.3572 12.5048 10.4019 12.4995 10.4454C12.4926 10.5013 12.486 10.5551 12.4822 10.5897C12.4546 10.7903 12.4322 10.9688 12.4064 11.178C12.3926 11.2924 12.3789 11.3884 12.3737 11.3909C12.3565 11.4032 12.329 11.274 12.3203 11.1435C12.3152 11.0684 12.298 10.9023 12.2842 10.7743C12.2687 10.6451 12.2498 10.4679 12.2412 10.3805C12.2353 10.3204 12.2263 10.2377 12.2184 10.1653C12.2147 10.131 12.2112 10.099 12.2085 10.0728C12.1723 9.74426 12.1344 9.38737 12.1189 9.23599C12.1103 9.14739 12.1 9.04524 12.0948 9.00832C12.0914 8.9714 12.0759 8.81634 12.0604 8.66374C12.0449 8.51114 12.026 8.34623 12.0157 8.297C12.0071 8.24778 12.0002 8.16409 12.0002 8.10994C12.0002 8.05703 11.9933 7.98688 11.9847 7.95365C11.9743 7.92165 11.9589 7.79244 11.9485 7.66691C11.9382 7.54138 11.9227 7.39493 11.9141 7.34079C11.9038 7.28664 11.8883 7.15619 11.8797 7.05158C11.8418 6.64177 11.828 6.49656 11.8022 6.29473C11.7867 6.17905 11.7678 5.99445 11.7575 5.88246C11.7488 5.77047 11.7351 5.61294 11.7247 5.53172C11.7217 5.50308 11.7174 5.4628 11.7125 5.41689C11.7034 5.3326 11.6924 5.22931 11.6834 5.14406L11.6798 5.11278C11.6656 4.99196 11.652 4.87704 11.6473 4.84871C11.6387 4.78348 11.6284 4.6838 11.6043 4.40567C11.5939 4.29368 11.5784 4.15831 11.5698 4.10416C11.5612 4.05001 11.5492 3.94171 11.544 3.86418C11.5302 3.67958 11.5113 3.62667 11.4373 3.58113C11.3701 3.53806 11.3082 3.53437 11.2376 3.5676C11.1533 3.60698 11.1378 3.63528 11.1205 3.78173C11.116 3.82216 11.1095 3.87538 11.1031 3.92766C11.0975 3.97403 11.0919 4.01965 11.0878 4.05493C11.0775 4.12877 11.0637 4.27153 11.0586 4.37244C11.0534 4.47213 11.0414 4.55704 11.0328 4.56073C11.0259 4.56443 11.019 4.61734 11.019 4.67765C11.019 4.78225 11.0104 4.87209 10.9673 5.24252C10.957 5.32743 10.9398 5.4788 10.9312 5.58095C10.9226 5.66475 10.914 5.7579 10.9094 5.80822C10.9085 5.81849 10.9077 5.82697 10.9071 5.83323C10.903 5.86226 10.8958 5.94911 10.8878 6.04414C10.8857 6.06997 10.8835 6.0964 10.8813 6.12244C10.8709 6.24427 10.8555 6.39933 10.8451 6.46702C10.8365 6.53471 10.8141 6.7673 10.7952 6.98389C10.7763 7.20049 10.7487 7.47739 10.735 7.59922C10.7212 7.72106 10.7023 7.90689 10.6919 8.01149C10.6891 8.04012 10.6859 8.07317 10.6825 8.10803C10.6735 8.20053 10.6633 8.30571 10.6558 8.37454C10.6507 8.43035 10.6432 8.50624 10.6362 8.5778C10.6313 8.62773 10.6266 8.67554 10.6231 8.71297C10.6204 8.73655 10.6175 8.76293 10.6145 8.79033C10.6058 8.86874 10.5963 8.95543 10.5886 9.00832C10.58 9.0797 10.568 9.18554 10.5628 9.24461L10.5508 9.35168L10.5043 9.32706C10.4716 9.30983 10.3786 9.2926 10.191 9.27045L9.92419 9.23846L9.89321 9.188C9.87599 9.15969 9.81574 9.05755 9.75894 8.9591C9.70213 8.86064 9.64533 8.76342 9.63328 8.74373C9.62929 8.73681 9.62229 8.7249 9.61345 8.70987C9.59559 8.6795 9.57024 8.6364 9.54721 8.59605C9.51278 8.53452 9.47147 8.46314 9.45426 8.43607C9.43704 8.40899 9.41811 8.37454 9.41122 8.35977C9.39573 8.32654 9.30966 8.27239 9.25285 8.26255C9.14957 8.24409 9.04457 8.31177 8.99121 8.43238C8.96194 8.49883 8.87415 8.67728 8.70201 9.02678C8.68391 9.06192 8.65997 9.11235 8.64042 9.15352C8.63395 9.16714 8.62797 9.17975 8.62283 9.19046C8.6039 9.23353 8.57807 9.27168 8.56775 9.27414C8.55742 9.27661 8.40594 9.27415 8.2338 9.26799C7.76042 9.25076 7.75181 9.25568 7.64681 9.52397C7.63648 9.54981 7.62615 9.53874 7.57451 9.44644C7.54181 9.38613 7.49189 9.31722 7.46262 9.2926L7.40754 9.2483L6.99613 9.25199C6.73377 9.25482 6.64565 9.25888 6.56114 9.24331C6.49872 9.23181 6.43827 9.20961 6.31102 9.16831C6.29554 9.16339 6.27815 9.15792 6.26075 9.15246C6.22593 9.14151 6.19111 9.13057 6.17159 9.124C6.14405 9.11539 6.06659 9.09078 6.00118 9.06986L5.99191 9.06689C5.92831 9.04655 5.85333 9.02257 5.82215 9.01202C5.78772 9.00217 5.70166 8.97263 5.63108 8.94802C5.45378 8.88649 5.3591 8.88772 5.19213 8.95171C5.01827 9.0194 4.78244 9.10801 4.47948 9.21877L4.4361 9.23468L3.85341 8.65345H3.85464C2.95174 7.76918 2.38691 6.51397 2.38691 5.12074C2.38691 2.44321 4.46896 0.272705 7.03767 0.272705C8.72971 0.272705 10.2105 1.21479 11.0241 2.62308C11.8378 1.21479 13.3183 0.272705 15.0103 0.272705ZM4.67075 9.46874C4.61018 9.49167 4.55191 9.51386 4.49669 9.53504L4.31595 9.60273L2.71163 9.59289L1.1073 9.58427L1.06427 9.63103C1.01435 9.68764 0.981644 9.7098 0.88869 9.74795C0.787128 9.78979 0.575399 9.78979 0.460067 9.74672C0.37572 9.71595 0.286208 9.64703 0.244895 9.58058C0.232845 9.55966 0.215632 9.53381 0.207025 9.52274C0.169154 9.46982 0.21391 9.33568 0.293094 9.25568C0.387769 9.16092 0.549579 9.11047 0.725159 9.12277C0.850819 9.13016 0.945495 9.16585 1.03501 9.23846L1.1073 9.29753L1.78897 9.30491C2.16595 9.30983 2.86483 9.31353 3.34337 9.31476L4.21439 9.31599L4.4361 9.23468L4.67075 9.46874ZM4.67075 9.46874C4.84244 9.40375 5.0327 9.33279 5.22484 9.26184L5.41247 9.19169L5.6328 9.26061C5.75502 9.29876 5.94781 9.36152 6.06487 9.4009C6.18192 9.44028 6.33512 9.49074 6.4057 9.51289L6.5348 9.5535L6.86358 9.54489L7.19409 9.53627L7.27499 9.67534C7.31975 9.75164 7.36967 9.83655 7.38688 9.86363C7.40238 9.8907 7.43336 9.94362 7.45574 9.98054C7.54181 10.1331 7.62271 10.1811 7.74837 10.1541C7.86542 10.1295 7.90674 10.0753 7.95666 9.88209C7.9842 9.77502 8.00658 9.69011 8.02896 9.62365C8.04961 9.55843 8.05305 9.55596 8.10986 9.55104C8.14257 9.54858 8.28716 9.5535 8.42831 9.56212C8.67619 9.57565 8.68996 9.57565 8.76743 9.55227C8.87415 9.51904 8.9103 9.47474 9.01186 9.26061C9.05662 9.16585 9.09793 9.0797 9.10309 9.06986C9.1073 9.06385 9.1192 9.03904 9.13488 9.00635C9.14489 8.98548 9.15643 8.9614 9.16851 8.93694C9.19777 8.87418 9.22875 8.82249 9.23736 8.82249C9.24941 8.82249 9.31138 8.92341 9.48868 9.23599C9.58852 9.40952 9.59196 9.41444 9.66082 9.4649C9.7159 9.50428 9.74 9.51166 9.85878 9.5252C10.2478 9.5695 10.2736 9.57319 10.2926 9.59165C10.3098 9.60642 10.3597 9.67042 10.4699 9.8144C10.5508 9.92024 10.611 9.95593 10.7126 9.95593C10.8727 9.95593 10.914 9.89809 10.9329 9.64826C10.945 9.49074 10.9656 9.26922 10.9914 9.02063C10.9966 8.97633 11.0087 8.85449 11.0173 8.74989L11.0517 8.39915C11.0603 8.31054 11.0775 8.13087 11.0878 7.99919C11.0982 7.86751 11.1137 7.73583 11.1223 7.70629C11.1326 7.67798 11.1395 7.60168 11.1395 7.53769C11.1395 7.4737 11.1464 7.38386 11.1567 7.33832C11.1653 7.29156 11.1825 7.16357 11.1928 7.05158C11.2032 6.93959 11.2187 6.77961 11.2273 6.69469C11.2359 6.60978 11.2496 6.46087 11.2583 6.36241C11.2927 5.9846 11.3116 5.8 11.3237 5.74093C11.3356 5.68232 11.3357 5.68308 11.3492 5.79369L11.3495 5.79631C11.363 5.90578 11.387 6.13596 11.402 6.2804C11.4042 6.3016 11.4063 6.32095 11.408 6.3378C11.427 6.53224 11.4511 6.75253 11.4752 6.93467C11.4889 7.04297 11.501 7.16972 11.501 7.21772C11.501 7.26448 11.5079 7.34571 11.5182 7.39616C11.5268 7.44662 11.5423 7.57953 11.5526 7.69152C11.5629 7.80351 11.5784 7.94134 11.587 7.99919C11.5974 8.05703 11.6111 8.20347 11.6215 8.32531C11.6404 8.55913 11.6507 8.67235 11.7075 9.156C11.7265 9.32214 11.7488 9.54612 11.7592 9.65442C11.7678 9.76272 11.7798 9.8784 11.785 9.91039C11.797 9.98546 11.8401 10.3497 11.8625 10.5836C11.8934 10.8998 11.9141 11.0906 11.9313 11.2358C11.964 11.4893 11.9847 11.6813 12.0002 11.8573C12.0015 11.8717 12.0028 11.8866 12.0042 11.9017C12.0118 11.9857 12.0199 12.075 12.0243 12.1157L12.0249 12.1216C12.0308 12.1744 12.0472 12.3231 12.0604 12.4603C12.0759 12.6018 12.0948 12.7606 12.1035 12.811C12.1138 12.8615 12.1207 12.9563 12.1207 13.0203C12.1207 13.1482 12.1534 13.2553 12.2016 13.2935C12.2188 13.307 12.2601 13.3292 12.2945 13.3415L12.3582 13.3636L12.4271 13.3279C12.4667 13.3082 12.5063 13.2799 12.5166 13.2664C12.539 13.2369 12.5579 13.1261 12.594 12.811C12.6078 12.6855 12.6319 12.5058 12.6457 12.4111C12.6595 12.3163 12.6836 12.1416 12.6973 12.0234C12.7111 11.9053 12.7266 11.7835 12.7318 11.7527C12.7817 11.4216 12.8368 11.018 12.8591 10.8112L12.8615 10.7924C12.8726 10.7049 12.8932 10.5431 12.9108 10.4174C12.9167 10.3748 12.9218 10.3378 12.9263 10.305C12.9523 10.1174 12.9591 10.0683 12.9796 9.89439C12.9826 9.86961 12.9858 9.84305 12.9889 9.81669C12.9966 9.75273 13.004 9.68999 13.0089 9.65688L13.0209 9.57442H13.1518C13.2241 9.57442 13.5029 9.58058 13.7732 9.58796C14.2087 9.60027 14.2707 9.59904 14.3257 9.58181C14.3671 9.5695 14.4531 9.51043 14.5753 9.41198C14.6223 9.3739 14.661 9.3425 14.6935 9.31618C14.8382 9.19878 14.8582 9.18254 14.93 9.12524C14.973 9.09078 15.0263 9.0477 15.0487 9.02678C15.0635 9.01376 15.0941 8.9889 15.1266 8.96252C15.1432 8.94901 15.1604 8.9351 15.1761 8.92218C15.2243 8.88526 15.3431 8.78927 15.4412 8.70927L15.6202 8.56406L15.6564 8.58867C15.6753 8.60344 15.7269 8.64774 15.77 8.68835C15.8457 8.76096 16.3742 9.23107 16.4448 9.29137C16.4654 9.3086 16.5085 9.34675 16.5412 9.37752C16.5739 9.40829 16.6238 9.44644 16.653 9.46367L16.7081 9.49443L17.3489 9.49799L11.505 15.3271C11.3839 15.4614 11.2126 15.5454 11.0224 15.5454C10.8171 15.5454 10.6339 15.448 10.5117 15.295L4.67075 9.46874ZM17.3489 9.49799L17.633 9.2146C17.9704 9.21775 18.4492 9.22087 19.1284 9.22492C20.4607 9.2323 20.6897 9.23107 20.7069 9.2163C20.8704 9.07109 20.9513 9.03909 21.151 9.03909C21.2732 9.03909 21.2973 9.04278 21.3593 9.07232C21.4918 9.13508 21.5418 9.18308 21.6209 9.31968C21.6502 9.37383 21.6433 9.40213 21.5745 9.50059C21.5263 9.5695 21.4901 9.60273 21.4247 9.63842C21.2836 9.71472 21.0718 9.72949 20.9169 9.67288C20.8584 9.65196 20.7516 9.57689 20.7172 9.53381C20.7034 9.51781 20.4728 9.51412 18.7049 9.50551L17.3489 9.49799Z" fill="#36A0FF"/>
</svg>
