<svg width="18" height="18" viewBox="0 0 18 18" fill="none" xmlns="http://www.w3.org/2000/svg">
<path id="Vector" d="M17.4417 13.372C16.8475 10.5856 15.9051 7.91732 14.6447 5.45404C14.0382 4.26918 13.6557 3.29031 12.4498 3.29031C11.3889 3.29031 10.529 4.29866 10.529 5.54246V7.60268L9.62748 6.85139C9.56742 6.80131 9.51817 6.73347 9.48412 6.65389C9.45006 6.57431 9.43225 6.48546 9.43226 6.3952V0.548386C9.43226 0.245403 9.23594 0 8.99355 0H8.55484C8.31245 0 8.11613 0.245403 8.11613 0.548386V6.3952C8.11613 6.57857 8.04292 6.7496 7.9209 6.85139L7.01936 7.60268V5.54246C7.01936 4.29866 6.15948 3.29031 5.09863 3.29031C3.89273 3.29031 3.51023 4.26918 2.90371 5.45404C1.64324 7.91732 0.700839 10.5856 0.106661 13.372C0.0356452 13.7042 0 14.0452 0 14.3876C0 16.4862 1.71316 18.0014 3.434 17.425L5.06545 16.8783C6.222 16.491 7.01936 15.2513 7.01936 13.8409V10.8423L4.66568 12.8038C4.64172 12.8238 4.61485 12.8376 4.58659 12.8446C4.55834 12.8516 4.52926 12.8516 4.50102 12.8445C4.47278 12.8375 4.44593 12.8235 4.422 12.8035C4.39808 12.7834 4.37755 12.7577 4.3616 12.7277L4.11811 12.2715C4.10212 12.2416 4.09102 12.208 4.08542 12.1726C4.07983 12.1373 4.07986 12.101 4.08551 12.0657C4.09116 12.0304 4.10233 11.9968 4.11837 11.9669C4.13441 11.937 4.15501 11.9113 4.17898 11.8914L8.77419 8.0623L13.3694 11.8914C13.3934 11.9114 13.414 11.937 13.43 11.9669C13.446 11.9968 13.4572 12.0304 13.4629 12.0657C13.4685 12.101 13.4685 12.1373 13.4629 12.1726C13.4574 12.208 13.4463 12.2415 13.4303 12.2715L13.1868 12.7277C13.1708 12.7577 13.1503 12.7834 13.1264 12.8034C13.1025 12.8235 13.0756 12.8374 13.0474 12.8445C13.0191 12.8516 12.99 12.8516 12.9618 12.8446C12.9335 12.8376 12.9067 12.8238 12.8827 12.8038L10.529 10.8423V13.8409C10.529 15.2513 11.3264 16.4906 12.4829 16.8783L14.1144 17.425C15.8352 18.0014 17.5484 16.4862 17.5484 14.3876C17.5484 14.0452 17.5127 13.7042 17.4417 13.372Z" fill="#36A0FF"/>
</svg>
