<svg width="36" height="15" viewBox="0 0 36 15" fill="none" xmlns="http://www.w3.org/2000/svg">
<path id="Vector" d="M4.12473 10.8839C3.27168 10.8839 2.49892 10.7785 1.80645 10.5677C1.11398 10.347 0.511828 10.0358 0 9.63441L0.526882 8.4C0.8681 8.66093 1.21935 8.8767 1.58065 9.04731C1.95197 9.21792 2.34337 9.34839 2.75484 9.43871C3.17634 9.519 3.63297 9.55914 4.12473 9.55914C4.96774 9.55914 5.58495 9.4086 5.97634 9.10753C6.37778 8.80645 6.57849 8.41004 6.57849 7.91828C6.57849 7.49677 6.43799 7.17061 6.15699 6.93979C5.88602 6.70896 5.4043 6.5233 4.71183 6.3828L3.07097 6.05161C2.09749 5.8509 1.36989 5.52473 0.888172 5.07312C0.416487 4.61147 0.180645 3.98423 0.180645 3.1914C0.180645 2.5491 0.351254 1.9871 0.692473 1.50538C1.03369 1.02366 1.50538 0.65233 2.10753 0.391399C2.71971 0.130466 3.43226 0 4.24516 0C4.99785 0 5.69032 0.110394 6.32258 0.331184C6.95484 0.541936 7.48674 0.858065 7.91828 1.27957L7.40645 2.46882C6.95484 2.07742 6.47312 1.7914 5.96129 1.61075C5.44946 1.42007 4.86738 1.32473 4.21505 1.32473C3.44229 1.32473 2.83513 1.48531 2.39355 1.80645C1.96201 2.1276 1.74624 2.56416 1.74624 3.11613C1.74624 3.55771 1.88172 3.90394 2.15269 4.15484C2.43369 4.40574 2.89534 4.59642 3.53763 4.72688L5.17849 5.04301C6.19211 5.25376 6.93979 5.57993 7.42151 6.02151C7.90323 6.45305 8.14408 7.05018 8.14408 7.8129C8.14408 8.42509 7.97849 8.96201 7.64731 9.42366C7.32616 9.88531 6.86452 10.2466 6.26237 10.5075C5.66021 10.7584 4.94767 10.8839 4.12473 10.8839ZM10.1836 14V4.9828C10.1836 4.69176 10.1685 4.3957 10.1384 4.09462C10.1183 3.78351 10.0932 3.4724 10.0631 3.16129H11.5384L11.6889 4.87742H11.5234C11.6839 4.30538 12.0051 3.85376 12.4868 3.52258C12.9786 3.1914 13.5606 3.02581 14.233 3.02581C14.9054 3.02581 15.4925 3.18638 15.9943 3.50753C16.4961 3.81864 16.8825 4.26523 17.1535 4.84731C17.4345 5.42939 17.575 6.1319 17.575 6.95484C17.575 7.76774 17.4345 8.47025 17.1535 9.06237C16.8825 9.65448 16.4961 10.1061 15.9943 10.4172C15.4925 10.7283 14.9054 10.8839 14.233 10.8839C13.5707 10.8839 12.9936 10.7233 12.5018 10.4022C12.0201 10.071 11.699 9.62437 11.5384 9.06237H11.704V14H10.1836ZM13.8567 9.69462C14.5191 9.69462 15.0459 9.4638 15.4373 9.00215C15.8388 8.5405 16.0395 7.85806 16.0395 6.95484C16.0395 6.05161 15.8388 5.37419 15.4373 4.92258C15.0459 4.46093 14.5191 4.23011 13.8567 4.23011C13.1943 4.23011 12.6624 4.46093 12.261 4.92258C11.8696 5.37419 11.6739 6.05161 11.6739 6.95484C11.6739 7.85806 11.8696 8.5405 12.261 9.00215C12.6624 9.4638 13.1943 9.69462 13.8567 9.69462ZM19.382 5.43441C19.382 4.32043 19.5777 3.35699 19.9691 2.54409C20.3605 1.73118 20.9275 1.10394 21.6702 0.662367C22.4229 0.220788 23.3161 0 24.3498 0C25.3734 0 26.2566 0.220788 26.9992 0.662367C27.7419 1.10394 28.3139 1.73118 28.7154 2.54409C29.1268 3.35699 29.3326 4.31541 29.3326 5.41936C29.3326 6.53333 29.1268 7.50179 28.7154 8.32473C28.3139 9.13764 27.7369 9.76989 26.9842 10.2215C26.2415 10.6631 25.3634 10.8839 24.3498 10.8839C23.3161 10.8839 22.4279 10.6631 21.6852 10.2215C20.9426 9.76989 20.3706 9.13764 19.9691 8.32473C19.5777 7.50179 19.382 6.53835 19.382 5.43441ZM21.0229 5.43441C21.0229 6.719 21.3039 7.72258 21.8659 8.44516C22.4279 9.16774 23.2559 9.52903 24.3498 9.52903C25.4136 9.52903 26.2365 9.17276 26.8186 8.46022C27.4007 7.73764 27.6917 6.72903 27.6917 5.43441C27.6917 4.13979 27.4007 3.1362 26.8186 2.42366C26.2465 1.71111 25.4236 1.35484 24.3498 1.35484C23.2559 1.35484 22.4279 1.71111 21.8659 2.42366C21.3039 3.1362 21.0229 4.13979 21.0229 5.43441ZM31.2589 14.2527V13.5L33.4267 11.3022C33.7077 10.991 33.9134 10.7151 34.0439 10.4742C34.1743 10.2233 34.2396 9.96237 34.2396 9.6914C34.2396 9.03907 33.8683 8.7129 33.1256 8.7129C32.8346 8.7129 32.5335 8.77312 32.2224 8.89355C31.9113 9.00394 31.6353 9.16452 31.3944 9.37527L31.0632 8.59247C31.3342 8.36165 31.6604 8.17599 32.0417 8.03548C32.4331 7.89498 32.8546 7.82473 33.3062 7.82473C33.9385 7.82473 34.4353 7.9853 34.7966 8.30645C35.1579 8.61756 35.3385 9.04409 35.3385 9.58602C35.3385 9.92724 35.2532 10.2634 35.0826 10.5946C34.922 10.9258 34.6611 11.272 34.2998 11.6333L32.4331 13.5151V13.3645H35.6245V14.2527H31.2589Z" fill="#36A0FF"/>
</svg>
